<svg id="eGeV0jNDuSU1" xmlns="http://www.w3.org/2000/svg" xmlns:xlink="http://www.w3.org/1999/xlink" viewBox="0 0 1920 1080" shape-rendering="geometricPrecision" text-rendering="geometricPrecision"><g transform="translate(.000001 0)"><g transform="translate(.000001 0)"><g transform="translate(.000048 152.234828)"><path d="M0,599.711987l100.414932.444803L299.506905,499.992306h100.64474" transform="translate(0 0.661703)" fill="none" stroke="#007792" stroke-width="1"/><ellipse rx="10.40389" ry="10.127657" transform="translate(410.555536 499.996621)" fill="none" stroke="#007792" stroke-width="1"/></g><g transform="translate(.000048 295.789282)"><path d="M0,599.711987l100.414932.444803L299.506905,499.992306h100.64474" transform="translate(0 0.661703)" fill="none" stroke="#007792" stroke-width="1"/><ellipse rx="10.40389" ry="10.127657" transform="translate(410.555536 499.996621)" fill="none" stroke="#007792" stroke-width="1"/></g><g transform="translate(.000016 367.566514)"><path d="M0,599.711987l100.414932.444803L299.506905,499.992306h100.64474" transform="translate(0 0.661703)" fill="none" stroke="#007792" stroke-width="1"/><ellipse rx="10.40389" ry="10.127657" transform="translate(410.555536 499.996621)" fill="none" stroke="#007792" stroke-width="1"/></g><g transform="translate(.000001 400.171465)"><path d="M0,599.711987l100.414932.444803L299.506905,499.992306h100.64474" transform="translate(0 0.661703)" fill="none" stroke="#007792" stroke-width="1"/><ellipse rx="10.40389" ry="10.127657" transform="translate(410.555536 499.996621)" fill="none" stroke="#007792" stroke-width="1"/></g><g transform="translate(.000032 328.39423)"><path d="M0,599.711987l100.414932.444803L299.506905,499.992306h100.64474" transform="translate(0 0.661703)" fill="none" stroke="#007792" stroke-width="1"/><ellipse rx="10.40389" ry="10.127657" transform="translate(410.555536 499.996621)" fill="none" stroke="#007792" stroke-width="1"/></g><g transform="translate(.000016 224.012061)"><path d="M0,599.711987l100.414932.444803L299.506905,499.992306h100.64474" transform="translate(0 0.661703)" fill="none" stroke="#007792" stroke-width="1"/><ellipse rx="10.40389" ry="10.127657" transform="translate(410.555536 499.996621)" fill="none" stroke="#007792" stroke-width="1"/></g><g transform="translate(0 256.61701)"><path d="M0,599.711987l100.414932.444803L299.506905,499.992306h100.64474" transform="translate(0 0.661703)" fill="none" stroke="#007792" stroke-width="1"/><ellipse rx="10.40389" ry="10.127657" transform="translate(410.555536 499.996621)" fill="none" stroke="#007792" stroke-width="1"/></g><g transform="translate(.000032 184.839777)"><path d="M0,599.711987l100.414932.444803L299.506905,499.992306h100.64474" transform="translate(0 0.661703)" fill="none" stroke="#007792" stroke-width="1"/><ellipse rx="10.40389" ry="10.127657" transform="translate(410.555536 499.996621)" fill="none" stroke="#007792" stroke-width="1"/></g></g><g transform="translate(.000048 152.234828)"><path d="M0,599.711987l100.414932.444803L299.506905,499.992306h100.64474" transform="translate(0 0.661703)" fill="none" stroke="#007792" stroke-width="1"/><ellipse rx="10.40389" ry="10.127657" transform="translate(410.555536 499.996621)" fill="none" stroke="#007792" stroke-width="1"/></g><g transform="translate(.000048 295.789282)"><path d="M0,599.711987l100.414932.444803L299.506905,499.992306h100.64474" transform="translate(0 0.661703)" fill="none" stroke="#007792" stroke-width="1"/><ellipse rx="10.40389" ry="10.127657" transform="translate(410.555536 499.996621)" fill="none" stroke="#007792" stroke-width="1"/></g><g transform="translate(.000016 367.566514)"><path d="M0,599.711987l100.414932.444803L299.506905,499.992306h100.64474" transform="translate(0 0.661703)" fill="none" stroke="#007792" stroke-width="1"/><ellipse rx="10.40389" ry="10.127657" transform="translate(410.555536 499.996621)" fill="none" stroke="#007792" stroke-width="1"/></g><g transform="translate(.000001 400.171465)"><path d="M0,599.711987l100.414932.444803L299.506905,499.992306h100.64474" transform="translate(0 0.661703)" fill="none" stroke="#007792" stroke-width="1"/><ellipse rx="10.40389" ry="10.127657" transform="translate(410.555536 499.996621)" fill="none" stroke="#007792" stroke-width="1"/></g></g><g transform="translate(-6.563282-377.396857)"><g transform="translate(134.377661 253.533213)"><path d="M0,499.334918l400.151645.657388" transform="matrix(1.630428 0 0 1-252.2668 0.004315)" fill="none" stroke="#007792" stroke-width="1"/><ellipse rx="10.40389" ry="10.127657" transform="translate(410.555536 499.996621)" fill="none" stroke="#007792" stroke-width="1"/></g><g transform="translate(132.913104 285.158291)"><path d="M0,499.334918l400.151645.657388" transform="matrix(1.630428 0 0 1-252.2668 0.004315)" fill="none" stroke="#007792" stroke-width="1"/><ellipse rx="10.40389" ry="10.127657" transform="translate(410.555536 499.996621)" fill="none" stroke="#007792" stroke-width="1"/></g><g transform="translate(132.342613 317.820591)"><path d="M0,499.334918l400.151645.657388" transform="matrix(1.630428 0 0 1-252.2668 0.004315)" fill="none" stroke="#007792" stroke-width="1"/><ellipse rx="10.40389" ry="10.127657" transform="translate(410.555536 499.996621)" fill="none" stroke="#007792" stroke-width="1"/></g><g transform="translate(132.342644 347.786253)"><path d="M0,499.334918l400.151645.657388" transform="matrix(1.630428 0 0 1-252.2668 0.004315)" fill="none" stroke="#007792" stroke-width="1"/><ellipse rx="10.40389" ry="10.127657" transform="translate(410.555536 499.996621)" fill="none" stroke="#007792" stroke-width="1"/></g></g><g transform="matrix(0-1 1 0 258.496785 1350.710772)"><g transform="translate(134.377661 253.533213)"><path d="M0,499.334918l400.151645.657388" transform="matrix(1.630428 0 0 1-252.2668 0.004315)" fill="none" stroke="#007792" stroke-width="1"/><ellipse rx="10.40389" ry="10.127657" transform="translate(410.555536 499.996621)" fill="none" stroke="#007792" stroke-width="1"/></g><g transform="translate(132.913104 285.158291)"><path d="M0,499.334918l400.151645.657388" transform="matrix(1.630428 0 0 1-252.2668 0.004315)" fill="none" stroke="#007792" stroke-width="1"/><ellipse rx="10.40389" ry="10.127657" transform="translate(410.555536 499.996621)" fill="none" stroke="#007792" stroke-width="1"/></g><g transform="translate(132.342613 317.820591)"><path d="M0,499.334918l400.151645.657388" transform="matrix(1.630428 0 0 1-252.2668 0.004315)" fill="none" stroke="#007792" stroke-width="1"/><ellipse rx="10.40389" ry="10.127657" transform="translate(410.555536 499.996621)" fill="none" stroke="#007792" stroke-width="1"/></g><g transform="translate(132.342644 347.786253)"><path d="M0,499.334918l400.151645.657388" transform="matrix(1.630428 0 0 1-252.2668 0.004315)" fill="none" stroke="#007792" stroke-width="1"/><ellipse rx="10.40389" ry="10.127657" transform="translate(410.555536 499.996621)" fill="none" stroke="#007792" stroke-width="1"/></g><g transform="translate(130.307565 475.518955)"><path d="M0,499.334918l400.151645.657388" transform="matrix(1.630428 0 0 1-252.2668 0.004315)" fill="none" stroke="#007792" stroke-width="1"/><ellipse rx="10.40389" ry="10.127657" transform="translate(410.555536 499.996621)" fill="none" stroke="#007792" stroke-width="1"/></g><g transform="translate(130.307534 445.553292)"><path d="M0,499.334918l400.151645.657388" transform="matrix(1.630428 0 0 1-252.2668 0.004315)" fill="none" stroke="#007792" stroke-width="1"/><ellipse rx="10.40389" ry="10.127657" transform="translate(410.555536 499.996621)" fill="none" stroke="#007792" stroke-width="1"/></g><g transform="translate(130.878025 412.890992)"><path d="M0,499.334918l400.151645.657388" transform="matrix(1.630428 0 0 1-252.2668 0.004315)" fill="none" stroke="#007792" stroke-width="1"/><ellipse rx="10.40389" ry="10.127657" transform="translate(410.555536 499.996621)" fill="none" stroke="#007792" stroke-width="1"/></g><g transform="translate(132.342582 381.265914)"><path d="M0,499.334918l400.151645.657388" transform="matrix(1.630428 0 0 1-252.2668 0.004315)" fill="none" stroke="#007792" stroke-width="1"/><ellipse rx="10.40389" ry="10.127657" transform="translate(410.555536 499.996621)" fill="none" stroke="#007792" stroke-width="1"/></g></g><g transform="matrix(0-1 1 0 906.938178 1083.31861)"><g transform="translate(.000001 0)"><g transform="translate(.000048 152.234828)"><path d="M0,599.711987l100.414932.444803L299.506905,499.992306h100.64474" transform="translate(0 0.661703)" fill="none" stroke="#007792" stroke-width="1"/><ellipse rx="10.40389" ry="10.127657" transform="translate(410.555536 499.996621)" fill="none" stroke="#007792" stroke-width="1"/></g><g transform="translate(.000048 295.789282)"><path d="M0,599.711987l100.414932.444803L299.506905,499.992306h100.64474" transform="translate(0 0.661703)" fill="none" stroke="#007792" stroke-width="1"/><ellipse rx="10.40389" ry="10.127657" transform="translate(410.555536 499.996621)" fill="none" stroke="#007792" stroke-width="1"/></g><g transform="translate(.000016 367.566514)"><path d="M0,599.711987l100.414932.444803L299.506905,499.992306h100.64474" transform="translate(0 0.661703)" fill="none" stroke="#007792" stroke-width="1"/><ellipse rx="10.40389" ry="10.127657" transform="translate(410.555536 499.996621)" fill="none" stroke="#007792" stroke-width="1"/></g><g transform="translate(.000001 400.171465)"><path d="M0,599.711987l100.414932.444803L299.506905,499.992306h100.64474" transform="translate(0 0.661703)" fill="none" stroke="#007792" stroke-width="1"/><ellipse rx="10.40389" ry="10.127657" transform="translate(410.555536 499.996621)" fill="none" stroke="#007792" stroke-width="1"/></g><g transform="translate(.000032 328.39423)"><path d="M0,599.711987l100.414932.444803L299.506905,499.992306h100.64474" transform="translate(0 0.661703)" fill="none" stroke="#007792" stroke-width="1"/><ellipse rx="10.40389" ry="10.127657" transform="translate(410.555536 499.996621)" fill="none" stroke="#007792" stroke-width="1"/></g><g transform="translate(.000016 224.012061)"><path d="M0,599.711987l100.414932.444803L299.506905,499.992306h100.64474" transform="translate(0 0.661703)" fill="none" stroke="#007792" stroke-width="1"/><ellipse rx="10.40389" ry="10.127657" transform="translate(410.555536 499.996621)" fill="none" stroke="#007792" stroke-width="1"/></g><g transform="translate(0 256.61701)"><path d="M0,599.711987l100.414932.444803L299.506905,499.992306h100.64474" transform="translate(0 0.661703)" fill="none" stroke="#007792" stroke-width="1"/><ellipse rx="10.40389" ry="10.127657" transform="translate(410.555536 499.996621)" fill="none" stroke="#007792" stroke-width="1"/></g><g transform="translate(.000032 184.839777)"><path d="M0,599.711987l100.414932.444803L299.506905,499.992306h100.64474" transform="translate(0 0.661703)" fill="none" stroke="#007792" stroke-width="1"/><ellipse rx="10.40389" ry="10.127657" transform="translate(410.555536 499.996621)" fill="none" stroke="#007792" stroke-width="1"/></g></g><g transform="translate(.000048 152.234828)"><path d="M0,599.711987l100.414932.444803L299.506905,499.992306h100.64474" transform="translate(0 0.661703)" fill="none" stroke="#007792" stroke-width="1"/><ellipse rx="10.40389" ry="10.127657" transform="translate(410.555536 499.996621)" fill="none" stroke="#007792" stroke-width="1"/></g><g transform="translate(.000048 295.789282)"><path d="M0,599.711987l100.414932.444803L299.506905,499.992306h100.64474" transform="translate(0 0.661703)" fill="none" stroke="#007792" stroke-width="1"/><ellipse rx="10.40389" ry="10.127657" transform="translate(410.555536 499.996621)" fill="none" stroke="#007792" stroke-width="1"/></g><g transform="translate(.000016 367.566514)"><path d="M0,599.711987l100.414932.444803L299.506905,499.992306h100.64474" transform="translate(0 0.661703)" fill="none" stroke="#007792" stroke-width="1"/><ellipse rx="10.40389" ry="10.127657" transform="translate(410.555536 499.996621)" fill="none" stroke="#007792" stroke-width="1"/></g><g transform="translate(.000001 400.171465)"><path d="M0,599.711987l100.414932.444803L299.506905,499.992306h100.64474" transform="translate(0 0.661703)" fill="none" stroke="#007792" stroke-width="1"/><ellipse rx="10.40389" ry="10.127657" transform="translate(410.555536 499.996621)" fill="none" stroke="#007792" stroke-width="1"/></g></g><g transform="matrix(0 1-1 0 2126.648015-17.956346)"><g transform="translate(.000001 0)"><g transform="translate(.000048 152.234828)"><path d="M0,599.711987l100.414932.444803L299.506905,499.992306h100.64474" transform="translate(0 0.661703)" fill="none" stroke="#007792" stroke-width="1"/><ellipse rx="10.40389" ry="10.127657" transform="translate(410.555536 499.996621)" fill="none" stroke="#007792" stroke-width="1"/></g><g transform="translate(.000048 295.789282)"><path d="M0,599.711987l100.414932.444803L299.506905,499.992306h100.64474" transform="translate(0 0.661703)" fill="none" stroke="#007792" stroke-width="1"/><ellipse rx="10.40389" ry="10.127657" transform="translate(410.555536 499.996621)" fill="none" stroke="#007792" stroke-width="1"/></g><g transform="translate(.000016 367.566514)"><path d="M0,599.711987l100.414932.444803L299.506905,499.992306h100.64474" transform="translate(0 0.661703)" fill="none" stroke="#007792" stroke-width="1"/><ellipse rx="10.40389" ry="10.127657" transform="translate(410.555536 499.996621)" fill="none" stroke="#007792" stroke-width="1"/></g><g transform="translate(.000001 400.171465)"><path d="M0,599.711987l100.414932.444803L299.506905,499.992306h100.64474" transform="translate(0 0.661703)" fill="none" stroke="#007792" stroke-width="1"/><ellipse rx="10.40389" ry="10.127657" transform="translate(410.555536 499.996621)" fill="none" stroke="#007792" stroke-width="1"/></g><g transform="translate(.000032 328.39423)"><path d="M0,599.711987l100.414932.444803L299.506905,499.992306h100.64474" transform="translate(0 0.661703)" fill="none" stroke="#007792" stroke-width="1"/><ellipse rx="10.40389" ry="10.127657" transform="translate(410.555536 499.996621)" fill="none" stroke="#007792" stroke-width="1"/></g><g transform="translate(.000016 224.012061)"><path d="M0,599.711987l100.414932.444803L299.506905,499.992306h100.64474" transform="translate(0 0.661703)" fill="none" stroke="#007792" stroke-width="1"/><ellipse rx="10.40389" ry="10.127657" transform="translate(410.555536 499.996621)" fill="none" stroke="#007792" stroke-width="1"/></g><g transform="translate(0 256.61701)"><path d="M0,599.711987l100.414932.444803L299.506905,499.992306h100.64474" transform="translate(0 0.661703)" fill="none" stroke="#007792" stroke-width="1"/><ellipse rx="10.40389" ry="10.127657" transform="translate(410.555536 499.996621)" fill="none" stroke="#007792" stroke-width="1"/></g><g transform="translate(.000032 184.839777)"><path d="M0,599.711987l100.414932.444803L299.506905,499.992306h100.64474" transform="translate(0 0.661703)" fill="none" stroke="#007792" stroke-width="1"/><ellipse rx="10.40389" ry="10.127657" transform="translate(410.555536 499.996621)" fill="none" stroke="#007792" stroke-width="1"/></g></g><g transform="translate(.000048 152.234828)"><path d="M0,599.711987l100.414932.444803L299.506905,499.992306h100.64474" transform="translate(0 0.661703)" fill="none" stroke="#007792" stroke-width="1"/><ellipse rx="10.40389" ry="10.127657" transform="translate(410.555536 499.996621)" fill="none" stroke="#007792" stroke-width="1"/></g><g transform="translate(.000048 295.789282)"><path d="M0,599.711987l100.414932.444803L299.506905,499.992306h100.64474" transform="translate(0 0.661703)" fill="none" stroke="#007792" stroke-width="1"/><ellipse rx="10.40389" ry="10.127657" transform="translate(410.555536 499.996621)" fill="none" stroke="#007792" stroke-width="1"/></g><g transform="translate(.000016 367.566514)"><path d="M0,599.711987l100.414932.444803L299.506905,499.992306h100.64474" transform="translate(0 0.661703)" fill="none" stroke="#007792" stroke-width="1"/><ellipse rx="10.40389" ry="10.127657" transform="translate(410.555536 499.996621)" fill="none" stroke="#007792" stroke-width="1"/></g><g transform="translate(.000001 400.171465)"><path d="M0,599.711987l100.414932.444803L299.506905,499.992306h100.64474" transform="translate(0 0.661703)" fill="none" stroke="#007792" stroke-width="1"/><ellipse rx="10.40389" ry="10.127657" transform="translate(410.555536 499.996621)" fill="none" stroke="#007792" stroke-width="1"/></g></g><g transform="translate(0 0.000001)"><g transform="matrix(.96071 0 0 1 129.118425 0.786795)"><path d="M1864.122941,499.722599l-365.002938.224351" transform="translate(0-1.103219)" fill="none" stroke="#007792" stroke-width="1"/><ellipse rx="10.40389" ry="10.127657" transform="translate(1488.716113 498.61938)" fill="none" stroke="#007792" stroke-width="1"/></g><g transform="translate(-20.83094-1.985507)"><path d="M1898.965533,479.584908l-199.922765.654127-99.376257-29.965662" transform="translate(.000001 0.000001)" fill="none" stroke="#007792" stroke-width="1"/><ellipse rx="10.40389" ry="10.127657" transform="translate(1589.262622 445.083064)" fill="none" stroke="#007792" stroke-width="1"/></g><g transform="translate(-20.83094-1.985507)"><path d="M1940.830914,479.584908l-241.788146.654127-99.376257-29.965662" transform="translate(.000001 0.000001)" fill="none" stroke="#007792" stroke-width="1"/><ellipse rx="10.40389" ry="10.127657" transform="translate(1589.262622 445.083064)" fill="none" stroke="#007792" stroke-width="1"/></g><g transform="translate(-.023071-31.951177)"><path d="M1920.023045,480.239035h-220.980277l-99.376257-29.965662" transform="translate(.000001 0.000001)" fill="none" stroke="#007792" stroke-width="1"/><ellipse rx="10.40389" ry="10.127657" transform="translate(1589.262622 445.083064)" fill="none" stroke="#007792" stroke-width="1"/></g><g transform="matrix(1 0 0-1-.023113 1029.067115)"><path d="M1920.023086,480.239035h-220.980318l-99.376257-29.965662" transform="translate(.000001 0.000001)" fill="none" stroke="#007792" stroke-width="1"/><ellipse rx="10.40389" ry="10.127657" transform="translate(1589.262622 445.083064)" fill="none" stroke="#007792" stroke-width="1"/></g><g transform="matrix(1 0 0-1-25.397144 1049.322428)"><path d="M1940.830913,480.239035h-241.788145l-99.376257-29.965662" transform="translate(4.566205 50.220984)" fill="none" stroke="#007792" stroke-width="1"/><ellipse rx="10.40389" ry="10.127657" transform="translate(1593.828826 495.304048)" fill="none" stroke="#007792" stroke-width="1"/></g></g><g transform="matrix(-.999921 0.012569 0.012569 0.999921 845.020854-50.456765)"><g transform="matrix(1 0 0-1-1444.227301 762.259853)"><path d="M1920.023086,480.239035h-220.980318l-99.376257-29.965662" transform="translate(.000001 0.000001)" fill="none" stroke="#007792" stroke-width="1"/><ellipse rx="10.40389" ry="10.127657" transform="translate(1589.262622 445.083064)" fill="none" stroke="#007792" stroke-width="1"/></g><g transform="matrix(1 0 0-1-1469.701007 781.946736)"><path d="M1940.830913,480.239035h-241.788145l-99.376257-29.965662" transform="translate(4.566205 50.220984)" fill="none" stroke="#007792" stroke-width="1"/><ellipse rx="10.40389" ry="10.127657" transform="translate(1593.828826 495.304048)" fill="none" stroke="#007792" stroke-width="1"/></g><g transform="translate(475.69607-348.80962)"><path d="M0,599.711987l100.414932.444803L299.506905,499.992306h100.64474" transform="translate(0 0.661703)" fill="none" stroke="#007792" stroke-width="1"/><ellipse rx="10.40389" ry="10.127657" transform="translate(410.555536 499.996621)" fill="none" stroke="#007792" stroke-width="1"/></g><g transform="translate(474.193131-379.26624)"><path d="M0,599.711987l100.414932.444803L299.506905,499.992306h100.64474" transform="translate(0 0.661703)" fill="none" stroke="#007792" stroke-width="1"/><ellipse rx="10.40389" ry="10.127657" transform="translate(410.555536 499.996621)" fill="none" stroke="#007792" stroke-width="1"/></g><g transform="matrix(.96071 0 0 1-1316.500414-277.479462)"><path d="M1864.122941,499.722599l-365.002938.224351" transform="translate(0-1.103219)" fill="none" stroke="#007792" stroke-width="1"/><ellipse rx="10.40389" ry="10.127657" transform="translate(1488.716113 498.61938)" fill="none" stroke="#007792" stroke-width="1"/></g><g transform="translate(475.696054-318.398977)"><path d="M0,599.711987l100.414932.444803L299.506905,499.992306h100.64474" transform="translate(0 0.661703)" fill="none" stroke="#007792" stroke-width="1"/><ellipse rx="10.40389" ry="10.127657" transform="translate(410.555536 499.996621)" fill="none" stroke="#007792" stroke-width="1"/></g><g transform="translate(-1466.073832-288.909464)"><path d="M1940.830914,479.584908l-241.788146.654127-99.376257-29.965662" transform="translate(.000001 0.000001)" fill="none" stroke="#007792" stroke-width="1"/><ellipse rx="10.40389" ry="10.127657" transform="translate(1589.262622 445.083064)" fill="none" stroke="#007792" stroke-width="1"/></g><g transform="translate(474.193147-409.676883)"><path d="M0,599.711987l100.414932.444803L299.506905,499.992306h100.64474" transform="translate(0 0.661703)" fill="none" stroke="#007792" stroke-width="1"/><ellipse rx="10.40389" ry="10.127657" transform="translate(410.555536 499.996621)" fill="none" stroke="#007792" stroke-width="1"/></g><g transform="translate(-1446.581096-320.56109)"><path d="M1920.023045,480.239035h-220.980277l-99.376257-29.965662" transform="translate(.000001 0.000001)" fill="none" stroke="#007792" stroke-width="1"/><ellipse rx="10.40389" ry="10.127657" transform="translate(1589.262622 445.083064)" fill="none" stroke="#007792" stroke-width="1"/></g><g transform="translate(473.441951-440.712114)"><path d="M0,599.711987l100.414932.444803L299.506905,499.992306h100.64474" transform="translate(0 0.661703)" fill="none" stroke="#007792" stroke-width="1"/><ellipse rx="10.40389" ry="10.127657" transform="translate(410.555536 499.996621)" fill="none" stroke="#007792" stroke-width="1"/></g></g><g transform="matrix(-.00732 0.999973 0.999973 0.00732 817.16274-496.023131)"><g transform="matrix(1 0 0-1-1444.227301 762.259853)"><path d="M1920.023086,480.239035h-220.980318l-99.376257-29.965662" transform="translate(.000001 0.000001)" fill="none" stroke="#007792" stroke-width="1"/><ellipse rx="10.40389" ry="10.127657" transform="translate(1589.262622 445.083064)" fill="none" stroke="#007792" stroke-width="1"/></g><g transform="matrix(1 0 0-1-1469.701007 781.946736)"><path d="M1940.830913,480.239035h-241.788145l-99.376257-29.965662" transform="translate(4.566205 50.220984)" fill="none" stroke="#007792" stroke-width="1"/><ellipse rx="10.40389" ry="10.127657" transform="translate(1593.828826 495.304048)" fill="none" stroke="#007792" stroke-width="1"/></g><g transform="translate(475.69607-348.80962)"><path d="M0,599.711987l100.414932.444803L299.506905,499.992306h100.64474" transform="translate(0 0.661703)" fill="none" stroke="#007792" stroke-width="1"/><ellipse rx="10.40389" ry="10.127657" transform="translate(410.555536 499.996621)" fill="none" stroke="#007792" stroke-width="1"/></g><g transform="translate(474.193131-379.26624)"><path d="M0,599.711987l100.414932.444803L299.506905,499.992306h100.64474" transform="translate(0 0.661703)" fill="none" stroke="#007792" stroke-width="1"/><ellipse rx="10.40389" ry="10.127657" transform="translate(410.555536 499.996621)" fill="none" stroke="#007792" stroke-width="1"/></g><g transform="matrix(.96071 0 0 1-1316.500414-277.479462)"><path d="M1864.122941,499.722599l-365.002938.224351" transform="translate(0-1.103219)" fill="none" stroke="#007792" stroke-width="1"/><ellipse rx="10.40389" ry="10.127657" transform="translate(1488.716113 498.61938)" fill="none" stroke="#007792" stroke-width="1"/></g><g transform="translate(475.696054-318.398977)"><path d="M0,599.711987l100.414932.444803L299.506905,499.992306h100.64474" transform="translate(0 0.661703)" fill="none" stroke="#007792" stroke-width="1"/><ellipse rx="10.40389" ry="10.127657" transform="translate(410.555536 499.996621)" fill="none" stroke="#007792" stroke-width="1"/></g><g transform="translate(-1466.073832-288.909464)"><path d="M1940.830914,479.584908l-241.788146.654127-99.376257-29.965662" transform="translate(.000001 0.000001)" fill="none" stroke="#007792" stroke-width="1"/><ellipse rx="10.40389" ry="10.127657" transform="translate(1589.262622 445.083064)" fill="none" stroke="#007792" stroke-width="1"/></g><g transform="translate(474.193147-409.676883)"><path d="M0,599.711987l100.414932.444803L299.506905,499.992306h100.64474" transform="translate(0 0.661703)" fill="none" stroke="#007792" stroke-width="1"/><ellipse rx="10.40389" ry="10.127657" transform="translate(410.555536 499.996621)" fill="none" stroke="#007792" stroke-width="1"/></g><g transform="translate(-1446.581096-320.56109)"><path d="M1920.023045,480.239035h-220.980277l-99.376257-29.965662" transform="translate(.000001 0.000001)" fill="none" stroke="#007792" stroke-width="1"/><ellipse rx="10.40389" ry="10.127657" transform="translate(1589.262622 445.083064)" fill="none" stroke="#007792" stroke-width="1"/></g><g transform="translate(473.441951-440.712114)"><path d="M0,599.711987l100.414932.444803L299.506905,499.992306h100.64474" transform="translate(0 0.661703)" fill="none" stroke="#007792" stroke-width="1"/><ellipse rx="10.40389" ry="10.127657" transform="translate(410.555536 499.996621)" fill="none" stroke="#007792" stroke-width="1"/></g></g><g transform="matrix(-.00732 0.999973 0.999973 0.00732 451.719426 490.025724)"><g transform="matrix(1 0 0-1-1444.227301 762.259853)"><path d="M1920.023086,480.239035h-220.980318l-99.376257-29.965662" transform="translate(.000001 0.000001)" fill="none" stroke="#007792" stroke-width="1"/><ellipse rx="10.40389" ry="10.127657" transform="translate(1589.262622 445.083064)" fill="none" stroke="#007792" stroke-width="1"/></g><g transform="matrix(1 0 0-1-1469.701007 781.946736)"><path d="M1940.830913,480.239035h-241.788145l-99.376257-29.965662" transform="translate(4.566205 50.220984)" fill="none" stroke="#007792" stroke-width="1"/><ellipse rx="10.40389" ry="10.127657" transform="translate(1593.828826 495.304048)" fill="none" stroke="#007792" stroke-width="1"/></g><g transform="translate(475.69607-348.80962)"><path d="M0,599.711987l100.414932.444803L299.506905,499.992306h100.64474" transform="translate(0 0.661703)" fill="none" stroke="#007792" stroke-width="1"/><ellipse rx="10.40389" ry="10.127657" transform="translate(410.555536 499.996621)" fill="none" stroke="#007792" stroke-width="1"/></g><g transform="translate(474.193131-379.26624)"><path d="M0,599.711987l100.414932.444803L299.506905,499.992306h100.64474" transform="translate(0 0.661703)" fill="none" stroke="#007792" stroke-width="1"/><ellipse rx="10.40389" ry="10.127657" transform="translate(410.555536 499.996621)" fill="none" stroke="#007792" stroke-width="1"/></g><g transform="matrix(.96071 0 0 1-1316.500414-277.479462)"><path d="M1864.122941,499.722599l-365.002938.224351" transform="translate(0-1.103219)" fill="none" stroke="#007792" stroke-width="1"/><ellipse rx="10.40389" ry="10.127657" transform="translate(1488.716113 498.61938)" fill="none" stroke="#007792" stroke-width="1"/></g><g transform="translate(475.696054-318.398977)"><path d="M0,599.711987l100.414932.444803L299.506905,499.992306h100.64474" transform="translate(0 0.661703)" fill="none" stroke="#007792" stroke-width="1"/><ellipse rx="10.40389" ry="10.127657" transform="translate(410.555536 499.996621)" fill="none" stroke="#007792" stroke-width="1"/></g><g transform="translate(-1466.073832-288.909464)"><path d="M1940.830914,479.584908l-241.788146.654127-99.376257-29.965662" transform="translate(.000001 0.000001)" fill="none" stroke="#007792" stroke-width="1"/><ellipse rx="10.40389" ry="10.127657" transform="translate(1589.262622 445.083064)" fill="none" stroke="#007792" stroke-width="1"/></g><g transform="translate(474.193147-409.676883)"><path d="M0,599.711987l100.414932.444803L299.506905,499.992306h100.64474" transform="translate(0 0.661703)" fill="none" stroke="#007792" stroke-width="1"/><ellipse rx="10.40389" ry="10.127657" transform="translate(410.555536 499.996621)" fill="none" stroke="#007792" stroke-width="1"/></g><g transform="translate(-1446.581096-320.56109)"><path d="M1920.023045,480.239035h-220.980277l-99.376257-29.965662" transform="translate(.000001 0.000001)" fill="none" stroke="#007792" stroke-width="1"/><ellipse rx="10.40389" ry="10.127657" transform="translate(1589.262622 445.083064)" fill="none" stroke="#007792" stroke-width="1"/></g><g transform="translate(473.441951-440.712114)"><path d="M0,599.711987l100.414932.444803L299.506905,499.992306h100.64474" transform="translate(0 0.661703)" fill="none" stroke="#007792" stroke-width="1"/><ellipse rx="10.40389" ry="10.127657" transform="translate(410.555536 499.996621)" fill="none" stroke="#007792" stroke-width="1"/></g></g><g transform="matrix(-.999973-.00732-.00732 0.999973 2541.541568 48.100158)"><g transform="matrix(1 0 0-1-1444.227301 762.259853)"><path d="M1920.023086,480.239035h-220.980318l-99.376257-29.965662" transform="translate(.000001 0.000001)" fill="none" stroke="#007792" stroke-width="1"/><ellipse rx="10.40389" ry="10.127657" transform="translate(1589.262622 445.083064)" fill="none" stroke="#007792" stroke-width="1"/></g><g transform="matrix(1 0 0-1-1469.701007 781.946736)"><path d="M1940.830913,480.239035h-241.788145l-99.376257-29.965662" transform="translate(4.566205 50.220984)" fill="none" stroke="#007792" stroke-width="1"/><ellipse rx="10.40389" ry="10.127657" transform="translate(1593.828826 495.304048)" fill="none" stroke="#007792" stroke-width="1"/></g><g transform="translate(475.69607-348.80962)"><path d="M0,599.711987l100.414932.444803L299.506905,499.992306h100.64474" transform="translate(0 0.661703)" fill="none" stroke="#007792" stroke-width="1"/><ellipse rx="10.40389" ry="10.127657" transform="translate(410.555536 499.996621)" fill="none" stroke="#007792" stroke-width="1"/></g><g transform="translate(474.193131-379.26624)"><path d="M0,599.711987l100.414932.444803L299.506905,499.992306h100.64474" transform="translate(0 0.661703)" fill="none" stroke="#007792" stroke-width="1"/><ellipse rx="10.40389" ry="10.127657" transform="translate(410.555536 499.996621)" fill="none" stroke="#007792" stroke-width="1"/></g><g transform="matrix(.96071 0 0 1-1316.500414-277.479462)"><path d="M1864.122941,499.722599l-365.002938.224351" transform="translate(0-1.103219)" fill="none" stroke="#007792" stroke-width="1"/><ellipse rx="10.40389" ry="10.127657" transform="translate(1488.716113 498.61938)" fill="none" stroke="#007792" stroke-width="1"/></g><g transform="translate(475.696054-318.398977)"><path d="M0,599.711987l100.414932.444803L299.506905,499.992306h100.64474" transform="translate(0 0.661703)" fill="none" stroke="#007792" stroke-width="1"/><ellipse rx="10.40389" ry="10.127657" transform="translate(410.555536 499.996621)" fill="none" stroke="#007792" stroke-width="1"/></g><g transform="translate(-1466.073832-288.909464)"><path d="M1940.830914,479.584908l-241.788146.654127-99.376257-29.965662" transform="translate(.000001 0.000001)" fill="none" stroke="#007792" stroke-width="1"/><ellipse rx="10.40389" ry="10.127657" transform="translate(1589.262622 445.083064)" fill="none" stroke="#007792" stroke-width="1"/></g><g transform="translate(474.193147-409.676883)"><path d="M0,599.711987l100.414932.444803L299.506905,499.992306h100.64474" transform="translate(0 0.661703)" fill="none" stroke="#007792" stroke-width="1"/><ellipse rx="10.40389" ry="10.127657" transform="translate(410.555536 499.996621)" fill="none" stroke="#007792" stroke-width="1"/></g><g transform="translate(-1446.581096-320.56109)"><path d="M1920.023045,480.239035h-220.980277l-99.376257-29.965662" transform="translate(.000001 0.000001)" fill="none" stroke="#007792" stroke-width="1"/><ellipse rx="10.40389" ry="10.127657" transform="translate(1589.262622 445.083064)" fill="none" stroke="#007792" stroke-width="1"/></g><g transform="translate(473.441951-440.712114)"><path d="M0,599.711987l100.414932.444803L299.506905,499.992306h100.64474" transform="translate(0 0.661703)" fill="none" stroke="#007792" stroke-width="1"/><ellipse rx="10.40389" ry="10.127657" transform="translate(410.555536 499.996621)" fill="none" stroke="#007792" stroke-width="1"/></g></g></svg>
