<svg id="eAziesSV0Eb1" xmlns="http://www.w3.org/2000/svg" xmlns:xlink="http://www.w3.org/1999/xlink" viewBox="0 0 4750 2175.03" shape-rendering="geometricPrecision" text-rendering="geometricPrecision"><g transform="matrix(0-1 1 0-623.091157 2176.76327)"><g transform="translate(.000001 0)"><g transform="translate(.000048 152.234828)"><path d="M0,599.711987l100.414932.444803L299.506905,499.992306h100.64474" transform="translate(0 0.661703)" fill="none" stroke="#0a323e" stroke-width="1"/><ellipse rx="10.40389" ry="10.127657" transform="translate(410.555536 499.996621)" fill="none" stroke="#0a323e" stroke-width="1"/></g><g transform="translate(.000048 295.789282)"><path d="M0,599.711987l100.414932.444803L299.506905,499.992306h100.64474" transform="translate(0 0.661703)" fill="none" stroke="#0a323e" stroke-width="1"/><ellipse rx="10.40389" ry="10.127657" transform="translate(410.555536 499.996621)" fill="none" stroke="#0a323e" stroke-width="1"/></g><g transform="translate(.000016 367.566514)"><path d="M0,599.711987l100.414932.444803L299.506905,499.992306h100.64474" transform="translate(0 0.661703)" fill="none" stroke="#0a323e" stroke-width="1"/><ellipse rx="10.40389" ry="10.127657" transform="translate(410.555536 499.996621)" fill="none" stroke="#0a323e" stroke-width="1"/></g><g transform="translate(.000001 400.171465)"><path d="M0,599.711987l100.414932.444803L299.506905,499.992306h100.64474" transform="translate(0 0.661703)" fill="none" stroke="#0a323e" stroke-width="1"/><ellipse rx="10.40389" ry="10.127657" transform="translate(410.555536 499.996621)" fill="none" stroke="#0a323e" stroke-width="1"/></g><g transform="translate(.000032 328.39423)"><path d="M0,599.711987l100.414932.444803L299.506905,499.992306h100.64474" transform="translate(0 0.661703)" fill="none" stroke="#0a323e" stroke-width="1"/><ellipse rx="10.40389" ry="10.127657" transform="translate(410.555536 499.996621)" fill="none" stroke="#0a323e" stroke-width="1"/></g><g transform="translate(.000016 224.012061)"><path d="M0,599.711987l100.414932.444803L299.506905,499.992306h100.64474" transform="translate(0 0.661703)" fill="none" stroke="#0a323e" stroke-width="1"/><ellipse rx="10.40389" ry="10.127657" transform="translate(410.555536 499.996621)" fill="none" stroke="#0a323e" stroke-width="1"/></g><g transform="translate(0 256.61701)"><path d="M0,599.711987l100.414932.444803L299.506905,499.992306h100.64474" transform="translate(0 0.661703)" fill="none" stroke="#0a323e" stroke-width="1"/><ellipse rx="10.40389" ry="10.127657" transform="translate(410.555536 499.996621)" fill="none" stroke="#0a323e" stroke-width="1"/></g><g transform="translate(.000032 184.839777)"><path d="M0,599.711987l100.414932.444803L299.506905,499.992306h100.64474" transform="translate(0 0.661703)" fill="none" stroke="#0a323e" stroke-width="1"/><ellipse rx="10.40389" ry="10.127657" transform="translate(410.555536 499.996621)" fill="none" stroke="#0a323e" stroke-width="1"/></g></g><g transform="translate(.000048 152.234828)"><path d="M0,599.711987l100.414932.444803L299.506905,499.992306h100.64474" transform="translate(0 0.661703)" fill="none" stroke="#0a323e" stroke-width="1"/><ellipse rx="10.40389" ry="10.127657" transform="translate(410.555536 499.996621)" fill="none" stroke="#0a323e" stroke-width="1"/></g><g transform="translate(.000048 295.789282)"><path d="M0,599.711987l100.414932.444803L299.506905,499.992306h100.64474" transform="translate(0 0.661703)" fill="none" stroke="#0a323e" stroke-width="1"/><ellipse rx="10.40389" ry="10.127657" transform="translate(410.555536 499.996621)" fill="none" stroke="#0a323e" stroke-width="1"/></g><g transform="translate(.000016 367.566514)"><path d="M0,599.711987l100.414932.444803L299.506905,499.992306h100.64474" transform="translate(0 0.661703)" fill="none" stroke="#0a323e" stroke-width="1"/><ellipse rx="10.40389" ry="10.127657" transform="translate(410.555536 499.996621)" fill="none" stroke="#0a323e" stroke-width="1"/></g><g transform="translate(.000001 400.171465)"><path d="M0,599.711987l100.414932.444803L299.506905,499.992306h100.64474" transform="translate(0 0.661703)" fill="none" stroke="#0a323e" stroke-width="1"/><ellipse rx="10.40389" ry="10.127657" transform="translate(410.555536 499.996621)" fill="none" stroke="#0a323e" stroke-width="1"/></g></g><g transform="matrix(-.678427-.734668 0.734668-.678427 3978.31259 3026.730135)"><g transform="translate(170.880506 227.444027)"><path d="M0,499.334918l400.151645.657388" transform="matrix(1.630428 0 0 1-252.2668 0.004315)" fill="none" stroke="#0a323e" stroke-width="1"/><ellipse rx="10.40389" ry="10.127657" transform="translate(410.555536 499.996621)" fill="none" stroke="#0a323e" stroke-width="1"/></g><g transform="translate(194.131996 249.765977)"><path d="M0,499.334918l400.151645.657388" transform="matrix(1.630428 0 0 1-252.2668 0.004315)" fill="none" stroke="#0a323e" stroke-width="1"/><ellipse rx="10.40389" ry="10.127657" transform="translate(412.991383 502.245999)" fill="none" stroke="#0a323e" stroke-width="1"/></g><g transform="translate(221.552379 275.572743)"><path d="M0,499.334918l400.151645.657388" transform="matrix(1.630428 0 0 1-252.2668 0.004315)" fill="none" stroke="#0a323e" stroke-width="1"/><ellipse rx="10.40389" ry="10.127657" transform="translate(410.555536 499.996621)" fill="none" stroke="#0a323e" stroke-width="1"/></g><g transform="translate(246.839354 298.134693)"><path d="M0,499.334918l400.151645.657388" transform="matrix(1.630428 0 0 1-252.2668 0.004315)" fill="none" stroke="#0a323e" stroke-width="1"/><ellipse rx="10.40389" ry="10.127657" transform="translate(410.555536 499.996621)" fill="none" stroke="#0a323e" stroke-width="1"/></g><g transform="translate(328.101666 370.583976)"><path d="M0,499.334918l400.151645.657388" transform="matrix(1.630428 0 0 1-252.2668 0.004315)" fill="none" stroke="#0a323e" stroke-width="1"/><ellipse rx="10.40389" ry="10.127657" transform="translate(410.555536 499.996621)" fill="none" stroke="#0a323e" stroke-width="1"/></g><g transform="translate(353.678056 394.20245)"><path d="M0,499.334918l400.151645.657388" transform="matrix(1.630428 0 0 1-252.2668 0.004315)" fill="none" stroke="#0a323e" stroke-width="1"/><ellipse rx="10.40389" ry="10.127657" transform="translate(410.555536 499.996621)" fill="none" stroke="#0a323e" stroke-width="1"/></g><g transform="translate(299.965003 345.495556)"><path d="M0,499.334918l400.151645.657388" transform="matrix(1.630428 0 0 1-252.2668 0.004315)" fill="none" stroke="#0a323e" stroke-width="1"/><ellipse rx="10.40389" ry="10.127657" transform="translate(410.555536 499.996621)" fill="none" stroke="#0a323e" stroke-width="1"/></g><g transform="translate(273.060307 322.105252)"><path d="M0,499.334918l400.151645.657388" transform="matrix(1.630428 0 0 1-252.2668 0.004315)" fill="none" stroke="#0a323e" stroke-width="1"/><ellipse rx="10.40389" ry="10.127657" transform="translate(410.555536 499.996621)" fill="none" stroke="#0a323e" stroke-width="1"/></g></g><g transform="matrix(-.678427-.734668 0.734668-.678427 1787.480619 2927.69141)"><g transform="translate(170.880506 227.444027)"><path d="M0,499.334918l400.151645.657388" transform="matrix(1.630428 0 0 1-252.2668 0.004315)" fill="none" stroke="#0a323e" stroke-width="1"/><ellipse rx="10.40389" ry="10.127657" transform="translate(410.555536 499.996621)" fill="none" stroke="#0a323e" stroke-width="1"/></g><g transform="translate(194.131996 249.765977)"><path d="M0,499.334918l400.151645.657388" transform="matrix(1.630428 0 0 1-252.2668 0.004315)" fill="none" stroke="#0a323e" stroke-width="1"/><ellipse rx="10.40389" ry="10.127657" transform="translate(412.991383 502.245999)" fill="none" stroke="#0a323e" stroke-width="1"/></g><g transform="translate(221.552379 275.572743)"><path d="M0,499.334918l400.151645.657388" transform="matrix(1.630428 0 0 1-252.2668 0.004315)" fill="none" stroke="#0a323e" stroke-width="1"/><ellipse rx="10.40389" ry="10.127657" transform="translate(410.555536 499.996621)" fill="none" stroke="#0a323e" stroke-width="1"/></g><g transform="translate(246.839354 298.134693)"><path d="M0,499.334918l400.151645.657388" transform="matrix(1.630428 0 0 1-252.2668 0.004315)" fill="none" stroke="#0a323e" stroke-width="1"/><ellipse rx="10.40389" ry="10.127657" transform="translate(410.555536 499.996621)" fill="none" stroke="#0a323e" stroke-width="1"/></g><g transform="translate(328.101666 370.583976)"><path d="M0,499.334918l400.151645.657388" transform="matrix(1.630428 0 0 1-252.2668 0.004315)" fill="none" stroke="#0a323e" stroke-width="1"/><ellipse rx="10.40389" ry="10.127657" transform="translate(410.555536 499.996621)" fill="none" stroke="#0a323e" stroke-width="1"/></g><g transform="translate(353.678056 394.20245)"><path d="M0,499.334918l400.151645.657388" transform="matrix(1.630428 0 0 1-252.2668 0.004315)" fill="none" stroke="#0a323e" stroke-width="1"/><ellipse rx="10.40389" ry="10.127657" transform="translate(410.555536 499.996621)" fill="none" stroke="#0a323e" stroke-width="1"/></g><g transform="translate(299.965003 345.495556)"><path d="M0,499.334918l400.151645.657388" transform="matrix(1.630428 0 0 1-252.2668 0.004315)" fill="none" stroke="#0a323e" stroke-width="1"/><ellipse rx="10.40389" ry="10.127657" transform="translate(410.555536 499.996621)" fill="none" stroke="#0a323e" stroke-width="1"/></g><g transform="translate(273.060307 322.105252)"><path d="M0,499.334918l400.151645.657388" transform="matrix(1.630428 0 0 1-252.2668 0.004315)" fill="none" stroke="#0a323e" stroke-width="1"/><ellipse rx="10.40389" ry="10.127657" transform="translate(410.555536 499.996621)" fill="none" stroke="#0a323e" stroke-width="1"/></g></g><g transform="matrix(.683222-.730211-.730211-.683222 862.751447 3031.776193)"><g transform="translate(170.880506 227.444027)"><path d="M0,499.334918l400.151645.657388" transform="matrix(1.630428 0 0 1-252.2668 0.004315)" fill="none" stroke="#0a323e" stroke-width="1"/><ellipse rx="10.40389" ry="10.127657" transform="translate(410.555536 499.996621)" fill="none" stroke="#0a323e" stroke-width="1"/></g><g transform="translate(194.131996 249.765977)"><path d="M0,499.334918l400.151645.657388" transform="matrix(1.630428 0 0 1-252.2668 0.004315)" fill="none" stroke="#0a323e" stroke-width="1"/><ellipse rx="10.40389" ry="10.127657" transform="translate(412.991383 502.245999)" fill="none" stroke="#0a323e" stroke-width="1"/></g><g transform="translate(221.552379 275.572743)"><path d="M0,499.334918l400.151645.657388" transform="matrix(1.630428 0 0 1-252.2668 0.004315)" fill="none" stroke="#0a323e" stroke-width="1"/><ellipse rx="10.40389" ry="10.127657" transform="translate(410.555536 499.996621)" fill="none" stroke="#0a323e" stroke-width="1"/></g><g transform="translate(246.839354 298.134693)"><path d="M0,499.334918l400.151645.657388" transform="matrix(1.630428 0 0 1-252.2668 0.004315)" fill="none" stroke="#0a323e" stroke-width="1"/><ellipse rx="10.40389" ry="10.127657" transform="translate(410.555536 499.996621)" fill="none" stroke="#0a323e" stroke-width="1"/></g><g transform="translate(328.101666 370.583976)"><path d="M0,499.334918l400.151645.657388" transform="matrix(1.630428 0 0 1-252.2668 0.004315)" fill="none" stroke="#0a323e" stroke-width="1"/><ellipse rx="10.40389" ry="10.127657" transform="translate(410.555536 499.996621)" fill="none" stroke="#0a323e" stroke-width="1"/></g><g transform="translate(353.678056 394.20245)"><path d="M0,499.334918l400.151645.657388" transform="matrix(1.630428 0 0 1-252.2668 0.004315)" fill="none" stroke="#0a323e" stroke-width="1"/><ellipse rx="10.40389" ry="10.127657" transform="translate(410.555536 499.996621)" fill="none" stroke="#0a323e" stroke-width="1"/></g><g transform="translate(299.965003 345.495556)"><path d="M0,499.334918l400.151645.657388" transform="matrix(1.630428 0 0 1-252.2668 0.004315)" fill="none" stroke="#0a323e" stroke-width="1"/><ellipse rx="10.40389" ry="10.127657" transform="translate(410.555536 499.996621)" fill="none" stroke="#0a323e" stroke-width="1"/></g><g transform="translate(273.060307 322.105252)"><path d="M0,499.334918l400.151645.657388" transform="matrix(1.630428 0 0 1-252.2668 0.004315)" fill="none" stroke="#0a323e" stroke-width="1"/><ellipse rx="10.40389" ry="10.127657" transform="translate(410.555536 499.996621)" fill="none" stroke="#0a323e" stroke-width="1"/></g></g><g transform="matrix(-.005131-.999987-.999987 0.005131 4140.149727 1047.78346)"><g transform="matrix(-1 0.000308-.000308-1 489.878886 2756.23054)"><g transform="translate(.000001 0)"><g transform="translate(.000048 152.234828)"><path d="M0,599.711987l100.414932.444803L299.506905,499.992306h100.64474" transform="translate(0 0.661703)" fill="none" stroke="#0a323e" stroke-width="1"/><ellipse rx="10.40389" ry="10.127657" transform="translate(410.555536 499.996621)" fill="none" stroke="#0a323e" stroke-width="1"/></g><g transform="translate(.000048 295.789282)"><path d="M0,599.711987l100.414932.444803L299.506905,499.992306h100.64474" transform="translate(0 0.661703)" fill="none" stroke="#0a323e" stroke-width="1"/><ellipse rx="10.40389" ry="10.127657" transform="translate(410.555536 499.996621)" fill="none" stroke="#0a323e" stroke-width="1"/></g><g transform="translate(.000016 367.566514)"><path d="M0,599.711987l100.414932.444803L299.506905,499.992306h100.64474" transform="translate(0 0.661703)" fill="none" stroke="#0a323e" stroke-width="1"/><ellipse rx="10.40389" ry="10.127657" transform="translate(410.555536 499.996621)" fill="none" stroke="#0a323e" stroke-width="1"/></g><g transform="translate(.000001 400.171465)"><path d="M0,599.711987l100.414932.444803L299.506905,499.992306h100.64474" transform="translate(0 0.661703)" fill="none" stroke="#0a323e" stroke-width="1"/><ellipse rx="10.40389" ry="10.127657" transform="translate(410.555536 499.996621)" fill="none" stroke="#0a323e" stroke-width="1"/></g><g transform="translate(.000032 328.39423)"><path d="M0,599.711987l100.414932.444803L299.506905,499.992306h100.64474" transform="translate(0 0.661703)" fill="none" stroke="#0a323e" stroke-width="1"/><ellipse rx="10.40389" ry="10.127657" transform="translate(410.555536 499.996621)" fill="none" stroke="#0a323e" stroke-width="1"/></g><g transform="translate(.000016 224.012061)"><path d="M0,599.711987l100.414932.444803L299.506905,499.992306h100.64474" transform="translate(0 0.661703)" fill="none" stroke="#0a323e" stroke-width="1"/><ellipse rx="10.40389" ry="10.127657" transform="translate(410.555536 499.996621)" fill="none" stroke="#0a323e" stroke-width="1"/></g><g transform="translate(0 256.61701)"><path d="M0,599.711987l100.414932.444803L299.506905,499.992306h100.64474" transform="translate(0 0.661703)" fill="none" stroke="#0a323e" stroke-width="1"/><ellipse rx="10.40389" ry="10.127657" transform="translate(410.555536 499.996621)" fill="none" stroke="#0a323e" stroke-width="1"/></g><g transform="translate(.000032 184.839777)"><path d="M0,599.711987l100.414932.444803L299.506905,499.992306h100.64474" transform="translate(0 0.661703)" fill="none" stroke="#0a323e" stroke-width="1"/><ellipse rx="10.40389" ry="10.127657" transform="translate(410.555536 499.996621)" fill="none" stroke="#0a323e" stroke-width="1"/></g></g><g transform="translate(.000048 152.234828)"><path d="M0,599.711987l100.414932.444803L299.506905,499.992306h100.64474" transform="translate(0 0.661703)" fill="none" stroke="#0a323e" stroke-width="1"/><ellipse rx="10.40389" ry="10.127657" transform="translate(410.555536 499.996621)" fill="none" stroke="#0a323e" stroke-width="1"/></g><g transform="translate(.000048 295.789282)"><path d="M0,599.711987l100.414932.444803L299.506905,499.992306h100.64474" transform="translate(0 0.661703)" fill="none" stroke="#0a323e" stroke-width="1"/><ellipse rx="10.40389" ry="10.127657" transform="translate(410.555536 499.996621)" fill="none" stroke="#0a323e" stroke-width="1"/></g><g transform="translate(.000016 367.566514)"><path d="M0,599.711987l100.414932.444803L299.506905,499.992306h100.64474" transform="translate(0 0.661703)" fill="none" stroke="#0a323e" stroke-width="1"/><ellipse rx="10.40389" ry="10.127657" transform="translate(410.555536 499.996621)" fill="none" stroke="#0a323e" stroke-width="1"/></g><g transform="translate(.000001 400.171465)"><path d="M0,599.711987l100.414932.444803L299.506905,499.992306h100.64474" transform="translate(0 0.661703)" fill="none" stroke="#0a323e" stroke-width="1"/><ellipse rx="10.40389" ry="10.127657" transform="translate(410.555536 499.996621)" fill="none" stroke="#0a323e" stroke-width="1"/></g></g><g transform="translate(-1643.6887 670.86269)"><g transform="translate(2384.696656 585.611537)"><path d="M0,499.334918l400.151645.657388" transform="matrix(1.630428 0 0 1-252.2668 0.004315)" fill="none" stroke="#0a323e" stroke-width="1"/><ellipse rx="10.40389" ry="10.127657" transform="translate(410.555536 499.996621)" fill="none" stroke="#0a323e" stroke-width="1"/></g><g transform="translate(2384.911129 618.046771)"><path d="M0,499.334918l400.151645.657388" transform="matrix(1.630428 0 0 1-252.2668 0.004315)" fill="none" stroke="#0a323e" stroke-width="1"/><ellipse rx="10.40389" ry="10.127657" transform="translate(410.555536 499.996621)" fill="none" stroke="#0a323e" stroke-width="1"/></g><g transform="translate(2384.051805 657.197449)"><path d="M0,499.334918l400.151645.657388" transform="matrix(1.630428 0 0 1-252.2668 0.004315)" fill="none" stroke="#0a323e" stroke-width="1"/><ellipse rx="10.40389" ry="10.127657" transform="translate(410.555536 499.996621)" fill="none" stroke="#0a323e" stroke-width="1"/></g><g transform="translate(2385.317942 689.84191)"><path d="M0,499.334918l400.151645.657388" transform="matrix(1.630428 0 0 1-252.2668 0.004315)" fill="none" stroke="#0a323e" stroke-width="1"/><ellipse rx="10.40389" ry="10.127657" transform="translate(410.555536 499.996621)" fill="none" stroke="#0a323e" stroke-width="1"/></g><g transform="translate(2384.36409 833.436455)"><path d="M0,499.334918l400.151645.657388" transform="matrix(1.630428 0 0 1-252.2668 0.004315)" fill="none" stroke="#0a323e" stroke-width="1"/><ellipse rx="10.40389" ry="10.127657" transform="translate(410.555536 499.996621)" fill="none" stroke="#0a323e" stroke-width="1"/></g><g transform="translate(2385.28071 800.811985)"><path d="M0,499.334918l400.151645.657388" transform="matrix(1.630428 0 0 1-252.2668 0.004315)" fill="none" stroke="#0a323e" stroke-width="1"/><ellipse rx="10.40389" ry="10.127657" transform="translate(410.555536 499.996621)" fill="none" stroke="#0a323e" stroke-width="1"/></g><g transform="translate(2385.454183 761.631937)"><path d="M0,499.334918l400.151645.657388" transform="matrix(1.630428 0 0 1-252.2668 0.004315)" fill="none" stroke="#0a323e" stroke-width="1"/><ellipse rx="10.40389" ry="10.127657" transform="translate(410.555536 499.996621)" fill="none" stroke="#0a323e" stroke-width="1"/></g><g transform="translate(2385.136104 729.064763)"><path d="M0,499.334918l400.151645.657388" transform="matrix(1.630428 0 0 1-252.2668 0.004315)" fill="none" stroke="#0a323e" stroke-width="1"/><ellipse rx="10.40389" ry="10.127657" transform="translate(410.555536 499.996621)" fill="none" stroke="#0a323e" stroke-width="1"/></g></g></g><g transform="translate(1829.049258-1348.174526)"><g transform="matrix(-1 0 0 1 526.911659 318.948007)"><g transform="translate(134.377661 253.533213)"><path d="M0,499.334918l400.151645.657388" transform="matrix(1.630428 0 0 1-252.2668 0.004315)" fill="none" stroke="#0a323e" stroke-width="1"/><ellipse rx="10.40389" ry="10.127657" transform="translate(410.555536 499.996621)" fill="none" stroke="#0a323e" stroke-width="1"/></g><g transform="translate(132.913104 285.158291)"><path d="M0,499.334918l400.151645.657388" transform="matrix(1.630428 0 0 1-252.2668 0.004315)" fill="none" stroke="#0a323e" stroke-width="1"/><ellipse rx="10.40389" ry="10.127657" transform="translate(410.555536 499.996621)" fill="none" stroke="#0a323e" stroke-width="1"/></g><g transform="translate(132.342613 317.820591)"><path d="M0,499.334918l400.151645.657388" transform="matrix(1.630428 0 0 1-252.2668 0.004315)" fill="none" stroke="#0a323e" stroke-width="1"/><ellipse rx="10.40389" ry="10.127657" transform="translate(410.555536 499.996621)" fill="none" stroke="#0a323e" stroke-width="1"/></g><g transform="translate(132.342644 347.786253)"><path d="M0,499.334918l400.151645.657388" transform="matrix(1.630428 0 0 1-252.2668 0.004315)" fill="none" stroke="#0a323e" stroke-width="1"/><ellipse rx="10.40389" ry="10.127657" transform="translate(410.555536 499.996621)" fill="none" stroke="#0a323e" stroke-width="1"/></g><g transform="translate(130.307565 475.518955)"><path d="M0,499.334918l400.151645.657388" transform="matrix(1.630428 0 0 1-252.2668 0.004315)" fill="none" stroke="#0a323e" stroke-width="1"/><ellipse rx="10.40389" ry="10.127657" transform="translate(410.555536 499.996621)" fill="none" stroke="#0a323e" stroke-width="1"/></g><g transform="translate(130.307534 445.553292)"><path d="M0,499.334918l400.151645.657388" transform="matrix(1.630428 0 0 1-252.2668 0.004315)" fill="none" stroke="#0a323e" stroke-width="1"/><ellipse rx="10.40389" ry="10.127657" transform="translate(410.555536 499.996621)" fill="none" stroke="#0a323e" stroke-width="1"/></g><g transform="translate(130.878025 412.890992)"><path d="M0,499.334918l400.151645.657388" transform="matrix(1.630428 0 0 1-252.2668 0.004315)" fill="none" stroke="#0a323e" stroke-width="1"/><ellipse rx="10.40389" ry="10.127657" transform="translate(410.555536 499.996621)" fill="none" stroke="#0a323e" stroke-width="1"/></g><g transform="translate(132.342582 381.265914)"><path d="M0,499.334918l400.151645.657388" transform="matrix(1.630428 0 0 1-252.2668 0.004315)" fill="none" stroke="#0a323e" stroke-width="1"/><ellipse rx="10.40389" ry="10.127657" transform="translate(410.555536 499.996621)" fill="none" stroke="#0a323e" stroke-width="1"/></g></g><g transform="translate(509.727422 318.810638)"><g transform="translate(134.377661 253.533213)"><path d="M0,499.334918l400.151645.657388" transform="matrix(1.630428 0 0 1-252.2668 0.004315)" fill="none" stroke="#0a323e" stroke-width="1"/><ellipse rx="10.40389" ry="10.127657" transform="translate(410.555536 499.996621)" fill="none" stroke="#0a323e" stroke-width="1"/></g><g transform="translate(132.913104 285.158291)"><path d="M0,499.334918l400.151645.657388" transform="matrix(1.630428 0 0 1-252.2668 0.004315)" fill="none" stroke="#0a323e" stroke-width="1"/><ellipse rx="10.40389" ry="10.127657" transform="translate(410.555536 499.996621)" fill="none" stroke="#0a323e" stroke-width="1"/></g><g transform="translate(132.342613 317.820591)"><path d="M0,499.334918l400.151645.657388" transform="matrix(1.630428 0 0 1-252.2668 0.004315)" fill="none" stroke="#0a323e" stroke-width="1"/><ellipse rx="10.40389" ry="10.127657" transform="translate(410.555536 499.996621)" fill="none" stroke="#0a323e" stroke-width="1"/></g><g transform="translate(132.342644 347.786253)"><path d="M0,499.334918l400.151645.657388" transform="matrix(1.630428 0 0 1-252.2668 0.004315)" fill="none" stroke="#0a323e" stroke-width="1"/><ellipse rx="10.40389" ry="10.127657" transform="translate(410.555536 499.996621)" fill="none" stroke="#0a323e" stroke-width="1"/></g><g transform="translate(130.307565 475.518955)"><path d="M0,499.334918l400.151645.657388" transform="matrix(1.630428 0 0 1-252.2668 0.004315)" fill="none" stroke="#0a323e" stroke-width="1"/><ellipse rx="10.40389" ry="10.127657" transform="translate(410.555536 499.996621)" fill="none" stroke="#0a323e" stroke-width="1"/></g><g transform="translate(130.307534 445.553292)"><path d="M0,499.334918l400.151645.657388" transform="matrix(1.630428 0 0 1-252.2668 0.004315)" fill="none" stroke="#0a323e" stroke-width="1"/><ellipse rx="10.40389" ry="10.127657" transform="translate(410.555536 499.996621)" fill="none" stroke="#0a323e" stroke-width="1"/></g><g transform="translate(130.878025 412.890992)"><path d="M0,499.334918l400.151645.657388" transform="matrix(1.630428 0 0 1-252.2668 0.004315)" fill="none" stroke="#0a323e" stroke-width="1"/><ellipse rx="10.40389" ry="10.127657" transform="translate(410.555536 499.996621)" fill="none" stroke="#0a323e" stroke-width="1"/></g><g transform="translate(132.342582 381.265914)"><path d="M0,499.334918l400.151645.657388" transform="matrix(1.630428 0 0 1-252.2668 0.004315)" fill="none" stroke="#0a323e" stroke-width="1"/><ellipse rx="10.40389" ry="10.127657" transform="translate(410.555536 499.996621)" fill="none" stroke="#0a323e" stroke-width="1"/></g></g></g><g transform="matrix(-.999984 0.005609-.005609-.999984 4421.666653 1655.022664)"><g transform="translate(.000001 0)"><g transform="translate(.000048 152.234828)"><path d="M0,599.711987l100.414932.444803L299.506905,499.992306h100.64474" transform="translate(0 0.661703)" fill="none" stroke="#0a323e" stroke-width="1"/><ellipse rx="10.40389" ry="10.127657" transform="translate(410.555536 499.996621)" fill="none" stroke="#0a323e" stroke-width="1"/></g><g transform="translate(.000048 295.789282)"><path d="M0,599.711987l100.414932.444803L299.506905,499.992306h100.64474" transform="translate(0 0.661703)" fill="none" stroke="#0a323e" stroke-width="1"/><ellipse rx="10.40389" ry="10.127657" transform="translate(410.555536 499.996621)" fill="none" stroke="#0a323e" stroke-width="1"/></g><g transform="translate(.000016 367.566514)"><path d="M0,599.711987l100.414932.444803L299.506905,499.992306h100.64474" transform="translate(0 0.661703)" fill="none" stroke="#0a323e" stroke-width="1"/><ellipse rx="10.40389" ry="10.127657" transform="translate(410.555536 499.996621)" fill="none" stroke="#0a323e" stroke-width="1"/></g><g transform="translate(.000001 400.171465)"><path d="M0,599.711987l100.414932.444803L299.506905,499.992306h100.64474" transform="translate(0 0.661703)" fill="none" stroke="#0a323e" stroke-width="1"/><ellipse rx="10.40389" ry="10.127657" transform="translate(410.555536 499.996621)" fill="none" stroke="#0a323e" stroke-width="1"/></g><g transform="translate(.000032 328.39423)"><path d="M0,599.711987l100.414932.444803L299.506905,499.992306h100.64474" transform="translate(0 0.661703)" fill="none" stroke="#0a323e" stroke-width="1"/><ellipse rx="10.40389" ry="10.127657" transform="translate(410.555536 499.996621)" fill="none" stroke="#0a323e" stroke-width="1"/></g><g transform="translate(.000016 224.012061)"><path d="M0,599.711987l100.414932.444803L299.506905,499.992306h100.64474" transform="translate(0 0.661703)" fill="none" stroke="#0a323e" stroke-width="1"/><ellipse rx="10.40389" ry="10.127657" transform="translate(410.555536 499.996621)" fill="none" stroke="#0a323e" stroke-width="1"/></g><g transform="translate(0 256.61701)"><path d="M0,599.711987l100.414932.444803L299.506905,499.992306h100.64474" transform="translate(0 0.661703)" fill="none" stroke="#0a323e" stroke-width="1"/><ellipse rx="10.40389" ry="10.127657" transform="translate(410.555536 499.996621)" fill="none" stroke="#0a323e" stroke-width="1"/></g><g transform="translate(.000032 184.839777)"><path d="M0,599.711987l100.414932.444803L299.506905,499.992306h100.64474" transform="translate(0 0.661703)" fill="none" stroke="#0a323e" stroke-width="1"/><ellipse rx="10.40389" ry="10.127657" transform="translate(410.555536 499.996621)" fill="none" stroke="#0a323e" stroke-width="1"/></g></g><g transform="matrix(-.999969-.007912 0.007912-.999969-5.981424 1753.088151)"><g transform="translate(.000048 152.234828)"><path d="M0,599.711987l100.414932.444803L299.506905,499.992306h100.64474" transform="translate(0 0.661703)" fill="none" stroke="#0a323e" stroke-width="1"/><ellipse rx="10.40389" ry="10.127657" transform="translate(410.555536 499.996621)" fill="none" stroke="#0a323e" stroke-width="1"/></g><g transform="translate(.000048 295.789282)"><path d="M0,599.711987l100.414932.444803L299.506905,499.992306h100.64474" transform="translate(0 0.661703)" fill="none" stroke="#0a323e" stroke-width="1"/><ellipse rx="10.40389" ry="10.127657" transform="translate(410.555536 499.996621)" fill="none" stroke="#0a323e" stroke-width="1"/></g><g transform="translate(.000016 367.566514)"><path d="M0,599.711987l100.414932.444803L299.506905,499.992306h100.64474" transform="translate(0 0.661703)" fill="none" stroke="#0a323e" stroke-width="1"/><ellipse rx="10.40389" ry="10.127657" transform="translate(410.555536 499.996621)" fill="none" stroke="#0a323e" stroke-width="1"/></g><g transform="translate(.000001 400.171465)"><path d="M0,599.711987l100.414932.444803L299.506905,499.992306h100.64474" transform="translate(0 0.661703)" fill="none" stroke="#0a323e" stroke-width="1"/><ellipse rx="10.40389" ry="10.127657" transform="translate(410.555536 499.996621)" fill="none" stroke="#0a323e" stroke-width="1"/></g><g transform="translate(.000032 328.39423)"><path d="M0,599.711987l100.414932.444803L299.506905,499.992306h100.64474" transform="translate(0 0.661703)" fill="none" stroke="#0a323e" stroke-width="1"/><ellipse rx="10.40389" ry="10.127657" transform="translate(410.555536 499.996621)" fill="none" stroke="#0a323e" stroke-width="1"/></g><g transform="translate(.000016 224.012061)"><path d="M0,599.711987l100.414932.444803L299.506905,499.992306h100.64474" transform="translate(0 0.661703)" fill="none" stroke="#0a323e" stroke-width="1"/><ellipse rx="10.40389" ry="10.127657" transform="translate(410.555536 499.996621)" fill="none" stroke="#0a323e" stroke-width="1"/></g><g transform="translate(0 256.61701)"><path d="M0,599.711987l100.414932.444803L299.506905,499.992306h100.64474" transform="translate(0 0.661703)" fill="none" stroke="#0a323e" stroke-width="1"/><ellipse rx="10.40389" ry="10.127657" transform="translate(410.555536 499.996621)" fill="none" stroke="#0a323e" stroke-width="1"/></g><g transform="translate(.000032 184.839777)"><path d="M0,599.711987l100.414932.444803L299.506905,499.992306h100.64474" transform="translate(0 0.661703)" fill="none" stroke="#0a323e" stroke-width="1"/><ellipse rx="10.40389" ry="10.127657" transform="translate(410.555536 499.996621)" fill="none" stroke="#0a323e" stroke-width="1"/></g></g><g transform="matrix(-.999969-.007912 0.007912-.999969-3.796169 1352.92528)"><path d="M0,599.711987l100.414932.444803L299.506905,499.992306h100.64474" transform="translate(0 0.661703)" fill="none" stroke="#0a323e" stroke-width="1"/><ellipse rx="10.40389" ry="10.127657" transform="translate(410.555536 499.996621)" fill="none" stroke="#0a323e" stroke-width="1"/></g><g transform="matrix(-.999969-.007912 0.007912-.999969-3.796169 1496.479737)"><path d="M0,599.711987l100.414932.444803L299.506905,499.992306h100.64474" transform="translate(0 0.661703)" fill="none" stroke="#0a323e" stroke-width="1"/><ellipse rx="10.40389" ry="10.127657" transform="translate(410.555536 499.996621)" fill="none" stroke="#0a323e" stroke-width="1"/></g><g transform="matrix(-.999969-.007912 0.007912-.999969-3.796201 1568.256967)"><path d="M0,599.711987l100.414932.444803L299.506905,499.992306h100.64474" transform="translate(0 0.661703)" fill="none" stroke="#0a323e" stroke-width="1"/><ellipse rx="10.40389" ry="10.127657" transform="translate(410.555536 499.996621)" fill="none" stroke="#0a323e" stroke-width="1"/></g><g transform="matrix(-.999969-.007912 0.007912-.999969-3.796216 1600.861917)"><path d="M0,599.711987l100.414932.444803L299.506905,499.992306h100.64474" transform="translate(0 0.661703)" fill="none" stroke="#0a323e" stroke-width="1"/><ellipse rx="10.40389" ry="10.127657" transform="translate(410.555536 499.996621)" fill="none" stroke="#0a323e" stroke-width="1"/></g><g transform="translate(.000048 152.234828)"><path d="M0,599.711987l100.414932.444803L299.506905,499.992306h100.64474" transform="translate(0 0.661703)" fill="none" stroke="#0a323e" stroke-width="1"/><ellipse rx="10.40389" ry="10.127657" transform="translate(410.555536 499.996621)" fill="none" stroke="#0a323e" stroke-width="1"/></g><g transform="translate(.000048 295.789282)"><path d="M0,599.711987l100.414932.444803L299.506905,499.992306h100.64474" transform="translate(0 0.661703)" fill="none" stroke="#0a323e" stroke-width="1"/><ellipse rx="10.40389" ry="10.127657" transform="translate(410.555536 499.996621)" fill="none" stroke="#0a323e" stroke-width="1"/></g><g transform="translate(.000016 367.566514)"><path d="M0,599.711987l100.414932.444803L299.506905,499.992306h100.64474" transform="translate(0 0.661703)" fill="none" stroke="#0a323e" stroke-width="1"/><ellipse rx="10.40389" ry="10.127657" transform="translate(410.555536 499.996621)" fill="none" stroke="#0a323e" stroke-width="1"/></g><g transform="translate(.000001 400.171465)"><path d="M0,599.711987l100.414932.444803L299.506905,499.992306h100.64474" transform="translate(0 0.661703)" fill="none" stroke="#0a323e" stroke-width="1"/><ellipse rx="10.40389" ry="10.127657" transform="translate(410.555536 499.996621)" fill="none" stroke="#0a323e" stroke-width="1"/></g></g><g transform="matrix(-.999984 0.005609 0.005609 0.999984 4417.09395 383.420475)"><g transform="translate(.000001 0)"><g transform="translate(.000048 152.234828)"><path d="M0,599.711987l100.414932.444803L299.506905,499.992306h100.64474" transform="translate(0 0.661703)" fill="none" stroke="#0a323e" stroke-width="1"/><ellipse rx="10.40389" ry="10.127657" transform="translate(410.555536 499.996621)" fill="none" stroke="#0a323e" stroke-width="1"/></g><g transform="translate(.000048 295.789282)"><path d="M0,599.711987l100.414932.444803L299.506905,499.992306h100.64474" transform="translate(0 0.661703)" fill="none" stroke="#0a323e" stroke-width="1"/><ellipse rx="10.40389" ry="10.127657" transform="translate(410.555536 499.996621)" fill="none" stroke="#0a323e" stroke-width="1"/></g><g transform="translate(.000016 367.566514)"><path d="M0,599.711987l100.414932.444803L299.506905,499.992306h100.64474" transform="translate(0 0.661703)" fill="none" stroke="#0a323e" stroke-width="1"/><ellipse rx="10.40389" ry="10.127657" transform="translate(410.555536 499.996621)" fill="none" stroke="#0a323e" stroke-width="1"/></g><g transform="translate(.000001 400.171465)"><path d="M0,599.711987l100.414932.444803L299.506905,499.992306h100.64474" transform="translate(0 0.661703)" fill="none" stroke="#0a323e" stroke-width="1"/><ellipse rx="10.40389" ry="10.127657" transform="translate(410.555536 499.996621)" fill="none" stroke="#0a323e" stroke-width="1"/></g><g transform="translate(.000032 328.39423)"><path d="M0,599.711987l100.414932.444803L299.506905,499.992306h100.64474" transform="translate(0 0.661703)" fill="none" stroke="#0a323e" stroke-width="1"/><ellipse rx="10.40389" ry="10.127657" transform="translate(410.555536 499.996621)" fill="none" stroke="#0a323e" stroke-width="1"/></g><g transform="translate(.000016 224.012061)"><path d="M0,599.711987l100.414932.444803L299.506905,499.992306h100.64474" transform="translate(0 0.661703)" fill="none" stroke="#0a323e" stroke-width="1"/><ellipse rx="10.40389" ry="10.127657" transform="translate(410.555536 499.996621)" fill="none" stroke="#0a323e" stroke-width="1"/></g><g transform="translate(0 256.61701)"><path d="M0,599.711987l100.414932.444803L299.506905,499.992306h100.64474" transform="translate(0 0.661703)" fill="none" stroke="#0a323e" stroke-width="1"/><ellipse rx="10.40389" ry="10.127657" transform="translate(410.555536 499.996621)" fill="none" stroke="#0a323e" stroke-width="1"/></g><g transform="translate(.000032 184.839777)"><path d="M0,599.711987l100.414932.444803L299.506905,499.992306h100.64474" transform="translate(0 0.661703)" fill="none" stroke="#0a323e" stroke-width="1"/><ellipse rx="10.40389" ry="10.127657" transform="translate(410.555536 499.996621)" fill="none" stroke="#0a323e" stroke-width="1"/></g></g><g transform="matrix(-.999969-.007912 0.007912-.999969-5.981424 1753.088151)"><g transform="translate(.000048 152.234828)"><path d="M0,599.711987l100.414932.444803L299.506905,499.992306h100.64474" transform="translate(0 0.661703)" fill="none" stroke="#0a323e" stroke-width="1"/><ellipse rx="10.40389" ry="10.127657" transform="translate(410.555536 499.996621)" fill="none" stroke="#0a323e" stroke-width="1"/></g><g transform="translate(.000048 295.789282)"><path d="M0,599.711987l100.414932.444803L299.506905,499.992306h100.64474" transform="translate(0 0.661703)" fill="none" stroke="#0a323e" stroke-width="1"/><ellipse rx="10.40389" ry="10.127657" transform="translate(410.555536 499.996621)" fill="none" stroke="#0a323e" stroke-width="1"/></g><g transform="translate(.000016 367.566514)"><path d="M0,599.711987l100.414932.444803L299.506905,499.992306h100.64474" transform="translate(0 0.661703)" fill="none" stroke="#0a323e" stroke-width="1"/><ellipse rx="10.40389" ry="10.127657" transform="translate(410.555536 499.996621)" fill="none" stroke="#0a323e" stroke-width="1"/></g><g transform="translate(.000001 400.171465)"><path d="M0,599.711987l100.414932.444803L299.506905,499.992306h100.64474" transform="translate(0 0.661703)" fill="none" stroke="#0a323e" stroke-width="1"/><ellipse rx="10.40389" ry="10.127657" transform="translate(410.555536 499.996621)" fill="none" stroke="#0a323e" stroke-width="1"/></g><g transform="translate(.000032 328.39423)"><path d="M0,599.711987l100.414932.444803L299.506905,499.992306h100.64474" transform="translate(0 0.661703)" fill="none" stroke="#0a323e" stroke-width="1"/><ellipse rx="10.40389" ry="10.127657" transform="translate(410.555536 499.996621)" fill="none" stroke="#0a323e" stroke-width="1"/></g><g transform="translate(.000016 224.012061)"><path d="M0,599.711987l100.414932.444803L299.506905,499.992306h100.64474" transform="translate(0 0.661703)" fill="none" stroke="#0a323e" stroke-width="1"/><ellipse rx="10.40389" ry="10.127657" transform="translate(410.555536 499.996621)" fill="none" stroke="#0a323e" stroke-width="1"/></g><g transform="translate(0 256.61701)"><path d="M0,599.711987l100.414932.444803L299.506905,499.992306h100.64474" transform="translate(0 0.661703)" fill="none" stroke="#0a323e" stroke-width="1"/><ellipse rx="10.40389" ry="10.127657" transform="translate(410.555536 499.996621)" fill="none" stroke="#0a323e" stroke-width="1"/></g><g transform="translate(.000032 184.839777)"><path d="M0,599.711987l100.414932.444803L299.506905,499.992306h100.64474" transform="translate(0 0.661703)" fill="none" stroke="#0a323e" stroke-width="1"/><ellipse rx="10.40389" ry="10.127657" transform="translate(410.555536 499.996621)" fill="none" stroke="#0a323e" stroke-width="1"/></g></g><g transform="matrix(-.999969-.007912 0.007912-.999969-3.796169 1352.92528)"><path d="M0,599.711987l100.414932.444803L299.506905,499.992306h100.64474" transform="translate(0 0.661703)" fill="none" stroke="#0a323e" stroke-width="1"/><ellipse rx="10.40389" ry="10.127657" transform="translate(410.555536 499.996621)" fill="none" stroke="#0a323e" stroke-width="1"/></g><g transform="matrix(-.999969-.007912 0.007912-.999969-3.796169 1496.479737)"><path d="M0,599.711987l100.414932.444803L299.506905,499.992306h100.64474" transform="translate(0 0.661703)" fill="none" stroke="#0a323e" stroke-width="1"/><ellipse rx="10.40389" ry="10.127657" transform="translate(410.555536 499.996621)" fill="none" stroke="#0a323e" stroke-width="1"/></g><g transform="matrix(-.999969-.007912 0.007912-.999969-3.796201 1568.256967)"><path d="M0,599.711987l100.414932.444803L299.506905,499.992306h100.64474" transform="translate(0 0.661703)" fill="none" stroke="#0a323e" stroke-width="1"/><ellipse rx="10.40389" ry="10.127657" transform="translate(410.555536 499.996621)" fill="none" stroke="#0a323e" stroke-width="1"/></g><g transform="matrix(-.999969-.007912 0.007912-.999969-3.796216 1600.861917)"><path d="M0,599.711987l100.414932.444803L299.506905,499.992306h100.64474" transform="translate(0 0.661703)" fill="none" stroke="#0a323e" stroke-width="1"/><ellipse rx="10.40389" ry="10.127657" transform="translate(410.555536 499.996621)" fill="none" stroke="#0a323e" stroke-width="1"/></g><g transform="translate(.000048 152.234828)"><path d="M0,599.711987l100.414932.444803L299.506905,499.992306h100.64474" transform="translate(0 0.661703)" fill="none" stroke="#0a323e" stroke-width="1"/><ellipse rx="10.40389" ry="10.127657" transform="translate(410.555536 499.996621)" fill="none" stroke="#0a323e" stroke-width="1"/></g><g transform="translate(.000048 295.789282)"><path d="M0,599.711987l100.414932.444803L299.506905,499.992306h100.64474" transform="translate(0 0.661703)" fill="none" stroke="#0a323e" stroke-width="1"/><ellipse rx="10.40389" ry="10.127657" transform="translate(410.555536 499.996621)" fill="none" stroke="#0a323e" stroke-width="1"/></g><g transform="translate(.000016 367.566514)"><path d="M0,599.711987l100.414932.444803L299.506905,499.992306h100.64474" transform="translate(0 0.661703)" fill="none" stroke="#0a323e" stroke-width="1"/><ellipse rx="10.40389" ry="10.127657" transform="translate(410.555536 499.996621)" fill="none" stroke="#0a323e" stroke-width="1"/></g><g transform="translate(.000001 400.171465)"><path d="M0,599.711987l100.414932.444803L299.506905,499.992306h100.64474" transform="translate(0 0.661703)" fill="none" stroke="#0a323e" stroke-width="1"/><ellipse rx="10.40389" ry="10.127657" transform="translate(410.555536 499.996621)" fill="none" stroke="#0a323e" stroke-width="1"/></g></g><g transform="translate(705.740536-1.760881)"><g transform="matrix(-1 0.000308-.000308-1 489.878886 2756.23054)"><g transform="translate(.000001 0)"><g transform="translate(.000048 152.234828)"><path d="M0,599.711987l100.414932.444803L299.506905,499.992306h100.64474" transform="translate(0 0.661703)" fill="none" stroke="#0a323e" stroke-width="1"/><ellipse rx="10.40389" ry="10.127657" transform="translate(410.555536 499.996621)" fill="none" stroke="#0a323e" stroke-width="1"/></g><g transform="translate(.000048 295.789282)"><path d="M0,599.711987l100.414932.444803L299.506905,499.992306h100.64474" transform="translate(0 0.661703)" fill="none" stroke="#0a323e" stroke-width="1"/><ellipse rx="10.40389" ry="10.127657" transform="translate(410.555536 499.996621)" fill="none" stroke="#0a323e" stroke-width="1"/></g><g transform="translate(.000016 367.566514)"><path d="M0,599.711987l100.414932.444803L299.506905,499.992306h100.64474" transform="translate(0 0.661703)" fill="none" stroke="#0a323e" stroke-width="1"/><ellipse rx="10.40389" ry="10.127657" transform="translate(410.555536 499.996621)" fill="none" stroke="#0a323e" stroke-width="1"/></g><g transform="translate(.000001 400.171465)"><path d="M0,599.711987l100.414932.444803L299.506905,499.992306h100.64474" transform="translate(0 0.661703)" fill="none" stroke="#0a323e" stroke-width="1"/><ellipse rx="10.40389" ry="10.127657" transform="translate(410.555536 499.996621)" fill="none" stroke="#0a323e" stroke-width="1"/></g><g transform="translate(.000032 328.39423)"><path d="M0,599.711987l100.414932.444803L299.506905,499.992306h100.64474" transform="translate(0 0.661703)" fill="none" stroke="#0a323e" stroke-width="1"/><ellipse rx="10.40389" ry="10.127657" transform="translate(410.555536 499.996621)" fill="none" stroke="#0a323e" stroke-width="1"/></g><g transform="translate(.000016 224.012061)"><path d="M0,599.711987l100.414932.444803L299.506905,499.992306h100.64474" transform="translate(0 0.661703)" fill="none" stroke="#0a323e" stroke-width="1"/><ellipse rx="10.40389" ry="10.127657" transform="translate(410.555536 499.996621)" fill="none" stroke="#0a323e" stroke-width="1"/></g><g transform="translate(0 256.61701)"><path d="M0,599.711987l100.414932.444803L299.506905,499.992306h100.64474" transform="translate(0 0.661703)" fill="none" stroke="#0a323e" stroke-width="1"/><ellipse rx="10.40389" ry="10.127657" transform="translate(410.555536 499.996621)" fill="none" stroke="#0a323e" stroke-width="1"/></g><g transform="translate(.000032 184.839777)"><path d="M0,599.711987l100.414932.444803L299.506905,499.992306h100.64474" transform="translate(0 0.661703)" fill="none" stroke="#0a323e" stroke-width="1"/><ellipse rx="10.40389" ry="10.127657" transform="translate(410.555536 499.996621)" fill="none" stroke="#0a323e" stroke-width="1"/></g></g><g transform="translate(.000048 152.234828)"><path d="M0,599.711987l100.414932.444803L299.506905,499.992306h100.64474" transform="translate(0 0.661703)" fill="none" stroke="#0a323e" stroke-width="1"/><ellipse rx="10.40389" ry="10.127657" transform="translate(410.555536 499.996621)" fill="none" stroke="#0a323e" stroke-width="1"/></g><g transform="translate(.000048 295.789282)"><path d="M0,599.711987l100.414932.444803L299.506905,499.992306h100.64474" transform="translate(0 0.661703)" fill="none" stroke="#0a323e" stroke-width="1"/><ellipse rx="10.40389" ry="10.127657" transform="translate(410.555536 499.996621)" fill="none" stroke="#0a323e" stroke-width="1"/></g><g transform="translate(.000016 367.566514)"><path d="M0,599.711987l100.414932.444803L299.506905,499.992306h100.64474" transform="translate(0 0.661703)" fill="none" stroke="#0a323e" stroke-width="1"/><ellipse rx="10.40389" ry="10.127657" transform="translate(410.555536 499.996621)" fill="none" stroke="#0a323e" stroke-width="1"/></g><g transform="translate(.000001 400.171465)"><path d="M0,599.711987l100.414932.444803L299.506905,499.992306h100.64474" transform="translate(0 0.661703)" fill="none" stroke="#0a323e" stroke-width="1"/><ellipse rx="10.40389" ry="10.127657" transform="translate(410.555536 499.996621)" fill="none" stroke="#0a323e" stroke-width="1"/></g></g><g transform="translate(-1643.6887 670.86269)"><g transform="translate(2384.696656 585.611537)"><path d="M0,499.334918l400.151645.657388" transform="matrix(1.630428 0 0 1-252.2668 0.004315)" fill="none" stroke="#0a323e" stroke-width="1"/><ellipse rx="10.40389" ry="10.127657" transform="translate(410.555536 499.996621)" fill="none" stroke="#0a323e" stroke-width="1"/></g><g transform="translate(2384.911129 618.046771)"><path d="M0,499.334918l400.151645.657388" transform="matrix(1.630428 0 0 1-252.2668 0.004315)" fill="none" stroke="#0a323e" stroke-width="1"/><ellipse rx="10.40389" ry="10.127657" transform="translate(410.555536 499.996621)" fill="none" stroke="#0a323e" stroke-width="1"/></g><g transform="translate(2384.051805 657.197449)"><path d="M0,499.334918l400.151645.657388" transform="matrix(1.630428 0 0 1-252.2668 0.004315)" fill="none" stroke="#0a323e" stroke-width="1"/><ellipse rx="10.40389" ry="10.127657" transform="translate(410.555536 499.996621)" fill="none" stroke="#0a323e" stroke-width="1"/></g><g transform="translate(2385.317942 689.84191)"><path d="M0,499.334918l400.151645.657388" transform="matrix(1.630428 0 0 1-252.2668 0.004315)" fill="none" stroke="#0a323e" stroke-width="1"/><ellipse rx="10.40389" ry="10.127657" transform="translate(410.555536 499.996621)" fill="none" stroke="#0a323e" stroke-width="1"/></g><g transform="translate(2384.36409 833.436455)"><path d="M0,499.334918l400.151645.657388" transform="matrix(1.630428 0 0 1-252.2668 0.004315)" fill="none" stroke="#0a323e" stroke-width="1"/><ellipse rx="10.40389" ry="10.127657" transform="translate(410.555536 499.996621)" fill="none" stroke="#0a323e" stroke-width="1"/></g><g transform="translate(2385.28071 800.811985)"><path d="M0,499.334918l400.151645.657388" transform="matrix(1.630428 0 0 1-252.2668 0.004315)" fill="none" stroke="#0a323e" stroke-width="1"/><ellipse rx="10.40389" ry="10.127657" transform="translate(410.555536 499.996621)" fill="none" stroke="#0a323e" stroke-width="1"/></g><g transform="translate(2385.454183 761.631937)"><path d="M0,499.334918l400.151645.657388" transform="matrix(1.630428 0 0 1-252.2668 0.004315)" fill="none" stroke="#0a323e" stroke-width="1"/><ellipse rx="10.40389" ry="10.127657" transform="translate(410.555536 499.996621)" fill="none" stroke="#0a323e" stroke-width="1"/></g><g transform="translate(2385.136104 729.064763)"><path d="M0,499.334918l400.151645.657388" transform="matrix(1.630428 0 0 1-252.2668 0.004315)" fill="none" stroke="#0a323e" stroke-width="1"/><ellipse rx="10.40389" ry="10.127657" transform="translate(410.555536 499.996621)" fill="none" stroke="#0a323e" stroke-width="1"/></g></g></g><g transform="matrix(-.999987 0.005176 0.005176 0.999987 619.365447-754.712015)"><g transform="matrix(-1 0.000308-.000308-1 489.878886 2756.23054)"><g transform="translate(.000001 0)"><g transform="translate(.000048 152.234828)"><path d="M0,599.711987l100.414932.444803L299.506905,499.992306h100.64474" transform="translate(0 0.661703)" fill="none" stroke="#0a323e" stroke-width="1"/><ellipse rx="10.40389" ry="10.127657" transform="translate(410.555536 499.996621)" fill="none" stroke="#0a323e" stroke-width="1"/></g><g transform="translate(.000048 295.789282)"><path d="M0,599.711987l100.414932.444803L299.506905,499.992306h100.64474" transform="translate(0 0.661703)" fill="none" stroke="#0a323e" stroke-width="1"/><ellipse rx="10.40389" ry="10.127657" transform="translate(410.555536 499.996621)" fill="none" stroke="#0a323e" stroke-width="1"/></g><g transform="translate(.000016 367.566514)"><path d="M0,599.711987l100.414932.444803L299.506905,499.992306h100.64474" transform="translate(0 0.661703)" fill="none" stroke="#0a323e" stroke-width="1"/><ellipse rx="10.40389" ry="10.127657" transform="translate(410.555536 499.996621)" fill="none" stroke="#0a323e" stroke-width="1"/></g><g transform="translate(.000001 400.171465)"><path d="M0,599.711987l100.414932.444803L299.506905,499.992306h100.64474" transform="translate(0 0.661703)" fill="none" stroke="#0a323e" stroke-width="1"/><ellipse rx="10.40389" ry="10.127657" transform="translate(410.555536 499.996621)" fill="none" stroke="#0a323e" stroke-width="1"/></g><g transform="translate(.000032 328.39423)"><path d="M0,599.711987l100.414932.444803L299.506905,499.992306h100.64474" transform="translate(0 0.661703)" fill="none" stroke="#0a323e" stroke-width="1"/><ellipse rx="10.40389" ry="10.127657" transform="translate(410.555536 499.996621)" fill="none" stroke="#0a323e" stroke-width="1"/></g><g transform="translate(.000016 224.012061)"><path d="M0,599.711987l100.414932.444803L299.506905,499.992306h100.64474" transform="translate(0 0.661703)" fill="none" stroke="#0a323e" stroke-width="1"/><ellipse rx="10.40389" ry="10.127657" transform="translate(410.555536 499.996621)" fill="none" stroke="#0a323e" stroke-width="1"/></g><g transform="translate(0 256.61701)"><path d="M0,599.711987l100.414932.444803L299.506905,499.992306h100.64474" transform="translate(0 0.661703)" fill="none" stroke="#0a323e" stroke-width="1"/><ellipse rx="10.40389" ry="10.127657" transform="translate(410.555536 499.996621)" fill="none" stroke="#0a323e" stroke-width="1"/></g><g transform="translate(.000032 184.839777)"><path d="M0,599.711987l100.414932.444803L299.506905,499.992306h100.64474" transform="translate(0 0.661703)" fill="none" stroke="#0a323e" stroke-width="1"/><ellipse rx="10.40389" ry="10.127657" transform="translate(410.555536 499.996621)" fill="none" stroke="#0a323e" stroke-width="1"/></g></g><g transform="translate(.000048 152.234828)"><path d="M0,599.711987l100.414932.444803L299.506905,499.992306h100.64474" transform="translate(0 0.661703)" fill="none" stroke="#0a323e" stroke-width="1"/><ellipse rx="10.40389" ry="10.127657" transform="translate(410.555536 499.996621)" fill="none" stroke="#0a323e" stroke-width="1"/></g><g transform="translate(.000048 295.789282)"><path d="M0,599.711987l100.414932.444803L299.506905,499.992306h100.64474" transform="translate(0 0.661703)" fill="none" stroke="#0a323e" stroke-width="1"/><ellipse rx="10.40389" ry="10.127657" transform="translate(410.555536 499.996621)" fill="none" stroke="#0a323e" stroke-width="1"/></g><g transform="translate(.000016 367.566514)"><path d="M0,599.711987l100.414932.444803L299.506905,499.992306h100.64474" transform="translate(0 0.661703)" fill="none" stroke="#0a323e" stroke-width="1"/><ellipse rx="10.40389" ry="10.127657" transform="translate(410.555536 499.996621)" fill="none" stroke="#0a323e" stroke-width="1"/></g><g transform="translate(.000001 400.171465)"><path d="M0,599.711987l100.414932.444803L299.506905,499.992306h100.64474" transform="translate(0 0.661703)" fill="none" stroke="#0a323e" stroke-width="1"/><ellipse rx="10.40389" ry="10.127657" transform="translate(410.555536 499.996621)" fill="none" stroke="#0a323e" stroke-width="1"/></g></g><g transform="translate(-1643.6887 670.86269)"><g transform="translate(2384.696656 585.611537)"><path d="M0,499.334918l400.151645.657388" transform="matrix(1.630428 0 0 1-252.2668 0.004315)" fill="none" stroke="#0a323e" stroke-width="1"/><ellipse rx="10.40389" ry="10.127657" transform="translate(410.555536 499.996621)" fill="none" stroke="#0a323e" stroke-width="1"/></g><g transform="translate(2384.911129 618.046771)"><path d="M0,499.334918l400.151645.657388" transform="matrix(1.630428 0 0 1-252.2668 0.004315)" fill="none" stroke="#0a323e" stroke-width="1"/><ellipse rx="10.40389" ry="10.127657" transform="translate(410.555536 499.996621)" fill="none" stroke="#0a323e" stroke-width="1"/></g><g transform="translate(2384.051805 657.197449)"><path d="M0,499.334918l400.151645.657388" transform="matrix(1.630428 0 0 1-252.2668 0.004315)" fill="none" stroke="#0a323e" stroke-width="1"/><ellipse rx="10.40389" ry="10.127657" transform="translate(410.555536 499.996621)" fill="none" stroke="#0a323e" stroke-width="1"/></g><g transform="translate(2385.317942 689.84191)"><path d="M0,499.334918l400.151645.657388" transform="matrix(1.630428 0 0 1-252.2668 0.004315)" fill="none" stroke="#0a323e" stroke-width="1"/><ellipse rx="10.40389" ry="10.127657" transform="translate(410.555536 499.996621)" fill="none" stroke="#0a323e" stroke-width="1"/></g><g transform="translate(2384.36409 833.436455)"><path d="M0,499.334918l400.151645.657388" transform="matrix(1.630428 0 0 1-252.2668 0.004315)" fill="none" stroke="#0a323e" stroke-width="1"/><ellipse rx="10.40389" ry="10.127657" transform="translate(410.555536 499.996621)" fill="none" stroke="#0a323e" stroke-width="1"/></g><g transform="translate(2385.28071 800.811985)"><path d="M0,499.334918l400.151645.657388" transform="matrix(1.630428 0 0 1-252.2668 0.004315)" fill="none" stroke="#0a323e" stroke-width="1"/><ellipse rx="10.40389" ry="10.127657" transform="translate(410.555536 499.996621)" fill="none" stroke="#0a323e" stroke-width="1"/></g><g transform="translate(2385.454183 761.631937)"><path d="M0,499.334918l400.151645.657388" transform="matrix(1.630428 0 0 1-252.2668 0.004315)" fill="none" stroke="#0a323e" stroke-width="1"/><ellipse rx="10.40389" ry="10.127657" transform="translate(410.555536 499.996621)" fill="none" stroke="#0a323e" stroke-width="1"/></g><g transform="translate(2385.136104 729.064763)"><path d="M0,499.334918l400.151645.657388" transform="matrix(1.630428 0 0 1-252.2668 0.004315)" fill="none" stroke="#0a323e" stroke-width="1"/><ellipse rx="10.40389" ry="10.127657" transform="translate(410.555536 499.996621)" fill="none" stroke="#0a323e" stroke-width="1"/></g></g></g><g transform="matrix(-.006684-.999978-.999978 0.006684 3353.90705 388.360209)"><g transform="matrix(-1 0.000308-.000308-1 489.878886 2756.23054)"><g transform="translate(.000001 0)"><g transform="translate(.000048 152.234828)"><path d="M0,599.711987l100.414932.444803L299.506905,499.992306h100.64474" transform="translate(0 0.661703)" fill="none" stroke="#0a323e" stroke-width="1"/><ellipse rx="10.40389" ry="10.127657" transform="translate(410.555536 499.996621)" fill="none" stroke="#0a323e" stroke-width="1"/></g><g transform="translate(.000048 295.789282)"><path d="M0,599.711987l100.414932.444803L299.506905,499.992306h100.64474" transform="translate(0 0.661703)" fill="none" stroke="#0a323e" stroke-width="1"/><ellipse rx="10.40389" ry="10.127657" transform="translate(410.555536 499.996621)" fill="none" stroke="#0a323e" stroke-width="1"/></g><g transform="translate(.000016 367.566514)"><path d="M0,599.711987l100.414932.444803L299.506905,499.992306h100.64474" transform="translate(0 0.661703)" fill="none" stroke="#0a323e" stroke-width="1"/><ellipse rx="10.40389" ry="10.127657" transform="translate(410.555536 499.996621)" fill="none" stroke="#0a323e" stroke-width="1"/></g><g transform="translate(.000001 400.171465)"><path d="M0,599.711987l100.414932.444803L299.506905,499.992306h100.64474" transform="translate(0 0.661703)" fill="none" stroke="#0a323e" stroke-width="1"/><ellipse rx="10.40389" ry="10.127657" transform="translate(410.555536 499.996621)" fill="none" stroke="#0a323e" stroke-width="1"/></g><g transform="translate(.000032 328.39423)"><path d="M0,599.711987l100.414932.444803L299.506905,499.992306h100.64474" transform="translate(0 0.661703)" fill="none" stroke="#0a323e" stroke-width="1"/><ellipse rx="10.40389" ry="10.127657" transform="translate(410.555536 499.996621)" fill="none" stroke="#0a323e" stroke-width="1"/></g><g transform="translate(.000016 224.012061)"><path d="M0,599.711987l100.414932.444803L299.506905,499.992306h100.64474" transform="translate(0 0.661703)" fill="none" stroke="#0a323e" stroke-width="1"/><ellipse rx="10.40389" ry="10.127657" transform="translate(410.555536 499.996621)" fill="none" stroke="#0a323e" stroke-width="1"/></g><g transform="translate(0 256.61701)"><path d="M0,599.711987l100.414932.444803L299.506905,499.992306h100.64474" transform="translate(0 0.661703)" fill="none" stroke="#0a323e" stroke-width="1"/><ellipse rx="10.40389" ry="10.127657" transform="translate(410.555536 499.996621)" fill="none" stroke="#0a323e" stroke-width="1"/></g><g transform="translate(.000032 184.839777)"><path d="M0,599.711987l100.414932.444803L299.506905,499.992306h100.64474" transform="translate(0 0.661703)" fill="none" stroke="#0a323e" stroke-width="1"/><ellipse rx="10.40389" ry="10.127657" transform="translate(410.555536 499.996621)" fill="none" stroke="#0a323e" stroke-width="1"/></g></g><g transform="translate(.000048 152.234828)"><path d="M0,599.711987l100.414932.444803L299.506905,499.992306h100.64474" transform="translate(0 0.661703)" fill="none" stroke="#0a323e" stroke-width="1"/><ellipse rx="10.40389" ry="10.127657" transform="translate(410.555536 499.996621)" fill="none" stroke="#0a323e" stroke-width="1"/></g><g transform="translate(.000048 295.789282)"><path d="M0,599.711987l100.414932.444803L299.506905,499.992306h100.64474" transform="translate(0 0.661703)" fill="none" stroke="#0a323e" stroke-width="1"/><ellipse rx="10.40389" ry="10.127657" transform="translate(410.555536 499.996621)" fill="none" stroke="#0a323e" stroke-width="1"/></g><g transform="translate(.000016 367.566514)"><path d="M0,599.711987l100.414932.444803L299.506905,499.992306h100.64474" transform="translate(0 0.661703)" fill="none" stroke="#0a323e" stroke-width="1"/><ellipse rx="10.40389" ry="10.127657" transform="translate(410.555536 499.996621)" fill="none" stroke="#0a323e" stroke-width="1"/></g><g transform="translate(.000001 400.171465)"><path d="M0,599.711987l100.414932.444803L299.506905,499.992306h100.64474" transform="translate(0 0.661703)" fill="none" stroke="#0a323e" stroke-width="1"/><ellipse rx="10.40389" ry="10.127657" transform="translate(410.555536 499.996621)" fill="none" stroke="#0a323e" stroke-width="1"/></g></g><g transform="translate(-1643.6887 670.86269)"><g transform="translate(2384.696656 585.611537)"><path d="M0,499.334918l400.151645.657388" transform="matrix(1.630428 0 0 1-252.2668 0.004315)" fill="none" stroke="#0a323e" stroke-width="1"/><ellipse rx="10.40389" ry="10.127657" transform="translate(410.555536 499.996621)" fill="none" stroke="#0a323e" stroke-width="1"/></g><g transform="translate(2384.911129 618.046771)"><path d="M0,499.334918l400.151645.657388" transform="matrix(1.630428 0 0 1-252.2668 0.004315)" fill="none" stroke="#0a323e" stroke-width="1"/><ellipse rx="10.40389" ry="10.127657" transform="translate(410.555536 499.996621)" fill="none" stroke="#0a323e" stroke-width="1"/></g><g transform="translate(2384.051805 657.197449)"><path d="M0,499.334918l400.151645.657388" transform="matrix(1.630428 0 0 1-252.2668 0.004315)" fill="none" stroke="#0a323e" stroke-width="1"/><ellipse rx="10.40389" ry="10.127657" transform="translate(410.555536 499.996621)" fill="none" stroke="#0a323e" stroke-width="1"/></g><g transform="translate(2385.317942 689.84191)"><path d="M0,499.334918l400.151645.657388" transform="matrix(1.630428 0 0 1-252.2668 0.004315)" fill="none" stroke="#0a323e" stroke-width="1"/><ellipse rx="10.40389" ry="10.127657" transform="translate(410.555536 499.996621)" fill="none" stroke="#0a323e" stroke-width="1"/></g><g transform="translate(2384.36409 833.436455)"><path d="M0,499.334918l400.151645.657388" transform="matrix(1.630428 0 0 1-252.2668 0.004315)" fill="none" stroke="#0a323e" stroke-width="1"/><ellipse rx="10.40389" ry="10.127657" transform="translate(410.555536 499.996621)" fill="none" stroke="#0a323e" stroke-width="1"/></g><g transform="translate(2385.28071 800.811985)"><path d="M0,499.334918l400.151645.657388" transform="matrix(1.630428 0 0 1-252.2668 0.004315)" fill="none" stroke="#0a323e" stroke-width="1"/><ellipse rx="10.40389" ry="10.127657" transform="translate(410.555536 499.996621)" fill="none" stroke="#0a323e" stroke-width="1"/></g><g transform="translate(2385.454183 761.631937)"><path d="M0,499.334918l400.151645.657388" transform="matrix(1.630428 0 0 1-252.2668 0.004315)" fill="none" stroke="#0a323e" stroke-width="1"/><ellipse rx="10.40389" ry="10.127657" transform="translate(410.555536 499.996621)" fill="none" stroke="#0a323e" stroke-width="1"/></g><g transform="translate(2385.136104 729.064763)"><path d="M0,499.334918l400.151645.657388" transform="matrix(1.630428 0 0 1-252.2668 0.004315)" fill="none" stroke="#0a323e" stroke-width="1"/><ellipse rx="10.40389" ry="10.127657" transform="translate(410.555536 499.996621)" fill="none" stroke="#0a323e" stroke-width="1"/></g></g></g><g transform="matrix(-1 0 0 1 4131.37615-2.371779)"><g transform="matrix(-1 0.000308-.000308-1 489.878886 2756.23054)"><g transform="translate(.000001 0)"><g transform="translate(.000048 152.234828)"><path d="M0,599.711987l100.414932.444803L299.506905,499.992306h100.64474" transform="translate(0 0.661703)" fill="none" stroke="#0a323e" stroke-width="1"/><ellipse rx="10.40389" ry="10.127657" transform="translate(410.555536 499.996621)" fill="none" stroke="#0a323e" stroke-width="1"/></g><g transform="translate(.000048 295.789282)"><path d="M0,599.711987l100.414932.444803L299.506905,499.992306h100.64474" transform="translate(0 0.661703)" fill="none" stroke="#0a323e" stroke-width="1"/><ellipse rx="10.40389" ry="10.127657" transform="translate(410.555536 499.996621)" fill="none" stroke="#0a323e" stroke-width="1"/></g><g transform="translate(.000016 367.566514)"><path d="M0,599.711987l100.414932.444803L299.506905,499.992306h100.64474" transform="translate(0 0.661703)" fill="none" stroke="#0a323e" stroke-width="1"/><ellipse rx="10.40389" ry="10.127657" transform="translate(410.555536 499.996621)" fill="none" stroke="#0a323e" stroke-width="1"/></g><g transform="translate(.000001 400.171465)"><path d="M0,599.711987l100.414932.444803L299.506905,499.992306h100.64474" transform="translate(0 0.661703)" fill="none" stroke="#0a323e" stroke-width="1"/><ellipse rx="10.40389" ry="10.127657" transform="translate(410.555536 499.996621)" fill="none" stroke="#0a323e" stroke-width="1"/></g><g transform="translate(.000032 328.39423)"><path d="M0,599.711987l100.414932.444803L299.506905,499.992306h100.64474" transform="translate(0 0.661703)" fill="none" stroke="#0a323e" stroke-width="1"/><ellipse rx="10.40389" ry="10.127657" transform="translate(410.555536 499.996621)" fill="none" stroke="#0a323e" stroke-width="1"/></g><g transform="translate(.000016 224.012061)"><path d="M0,599.711987l100.414932.444803L299.506905,499.992306h100.64474" transform="translate(0 0.661703)" fill="none" stroke="#0a323e" stroke-width="1"/><ellipse rx="10.40389" ry="10.127657" transform="translate(410.555536 499.996621)" fill="none" stroke="#0a323e" stroke-width="1"/></g><g transform="translate(0 256.61701)"><path d="M0,599.711987l100.414932.444803L299.506905,499.992306h100.64474" transform="translate(0 0.661703)" fill="none" stroke="#0a323e" stroke-width="1"/><ellipse rx="10.40389" ry="10.127657" transform="translate(410.555536 499.996621)" fill="none" stroke="#0a323e" stroke-width="1"/></g><g transform="translate(.000032 184.839777)"><path d="M0,599.711987l100.414932.444803L299.506905,499.992306h100.64474" transform="translate(0 0.661703)" fill="none" stroke="#0a323e" stroke-width="1"/><ellipse rx="10.40389" ry="10.127657" transform="translate(410.555536 499.996621)" fill="none" stroke="#0a323e" stroke-width="1"/></g></g><g transform="translate(.000048 152.234828)"><path d="M0,599.711987l100.414932.444803L299.506905,499.992306h100.64474" transform="translate(0 0.661703)" fill="none" stroke="#0a323e" stroke-width="1"/><ellipse rx="10.40389" ry="10.127657" transform="translate(410.555536 499.996621)" fill="none" stroke="#0a323e" stroke-width="1"/></g><g transform="translate(.000048 295.789282)"><path d="M0,599.711987l100.414932.444803L299.506905,499.992306h100.64474" transform="translate(0 0.661703)" fill="none" stroke="#0a323e" stroke-width="1"/><ellipse rx="10.40389" ry="10.127657" transform="translate(410.555536 499.996621)" fill="none" stroke="#0a323e" stroke-width="1"/></g><g transform="translate(.000016 367.566514)"><path d="M0,599.711987l100.414932.444803L299.506905,499.992306h100.64474" transform="translate(0 0.661703)" fill="none" stroke="#0a323e" stroke-width="1"/><ellipse rx="10.40389" ry="10.127657" transform="translate(410.555536 499.996621)" fill="none" stroke="#0a323e" stroke-width="1"/></g><g transform="translate(.000001 400.171465)"><path d="M0,599.711987l100.414932.444803L299.506905,499.992306h100.64474" transform="translate(0 0.661703)" fill="none" stroke="#0a323e" stroke-width="1"/><ellipse rx="10.40389" ry="10.127657" transform="translate(410.555536 499.996621)" fill="none" stroke="#0a323e" stroke-width="1"/></g></g><g transform="translate(-1643.6887 670.86269)"><g transform="translate(2384.696656 585.611537)"><path d="M0,499.334918l400.151645.657388" transform="matrix(1.630428 0 0 1-252.2668 0.004315)" fill="none" stroke="#0a323e" stroke-width="1"/><ellipse rx="10.40389" ry="10.127657" transform="translate(410.555536 499.996621)" fill="none" stroke="#0a323e" stroke-width="1"/></g><g transform="translate(2384.911129 618.046771)"><path d="M0,499.334918l400.151645.657388" transform="matrix(1.630428 0 0 1-252.2668 0.004315)" fill="none" stroke="#0a323e" stroke-width="1"/><ellipse rx="10.40389" ry="10.127657" transform="translate(410.555536 499.996621)" fill="none" stroke="#0a323e" stroke-width="1"/></g><g transform="translate(2384.051805 657.197449)"><path d="M0,499.334918l400.151645.657388" transform="matrix(1.630428 0 0 1-252.2668 0.004315)" fill="none" stroke="#0a323e" stroke-width="1"/><ellipse rx="10.40389" ry="10.127657" transform="translate(410.555536 499.996621)" fill="none" stroke="#0a323e" stroke-width="1"/></g><g transform="translate(2385.317942 689.84191)"><path d="M0,499.334918l400.151645.657388" transform="matrix(1.630428 0 0 1-252.2668 0.004315)" fill="none" stroke="#0a323e" stroke-width="1"/><ellipse rx="10.40389" ry="10.127657" transform="translate(410.555536 499.996621)" fill="none" stroke="#0a323e" stroke-width="1"/></g><g transform="translate(2384.36409 833.436455)"><path d="M0,499.334918l400.151645.657388" transform="matrix(1.630428 0 0 1-252.2668 0.004315)" fill="none" stroke="#0a323e" stroke-width="1"/><ellipse rx="10.40389" ry="10.127657" transform="translate(410.555536 499.996621)" fill="none" stroke="#0a323e" stroke-width="1"/></g><g transform="translate(2385.28071 800.811985)"><path d="M0,499.334918l400.151645.657388" transform="matrix(1.630428 0 0 1-252.2668 0.004315)" fill="none" stroke="#0a323e" stroke-width="1"/><ellipse rx="10.40389" ry="10.127657" transform="translate(410.555536 499.996621)" fill="none" stroke="#0a323e" stroke-width="1"/></g><g transform="translate(2385.454183 761.631937)"><path d="M0,499.334918l400.151645.657388" transform="matrix(1.630428 0 0 1-252.2668 0.004315)" fill="none" stroke="#0a323e" stroke-width="1"/><ellipse rx="10.40389" ry="10.127657" transform="translate(410.555536 499.996621)" fill="none" stroke="#0a323e" stroke-width="1"/></g><g transform="translate(2385.136104 729.064763)"><path d="M0,499.334918l400.151645.657388" transform="matrix(1.630428 0 0 1-252.2668 0.004315)" fill="none" stroke="#0a323e" stroke-width="1"/><ellipse rx="10.40389" ry="10.127657" transform="translate(410.555536 499.996621)" fill="none" stroke="#0a323e" stroke-width="1"/></g></g></g><g transform="matrix(-.012569-.999921 0.999921-.012569 4229.970873 422.384335)"><g transform="matrix(1 0 0-1-1444.227301 762.259853)"><path d="M1920.023086,480.239035h-220.980318l-99.376257-29.965662" transform="translate(.000001 0.000001)" fill="none" stroke="#0a323e" stroke-width="1"/><ellipse rx="10.40389" ry="10.127657" transform="translate(1589.262622 445.083064)" fill="none" stroke="#0a323e" stroke-width="1"/></g><g transform="matrix(1 0 0-1-1469.701007 781.946736)"><path d="M1940.830913,480.239035h-241.788145l-99.376257-29.965662" transform="translate(4.566205 50.220984)" fill="none" stroke="#0a323e" stroke-width="1"/><ellipse rx="10.40389" ry="10.127657" transform="translate(1593.828826 495.304048)" fill="none" stroke="#0a323e" stroke-width="1"/></g><g transform="translate(475.69607-348.80962)"><path d="M0,599.711987l100.414932.444803L299.506905,499.992306h100.64474" transform="translate(0 0.661703)" fill="none" stroke="#0a323e" stroke-width="1"/><ellipse rx="10.40389" ry="10.127657" transform="translate(410.555536 499.996621)" fill="none" stroke="#0a323e" stroke-width="1"/></g><g transform="translate(474.193131-379.26624)"><path d="M0,599.711987l100.414932.444803L299.506905,499.992306h100.64474" transform="translate(0 0.661703)" fill="none" stroke="#0a323e" stroke-width="1"/><ellipse rx="10.40389" ry="10.127657" transform="translate(410.555536 499.996621)" fill="none" stroke="#0a323e" stroke-width="1"/></g><g transform="matrix(.96071 0 0 1-1316.500414-277.479462)"><path d="M1864.122941,499.722599l-365.002938.224351" transform="translate(0-1.103219)" fill="none" stroke="#0a323e" stroke-width="1"/><ellipse rx="10.40389" ry="10.127657" transform="translate(1488.716113 498.61938)" fill="none" stroke="#0a323e" stroke-width="1"/></g><g transform="translate(475.696054-318.398977)"><path d="M0,599.711987l100.414932.444803L299.506905,499.992306h100.64474" transform="translate(0 0.661703)" fill="none" stroke="#0a323e" stroke-width="1"/><ellipse rx="10.40389" ry="10.127657" transform="translate(410.555536 499.996621)" fill="none" stroke="#0a323e" stroke-width="1"/></g><g transform="translate(-1466.073832-288.909464)"><path d="M1940.830914,479.584908l-241.788146.654127-99.376257-29.965662" transform="translate(.000001 0.000001)" fill="none" stroke="#0a323e" stroke-width="1"/><ellipse rx="10.40389" ry="10.127657" transform="translate(1589.262622 445.083064)" fill="none" stroke="#0a323e" stroke-width="1"/></g><g transform="translate(474.193147-409.676883)"><path d="M0,599.711987l100.414932.444803L299.506905,499.992306h100.64474" transform="translate(0 0.661703)" fill="none" stroke="#0a323e" stroke-width="1"/><ellipse rx="10.40389" ry="10.127657" transform="translate(410.555536 499.996621)" fill="none" stroke="#0a323e" stroke-width="1"/></g><g transform="translate(-1446.581096-320.56109)"><path d="M1920.023045,480.239035h-220.980277l-99.376257-29.965662" transform="translate(.000001 0.000001)" fill="none" stroke="#0a323e" stroke-width="1"/><ellipse rx="10.40389" ry="10.127657" transform="translate(1589.262622 445.083064)" fill="none" stroke="#0a323e" stroke-width="1"/></g><g transform="translate(473.441951-440.712114)"><path d="M0,599.711987l100.414932.444803L299.506905,499.992306h100.64474" transform="translate(0 0.661703)" fill="none" stroke="#0a323e" stroke-width="1"/><ellipse rx="10.40389" ry="10.127657" transform="translate(410.555536 499.996621)" fill="none" stroke="#0a323e" stroke-width="1"/></g></g><g transform="matrix(.00732-.999973-.999973-.00732 490.4074 508.965597)"><g transform="matrix(1 0 0-1-1444.227301 762.259853)"><path d="M1920.023086,480.239035h-220.980318l-99.376257-29.965662" transform="translate(.000001 0.000001)" fill="none" stroke="#0a323e" stroke-width="1"/><ellipse rx="10.40389" ry="10.127657" transform="translate(1589.262622 445.083064)" fill="none" stroke="#0a323e" stroke-width="1"/></g><g transform="matrix(1 0 0-1-1469.701007 781.946736)"><path d="M1940.830913,480.239035h-241.788145l-99.376257-29.965662" transform="translate(4.566205 50.220984)" fill="none" stroke="#0a323e" stroke-width="1"/><ellipse rx="10.40389" ry="10.127657" transform="translate(1593.828826 495.304048)" fill="none" stroke="#0a323e" stroke-width="1"/></g><g transform="translate(475.69607-348.80962)"><path d="M0,599.711987l100.414932.444803L299.506905,499.992306h100.64474" transform="translate(0 0.661703)" fill="none" stroke="#0a323e" stroke-width="1"/><ellipse rx="10.40389" ry="10.127657" transform="translate(410.555536 499.996621)" fill="none" stroke="#0a323e" stroke-width="1"/></g><g transform="translate(474.193131-379.26624)"><path d="M0,599.711987l100.414932.444803L299.506905,499.992306h100.64474" transform="translate(0 0.661703)" fill="none" stroke="#0a323e" stroke-width="1"/><ellipse rx="10.40389" ry="10.127657" transform="translate(410.555536 499.996621)" fill="none" stroke="#0a323e" stroke-width="1"/></g><g transform="matrix(.96071 0 0 1-1316.500414-277.479462)"><path d="M1864.122941,499.722599l-365.002938.224351" transform="translate(0-1.103219)" fill="none" stroke="#0a323e" stroke-width="1"/><ellipse rx="10.40389" ry="10.127657" transform="translate(1488.716113 498.61938)" fill="none" stroke="#0a323e" stroke-width="1"/></g><g transform="translate(475.696054-318.398977)"><path d="M0,599.711987l100.414932.444803L299.506905,499.992306h100.64474" transform="translate(0 0.661703)" fill="none" stroke="#0a323e" stroke-width="1"/><ellipse rx="10.40389" ry="10.127657" transform="translate(410.555536 499.996621)" fill="none" stroke="#0a323e" stroke-width="1"/></g><g transform="translate(-1466.073832-288.909464)"><path d="M1940.830914,479.584908l-241.788146.654127-99.376257-29.965662" transform="translate(.000001 0.000001)" fill="none" stroke="#0a323e" stroke-width="1"/><ellipse rx="10.40389" ry="10.127657" transform="translate(1589.262622 445.083064)" fill="none" stroke="#0a323e" stroke-width="1"/></g><g transform="translate(474.193147-409.676883)"><path d="M0,599.711987l100.414932.444803L299.506905,499.992306h100.64474" transform="translate(0 0.661703)" fill="none" stroke="#0a323e" stroke-width="1"/><ellipse rx="10.40389" ry="10.127657" transform="translate(410.555536 499.996621)" fill="none" stroke="#0a323e" stroke-width="1"/></g><g transform="translate(-1446.581096-320.56109)"><path d="M1920.023045,480.239035h-220.980277l-99.376257-29.965662" transform="translate(.000001 0.000001)" fill="none" stroke="#0a323e" stroke-width="1"/><ellipse rx="10.40389" ry="10.127657" transform="translate(1589.262622 445.083064)" fill="none" stroke="#0a323e" stroke-width="1"/></g><g transform="translate(473.441951-440.712114)"><path d="M0,599.711987l100.414932.444803L299.506905,499.992306h100.64474" transform="translate(0 0.661703)" fill="none" stroke="#0a323e" stroke-width="1"/><ellipse rx="10.40389" ry="10.127657" transform="translate(410.555536 499.996621)" fill="none" stroke="#0a323e" stroke-width="1"/></g></g><g transform="matrix(-.015167 0.999885 0.999885 0.015167 4429.526867 1637.164798)"><g transform="matrix(1 0 0-1-1444.227301 762.259853)"><path d="M1920.023086,480.239035h-220.980318l-99.376257-29.965662" transform="translate(.000001 0.000001)" fill="none" stroke="#0a323e" stroke-width="1"/><ellipse rx="10.40389" ry="10.127657" transform="translate(1589.262622 445.083064)" fill="none" stroke="#0a323e" stroke-width="1"/></g><g transform="matrix(1 0 0-1-1469.701007 781.946736)"><path d="M1940.830913,480.239035h-241.788145l-99.376257-29.965662" transform="translate(4.566205 50.220984)" fill="none" stroke="#0a323e" stroke-width="1"/><ellipse rx="10.40389" ry="10.127657" transform="translate(1593.828826 495.304048)" fill="none" stroke="#0a323e" stroke-width="1"/></g><g transform="translate(475.69607-348.80962)"><path d="M0,599.711987l100.414932.444803L299.506905,499.992306h100.64474" transform="translate(0 0.661703)" fill="none" stroke="#0a323e" stroke-width="1"/><ellipse rx="10.40389" ry="10.127657" transform="translate(410.555536 499.996621)" fill="none" stroke="#0a323e" stroke-width="1"/></g><g transform="translate(474.193131-379.26624)"><path d="M0,599.711987l100.414932.444803L299.506905,499.992306h100.64474" transform="translate(0 0.661703)" fill="none" stroke="#0a323e" stroke-width="1"/><ellipse rx="10.40389" ry="10.127657" transform="translate(410.555536 499.996621)" fill="none" stroke="#0a323e" stroke-width="1"/></g><g transform="matrix(.96071 0 0 1-1316.500414-277.479462)"><path d="M1864.122941,499.722599l-365.002938.224351" transform="translate(0-1.103219)" fill="none" stroke="#0a323e" stroke-width="1"/><ellipse rx="10.40389" ry="10.127657" transform="translate(1488.716113 498.61938)" fill="none" stroke="#0a323e" stroke-width="1"/></g><g transform="translate(475.696054-318.398977)"><path d="M0,599.711987l100.414932.444803L299.506905,499.992306h100.64474" transform="translate(0 0.661703)" fill="none" stroke="#0a323e" stroke-width="1"/><ellipse rx="10.40389" ry="10.127657" transform="translate(410.555536 499.996621)" fill="none" stroke="#0a323e" stroke-width="1"/></g><g transform="translate(-1466.073832-288.909464)"><path d="M1940.830914,479.584908l-241.788146.654127-99.376257-29.965662" transform="translate(.000001 0.000001)" fill="none" stroke="#0a323e" stroke-width="1"/><ellipse rx="10.40389" ry="10.127657" transform="translate(1589.262622 445.083064)" fill="none" stroke="#0a323e" stroke-width="1"/></g><g transform="translate(474.193147-409.676883)"><path d="M0,599.711987l100.414932.444803L299.506905,499.992306h100.64474" transform="translate(0 0.661703)" fill="none" stroke="#0a323e" stroke-width="1"/><ellipse rx="10.40389" ry="10.127657" transform="translate(410.555536 499.996621)" fill="none" stroke="#0a323e" stroke-width="1"/></g><g transform="translate(-1446.581096-320.56109)"><path d="M1920.023045,480.239035h-220.980277l-99.376257-29.965662" transform="translate(.000001 0.000001)" fill="none" stroke="#0a323e" stroke-width="1"/><ellipse rx="10.40389" ry="10.127657" transform="translate(1589.262622 445.083064)" fill="none" stroke="#0a323e" stroke-width="1"/></g><g transform="translate(473.441951-440.712114)"><path d="M0,599.711987l100.414932.444803L299.506905,499.992306h100.64474" transform="translate(0 0.661703)" fill="none" stroke="#0a323e" stroke-width="1"/><ellipse rx="10.40389" ry="10.127657" transform="translate(410.555536 499.996621)" fill="none" stroke="#0a323e" stroke-width="1"/></g></g><g transform="translate(2.724725 6.576179)"><g transform="translate(1626.693588 524.166544)"><ellipse rx="10.40389" ry="10.127657" transform="translate(408.601535 489.947472)" fill="none" stroke="#0a323e" stroke-width="1"/><ellipse rx="10.40389" ry="10.127657" transform="translate(442.656983 489.668329)" fill="none" stroke="#0a323e" stroke-width="1"/><ellipse rx="10.40389" ry="10.127657" transform="translate(656.97919 489.887839)" fill="none" stroke="#0a323e" stroke-width="1"/><ellipse rx="10.40389" ry="10.127657" transform="translate(623.820804 489.934073)" fill="none" stroke="#0a323e" stroke-width="1"/><ellipse rx="10.40389" ry="10.127657" transform="translate(585.57821 489.743512)" fill="none" stroke="#0a323e" stroke-width="1"/><ellipse rx="10.40389" ry="10.127657" transform="translate(552.081047 489.110043)" fill="none" stroke="#0a323e" stroke-width="1"/><ellipse rx="10.40389" ry="10.127657" transform="translate(481.152551 489.611629)" fill="none" stroke="#0a323e" stroke-width="1"/><ellipse rx="10.40389" ry="10.127657" transform="translate(513.306339 489.903856)" fill="none" stroke="#0a323e" stroke-width="1"/></g><g transform="matrix(0 1-1 0 3415.565294 1331.849421)"><ellipse rx="10.40389" ry="10.127657" transform="translate(408.601535 489.947472)" fill="none" stroke="#0a323e" stroke-width="1"/><ellipse rx="10.40389" ry="10.127657" transform="translate(442.656983 489.668329)" fill="none" stroke="#0a323e" stroke-width="1"/><ellipse rx="10.40389" ry="10.127657" transform="translate(656.97919 489.887839)" fill="none" stroke="#0a323e" stroke-width="1"/><ellipse rx="10.40389" ry="10.127657" transform="translate(623.820804 489.934073)" fill="none" stroke="#0a323e" stroke-width="1"/><ellipse rx="10.40389" ry="10.127657" transform="translate(585.57821 489.743512)" fill="none" stroke="#0a323e" stroke-width="1"/><ellipse rx="10.40389" ry="10.127657" transform="translate(552.081047 489.110043)" fill="none" stroke="#0a323e" stroke-width="1"/><ellipse rx="10.40389" ry="10.127657" transform="translate(481.152551 489.611629)" fill="none" stroke="#0a323e" stroke-width="1"/><ellipse rx="10.40389" ry="10.127657" transform="translate(513.306339 489.903856)" fill="none" stroke="#0a323e" stroke-width="1"/></g><g transform="translate(0 0.000001)"><path d="M2290.45836,1023.69029l627.969975,709.529669L2290.45836,1023.69029Z" transform="translate(.872378 0.000001)" fill="none" stroke="#0a323e" stroke-width="1"/><path d="M2256.743812,988.229004l661.684523,744.990955-661.684523-744.990955Z" transform="translate(-.862267 32.958251)" fill="none" stroke="#0a323e" stroke-width="1"/><path d="M2217.772875,950.828046l700.65546,782.391913-700.65546-782.391913Z" transform="translate(-.428605 70.686774)" fill="none" stroke="#0a323e" stroke-width="1"/><path d="M2182.689411,915.397938l735.738924,817.822021-735.738924-817.822021Z" transform="translate(1.7397 107.547976)" fill="none" stroke="#0a323e" stroke-width="1"/><path d="M2147.345727,880.748414l771.082608,852.471545-771.082608-852.471545Z" transform="translate(1.306038 142.674531)" fill="none" stroke="#0a323e" stroke-width="1"/><path d="M2112.009295,845.332022l806.41904,887.887937-806.41904-887.887937Z" transform="translate(2.296217 178.090923)" fill="none" stroke="#0a323e" stroke-width="1"/><path d="M2074.668601,805.417573l843.759734,927.802386-843.759734-927.802386Z" transform="translate(1.474408 215.620215)" fill="none" stroke="#0a323e" stroke-width="1"/><path d="M2044.988631,776.214642l873.439704,957.005317-873.439704-957.005317Z" transform="translate(-.806719 247.685334)" fill="none" stroke="#0a323e" stroke-width="1"/></g></g><rect width="213.214625" height="531.16626" rx="0" ry="0" transform="translate(3505.137566 760.651186)" fill="none" stroke="#0a323e" stroke-width="1"/><rect width="213.214625" height="531.16626" rx="0" ry="0" transform="translate(3753.066373 758.998328)" fill="none" stroke="#0a323e" stroke-width="1"/><rect width="225" height="225" rx="0" ry="0" transform="matrix(.719351 0 0 0.744145 191.139632 436.867603)" fill="none" stroke="#0a323e" stroke-width="1"/><rect width="225" height="225" rx="0" ry="0" transform="matrix(.719351 0 0 0.744145 4566.95961 1536.905966)" fill="none" stroke="#0a323e" stroke-width="1"/><rect width="225" height="225" rx="0" ry="0" transform="matrix(.733309 0 0 0.723038 4366.168093 361.722599)" fill="none" stroke="#0a323e" stroke-width="1"/><rect width="225" height="225" rx="0" ry="0" transform="translate(48.217539 1473.658941)" fill="none" stroke="#0a323e" stroke-width="1"/><g transform="matrix(-1 0 0 1 3532.815465-638.713625)"><g transform="translate(1626.693588 524.166544)"><ellipse rx="10.40389" ry="10.127657" transform="translate(408.601535 489.947472)" fill="none" stroke="#0a323e" stroke-width="1"/><ellipse rx="10.40389" ry="10.127657" transform="translate(442.656983 489.668329)" fill="none" stroke="#0a323e" stroke-width="1"/><ellipse rx="10.40389" ry="10.127657" transform="translate(656.97919 489.887839)" fill="none" stroke="#0a323e" stroke-width="1"/><ellipse rx="10.40389" ry="10.127657" transform="translate(623.820804 489.934073)" fill="none" stroke="#0a323e" stroke-width="1"/><ellipse rx="10.40389" ry="10.127657" transform="translate(585.57821 489.743512)" fill="none" stroke="#0a323e" stroke-width="1"/><ellipse rx="10.40389" ry="10.127657" transform="translate(552.081047 489.110043)" fill="none" stroke="#0a323e" stroke-width="1"/><ellipse rx="10.40389" ry="10.127657" transform="translate(481.152551 489.611629)" fill="none" stroke="#0a323e" stroke-width="1"/><ellipse rx="10.40389" ry="10.127657" transform="translate(513.306339 489.903856)" fill="none" stroke="#0a323e" stroke-width="1"/></g><g transform="matrix(0 1-1 0 3415.565294 1331.849421)"><ellipse rx="10.40389" ry="10.127657" transform="translate(408.601535 489.947472)" fill="none" stroke="#0a323e" stroke-width="1"/><ellipse rx="10.40389" ry="10.127657" transform="translate(442.656983 489.668329)" fill="none" stroke="#0a323e" stroke-width="1"/><ellipse rx="10.40389" ry="10.127657" transform="translate(656.97919 489.887839)" fill="none" stroke="#0a323e" stroke-width="1"/><ellipse rx="10.40389" ry="10.127657" transform="translate(623.820804 489.934073)" fill="none" stroke="#0a323e" stroke-width="1"/><ellipse rx="10.40389" ry="10.127657" transform="translate(585.57821 489.743512)" fill="none" stroke="#0a323e" stroke-width="1"/><ellipse rx="10.40389" ry="10.127657" transform="translate(552.081047 489.110043)" fill="none" stroke="#0a323e" stroke-width="1"/><ellipse rx="10.40389" ry="10.127657" transform="translate(481.152551 489.611629)" fill="none" stroke="#0a323e" stroke-width="1"/><ellipse rx="10.40389" ry="10.127657" transform="translate(513.306339 489.903856)" fill="none" stroke="#0a323e" stroke-width="1"/></g><g transform="translate(0 0.000001)"><path d="M2290.45836,1023.69029l627.969975,709.529669L2290.45836,1023.69029Z" transform="translate(.872378 0.000001)" fill="none" stroke="#0a323e" stroke-width="1"/><path d="M2256.743812,988.229004l661.684523,744.990955-661.684523-744.990955Z" transform="translate(-.862267 32.958251)" fill="none" stroke="#0a323e" stroke-width="1"/><path d="M2217.772875,950.828046l700.65546,782.391913-700.65546-782.391913Z" transform="translate(-.428605 70.686774)" fill="none" stroke="#0a323e" stroke-width="1"/><path d="M2182.689411,915.397938l735.738924,817.822021-735.738924-817.822021Z" transform="translate(1.7397 107.547976)" fill="none" stroke="#0a323e" stroke-width="1"/><path d="M2147.345727,880.748414l771.082608,852.471545-771.082608-852.471545Z" transform="translate(1.306038 142.674531)" fill="none" stroke="#0a323e" stroke-width="1"/><path d="M2112.009295,845.332022l806.41904,887.887937-806.41904-887.887937Z" transform="translate(2.296217 178.090923)" fill="none" stroke="#0a323e" stroke-width="1"/><path d="M2074.668601,805.417573l843.759734,927.802386-843.759734-927.802386Z" transform="translate(1.474408 215.620215)" fill="none" stroke="#0a323e" stroke-width="1"/><path d="M2044.988631,776.214642l873.439704,957.005317-873.439704-957.005317Z" transform="translate(-.806719 247.685334)" fill="none" stroke="#0a323e" stroke-width="1"/></g></g></svg>
