<svg id="eY6uSUAo2vt1" xmlns="http://www.w3.org/2000/svg" xmlns:xlink="http://www.w3.org/1999/xlink" viewBox="0 0 3840 2160" shape-rendering="geometricPrecision" text-rendering="geometricPrecision"><path d="M0,2000.344435l400.358095-201.195542l398.92267-3.324355l402.247026-199.461337h402.247026h798.953461" transform="translate(0 3.620768)" fill="none" stroke="#00a2ff" stroke-miterlimit="1"/><path d="M0,2000.344435l400.358095-201.195542l398.92267-3.324355l402.247026-199.461337h402.247026h798.953461" transform="matrix(1 0 0-1.09878-232.133993 2753.654931)" fill="none" stroke="#00a2ff" stroke-miterlimit="1"/><path d="M0,2000.344435l400.358095-201.195542l398.92267-3.324355l402.247026-199.461337h402.247026h798.953461" transform="matrix(1 0 0-1.09878-232.830783 2453.476146)" fill="none" stroke="#00a2ff" stroke-miterlimit="1"/><path d="M0,2000.344435l400.358095-201.195542l398.92267-3.324355l402.247026-199.461337h402.247026h798.953461" transform="matrix(1 0 0-1.09878-233.659411 2603.632314)" fill="none" stroke="#00a2ff" stroke-miterlimit="1"/><path d="M0,2000.344435l400.358095-201.195542l398.92267-3.324355l402.247026-199.461337h402.247026h798.953461" transform="matrix(1 0 0-1.09878-233.659411 2713.794583)" fill="none" stroke="#00a2ff" stroke-miterlimit="1"/><path d="M0,2000.344435l400.358095-201.195542l398.92267-3.324355l402.247026-199.461337h402.247026h798.953461" transform="matrix(1 0 0-1.09878-233.659411 2733.885084)" fill="none" stroke="#00a2ff" stroke-miterlimit="1"/><path d="M0,2000.344435l400.358095-201.195542l398.92267-3.324355l402.247026-199.461337h402.247026h798.953461" transform="matrix(1 0 0-1.09878-233.659411 2743.759902)" fill="none" stroke="#00a2ff" stroke-miterlimit="1"/><path d="M0,2000.344435l400.358095-201.195542l398.92267-3.324355l402.247026-199.461337h402.247026h798.953461" transform="matrix(1 0 0-1.09878-233.659411 2723.669401)" fill="none" stroke="#00a2ff" stroke-miterlimit="1"/><path d="M0,2000.344435l400.358095-201.195542l398.92267-3.324355l402.247026-199.461337h402.247026h798.953461" transform="matrix(1 0 0-1.09878-233.659411 2693.830357)" fill="none" stroke="#00a2ff" stroke-miterlimit="1"/><path d="M0,2000.344435l400.358095-201.195542l398.92267-3.324355l402.247026-199.461337h402.247026h798.953461" transform="matrix(1 0 0-1.09878-233.659411 2703.705175)" fill="none" stroke="#00a2ff" stroke-miterlimit="1"/><path d="M0,2000.344435l400.358095-201.195542l398.92267-3.324355l402.247026-199.461337h402.247026h798.953461" transform="matrix(1 0 0-1.09878-233.659411 2683.614674)" fill="none" stroke="#00a2ff" stroke-miterlimit="1"/><path d="M0,2000.344435l400.358095-201.195542l398.92267-3.324355l402.247026-199.461337h402.247026h798.953461" transform="matrix(1 0 0-1.09878-233.659411 2643.687041)" fill="none" stroke="#00a2ff" stroke-miterlimit="1"/><path d="M0,2000.344435l400.358095-201.195542l398.92267-3.324355l402.247026-199.461337h402.247026h798.953461" transform="matrix(1 0 0-1.09878-233.659411 2663.777542)" fill="none" stroke="#00a2ff" stroke-miterlimit="1"/><path d="M0,2000.344435l400.358095-201.195542l398.92267-3.324355l402.247026-199.461337h402.247026h798.953461" transform="matrix(1 0 0-1.09878-233.659411 2673.65236)" fill="none" stroke="#00a2ff" stroke-miterlimit="1"/><path d="M0,2000.344435l400.358095-201.195542l398.92267-3.324355l402.247026-199.461337h402.247026h798.953461" transform="matrix(1 0 0-1.09878-233.659411 2653.561859)" fill="none" stroke="#00a2ff" stroke-miterlimit="1"/><path d="M0,2000.344435l400.358095-201.195542l398.92267-3.324355l402.247026-199.461337h402.247026h798.953461" transform="matrix(1 0 0-1.09878-233.659411 2623.722815)" fill="none" stroke="#00a2ff" stroke-miterlimit="1"/><path d="M0,2000.344435l400.358095-201.195542l398.92267-3.324355l402.247026-199.461337h402.247026h798.953461" transform="matrix(1 0 0-1.09878-233.659411 2633.597633)" fill="none" stroke="#00a2ff" stroke-miterlimit="1"/><path d="M0,2000.344435l400.358095-201.195542l398.92267-3.324355l402.247026-199.461337h402.247026h798.953461" transform="matrix(1 0 0-1.09878-233.659411 2613.507132)" fill="none" stroke="#00a2ff" stroke-miterlimit="1"/><path d="M0,2000.344435l400.358095-201.195542l398.92267-3.324355l402.247026-199.461337h402.247026h798.953461" transform="matrix(1 0 0-1.09878-232.830783 2563.638415)" fill="none" stroke="#00a2ff" stroke-miterlimit="1"/><path d="M0,2000.344435l400.358095-201.195542l398.92267-3.324355l402.247026-199.461337h402.247026h798.953461" transform="matrix(1 0 0-1.09878-232.830783 2583.728916)" fill="none" stroke="#00a2ff" stroke-miterlimit="1"/><path d="M0,2000.344435l400.358095-201.195542l398.92267-3.324355l402.247026-199.461337h402.247026h798.953461" transform="matrix(1 0 0-1.09878-232.830783 2593.603734)" fill="none" stroke="#00a2ff" stroke-miterlimit="1"/><path d="M0,2000.344435l400.358095-201.195542l398.92267-3.324355l402.247026-199.461337h402.247026h798.953461" transform="matrix(1 0 0-1.09878-232.830783 2573.513233)" fill="none" stroke="#00a2ff" stroke-miterlimit="1"/><path d="M0,2000.344435l400.358095-201.195542l398.92267-3.324355l402.247026-199.461337h402.247026h798.953461" transform="matrix(1 0 0-1.09878-232.830783 2543.674189)" fill="none" stroke="#00a2ff" stroke-miterlimit="1"/><path d="M0,2000.344435l400.358095-201.195542l398.92267-3.324355l402.247026-199.461337h402.247026h798.953461" transform="matrix(1 0 0-1.09878-232.830783 2553.549007)" fill="none" stroke="#00a2ff" stroke-miterlimit="1"/><path d="M0,2000.344435l400.358095-201.195542l398.92267-3.324355l402.247026-199.461337h402.247026h798.953461" transform="matrix(1 0 0-1.09878-232.830783 2533.458506)" fill="none" stroke="#00a2ff" stroke-miterlimit="1"/><path d="M0,2000.344435l400.358095-201.195542l398.92267-3.324355l402.247026-199.461337h402.247026h798.953461" transform="matrix(1 0 0-1.09878-232.830783 2493.530873)" fill="none" stroke="#00a2ff" stroke-miterlimit="1"/><path d="M0,2000.344435l400.358095-201.195542l398.92267-3.324355l402.247026-199.461337h402.247026h798.953461" transform="matrix(1 0 0-1.09878-232.830783 2513.621374)" fill="none" stroke="#00a2ff" stroke-miterlimit="1"/><path d="M0,2000.344435l400.358095-201.195542l398.92267-3.324355l402.247026-199.461337h402.247026h798.953461" transform="matrix(1 0 0-1.09878-232.830783 2523.496192)" fill="none" stroke="#00a2ff" stroke-miterlimit="1"/><path d="M0,2000.344435l400.358095-201.195542l398.92267-3.324355l402.247026-199.461337h402.247026h798.953461" transform="matrix(1 0 0-1.09878-232.830783 2503.405691)" fill="none" stroke="#00a2ff" stroke-miterlimit="1"/><path d="M0,2000.344435l400.358095-201.195542l398.92267-3.324355l402.247026-199.461337h402.247026h798.953461" transform="matrix(1 0 0-1.09878-232.830783 2473.566647)" fill="none" stroke="#00a2ff" stroke-miterlimit="1"/><path d="M0,2000.344435l400.358095-201.195542l398.92267-3.324355l402.247026-199.461337h402.247026h798.953461" transform="matrix(1 0 0-1.09878-232.830783 2483.441465)" fill="none" stroke="#00a2ff" stroke-miterlimit="1"/><path d="M0,2000.344435l400.358095-201.195542l398.92267-3.324355l402.247026-199.461337h402.247026h798.953461" transform="matrix(1 0 0-1.09878-232.830783 2463.350964)" fill="none" stroke="#00a2ff" stroke-miterlimit="1"/><path d="M0,2000.344435l400.358095-201.195542l398.92267-3.324355l402.247026-199.461337h402.247026h798.953461" transform="matrix(1 0 0-1.09878-232.962621 2903.811099)" fill="none" stroke="#00a2ff" stroke-miterlimit="1"/><path d="M0,2000.344435l400.358095-201.195542l398.92267-3.324355l402.247026-199.461337h402.247026h798.953461" transform="matrix(-1.003304 0 0 1.106728 6020.428717-1023.828901)" fill="none" stroke="#00a2ff" stroke-miterlimit="1"/><path d="M0,2000.344435l400.358095-201.195542l398.92267-3.324355l402.247026-199.461337h402.247026h798.953461" transform="matrix(1.003304 0 0 1.106728 2168.873936-1364.218185)" fill="none" stroke="#00a2ff" stroke-miterlimit="1"/><path d="M0,2000.344435l400.358095-201.195542l398.92267-3.324355l402.247026-199.461337h402.247026h798.953461" transform="matrix(1.003304 0 0 1.106728 2168.873936-1364.218185)" fill="none" stroke="#00a2ff" stroke-miterlimit="1"/><path d="M0,2000.344435l400.358095-201.195542l398.92267-3.324355l402.247026-199.461337h402.247026h798.953461" transform="matrix(1.003304 0 0 1.106728 2168.873936-1324.163458)" fill="none" stroke="#00a2ff" stroke-miterlimit="1"/><path d="M0,2000.344435l400.358095-201.195542l398.92267-3.324355l402.247026-199.461337h402.247026h798.953461" transform="matrix(1.003304 0 0 1.106728 2168.873936-1254.055916)" fill="none" stroke="#00a2ff" stroke-miterlimit="1"/><path d="M0,2000.344435l400.358095-201.195542l398.92267-3.324355l402.247026-199.461337h402.247026h798.953461" transform="matrix(1.003304 0 0 1.106728 2168.873936-1233.965415)" fill="none" stroke="#00a2ff" stroke-miterlimit="1"/><path d="M0,2000.344435l400.358095-201.195542l398.92267-3.324355l402.247026-199.461337h402.247026h798.953461" transform="matrix(1.003304 0 0 1.106728 2168.873936-1224.090597)" fill="none" stroke="#00a2ff" stroke-miterlimit="1"/><path d="M0,2000.344435l400.358095-201.195542l398.92267-3.324355l402.247026-199.461337h402.247026h798.953461" transform="matrix(1.003304 0 0 1.106728 2168.873936-1244.181098)" fill="none" stroke="#00a2ff" stroke-miterlimit="1"/><path d="M0,2000.344435l400.358095-201.195542l398.92267-3.324355l402.247026-199.461337h402.247026h798.953461" transform="matrix(1.003304 0 0 1.106728 2168.873936-1274.020142)" fill="none" stroke="#00a2ff" stroke-miterlimit="1"/><path d="M0,2000.344435l400.358095-201.195542l398.92267-3.324355l402.247026-199.461337h402.247026h798.953461" transform="matrix(1.003304 0 0 1.106728 2168.873936-1264.145324)" fill="none" stroke="#00a2ff" stroke-miterlimit="1"/><path d="M0,2000.344435l400.358095-201.195542l398.92267-3.324355l402.247026-199.461337h402.247026h798.953461" transform="matrix(1.003304 0 0 1.106728 2168.873936-1284.235825)" fill="none" stroke="#00a2ff" stroke-miterlimit="1"/><path d="M0,2000.344435l400.358095-201.195542l398.92267-3.324355l402.247026-199.461337h402.247026h798.953461" transform="matrix(1.003304 0 0 1.106728 2168.873936-1304.072957)" fill="none" stroke="#00a2ff" stroke-miterlimit="1"/><path d="M0,2000.344435l400.358095-201.195542l398.92267-3.324355l402.247026-199.461337h402.247026h798.953461" transform="matrix(1.003304 0 0 1.106728 2168.873936-1294.198139)" fill="none" stroke="#00a2ff" stroke-miterlimit="1"/><path d="M0,2000.344435l400.358095-201.195542l398.92267-3.324355l402.247026-199.461337h402.247026h798.953461" transform="matrix(1.003304 0 0 1.106728 2168.873936-1314.28864)" fill="none" stroke="#00a2ff" stroke-miterlimit="1"/><path d="M0,2000.344435l400.358095-201.195542l398.92267-3.324355l402.247026-199.461337h402.247026h798.953461" transform="matrix(1.003304 0 0 1.106728 2168.873936-1344.127684)" fill="none" stroke="#00a2ff" stroke-miterlimit="1"/><path d="M0,2000.344435l400.358095-201.195542l398.92267-3.324355l402.247026-199.461337h402.247026h798.953461" transform="matrix(1.003304 0 0 1.106728 2168.873936-1334.252866)" fill="none" stroke="#00a2ff" stroke-miterlimit="1"/><path d="M0,2000.344435l400.358095-201.195542l398.92267-3.324355l402.247026-199.461337h402.247026h798.953461" transform="matrix(1.003304 0 0 1.106728 2168.873936-1354.343367)" fill="none" stroke="#00a2ff" stroke-miterlimit="1"/><path d="M0,2000.344435l400.358095-201.195542l398.92267-3.324355l402.247026-199.461337h402.247026h798.953461" transform="matrix(1.003304 0 0 1.106728 2169.702564-1514.374353)" fill="none" stroke="#00a2ff" stroke-miterlimit="1"/><path d="M0,2000.344435l400.358095-201.195542l398.92267-3.324355l402.247026-199.461337h402.247026h798.953461" transform="matrix(1.003304 0 0 1.106728 2169.702564-1474.319626)" fill="none" stroke="#00a2ff" stroke-miterlimit="1"/><path d="M0,2000.344435l400.358095-201.195542l398.92267-3.324355l402.247026-199.461337h402.247026h798.953461" transform="matrix(1.003304 0 0 1.106728 2169.702564-1404.212084)" fill="none" stroke="#00a2ff" stroke-miterlimit="1"/><path d="M0,2000.344435l400.358095-201.195542l398.92267-3.324355l402.247026-199.461337h402.247026h798.953461" transform="matrix(1.003304 0 0 1.106728 2169.702564-1384.121583)" fill="none" stroke="#00a2ff" stroke-miterlimit="1"/><path d="M0,2000.344435l400.358095-201.195542l398.92267-3.324355l402.247026-199.461337h402.247026h798.953461" transform="matrix(1.003304 0 0 1.106728 2169.702564-1374.246765)" fill="none" stroke="#00a2ff" stroke-miterlimit="1"/><path d="M0,2000.344435l400.358095-201.195542l398.92267-3.324355l402.247026-199.461337h402.247026h798.953461" transform="matrix(1.003304 0 0 1.106728 2169.702564-1394.337266)" fill="none" stroke="#00a2ff" stroke-miterlimit="1"/><path d="M0,2000.344435l400.358095-201.195542l398.92267-3.324355l402.247026-199.461337h402.247026h798.953461" transform="matrix(1.003304 0 0 1.106728 2169.702564-1424.17631)" fill="none" stroke="#00a2ff" stroke-miterlimit="1"/><path d="M0,2000.344435l400.358095-201.195542l398.92267-3.324355l402.247026-199.461337h402.247026h798.953461" transform="matrix(1.003304 0 0 1.106728 2169.702564-1414.301492)" fill="none" stroke="#00a2ff" stroke-miterlimit="1"/><path d="M0,2000.344435l400.358095-201.195542l398.92267-3.324355l402.247026-199.461337h402.247026h798.953461" transform="matrix(1.003304 0 0 1.106728 2169.702564-1434.391993)" fill="none" stroke="#00a2ff" stroke-miterlimit="1"/><path d="M0,2000.344435l400.358095-201.195542l398.92267-3.324355l402.247026-199.461337h402.247026h798.953461" transform="matrix(1.003304 0 0 1.106728 2169.702564-1454.229125)" fill="none" stroke="#00a2ff" stroke-miterlimit="1"/><path d="M0,2000.344435l400.358095-201.195542l398.92267-3.324355l402.247026-199.461337h402.247026h798.953461" transform="matrix(1.003304 0 0 1.106728 2169.702564-1444.354307)" fill="none" stroke="#00a2ff" stroke-miterlimit="1"/><path d="M0,2000.344435l400.358095-201.195542l398.92267-3.324355l402.247026-199.461337h402.247026h798.953461" transform="matrix(1.003304 0 0 1.106728 2169.702564-1464.444808)" fill="none" stroke="#00a2ff" stroke-miterlimit="1"/><path d="M0,2000.344435l400.358095-201.195542l398.92267-3.324355l402.247026-199.461337h402.247026h798.953461" transform="matrix(1.003304 0 0 1.106728 2169.702564-1494.283852)" fill="none" stroke="#00a2ff" stroke-miterlimit="1"/><path d="M0,2000.344435l400.358095-201.195542l398.92267-3.324355l402.247026-199.461337h402.247026h798.953461" transform="matrix(1.003304 0 0 1.106728 2169.702564-1484.409034)" fill="none" stroke="#00a2ff" stroke-miterlimit="1"/><path d="M0,2000.344435l400.358095-201.195542l398.92267-3.324355l402.247026-199.461337h402.247026h798.953461" transform="matrix(1.003304 0 0 1.106728 2169.702564-1504.499535)" fill="none" stroke="#00a2ff" stroke-miterlimit="1"/><path d="M0,2000.344435l400.358095-201.195542l398.92267-3.324355l402.247026-199.461337h402.247026h798.953461" transform="matrix(1.003304 0 0 1.106728 2168.873936-1324.163458)" fill="none" stroke="#00a2ff" stroke-miterlimit="1"/><path d="M0,2000.344435l400.358095-201.195542l398.92267-3.324355l402.247026-199.461337h402.247026h798.953461" transform="matrix(1.003304 0 0 1.106728 2168.873936-1254.055916)" fill="none" stroke="#00a2ff" stroke-miterlimit="1"/><path d="M0,2000.344435l400.358095-201.195542l398.92267-3.324355l402.247026-199.461337h402.247026h798.953461" transform="matrix(1.003304 0 0 1.106728 2168.873936-1233.965415)" fill="none" stroke="#00a2ff" stroke-miterlimit="1"/><path d="M0,2000.344435l400.358095-201.195542l398.92267-3.324355l402.247026-199.461337h402.247026h798.953461" transform="matrix(1.003304 0 0 1.106728 2168.873936-1224.090597)" fill="none" stroke="#00a2ff" stroke-miterlimit="1"/><path d="M0,2000.344435l400.358095-201.195542l398.92267-3.324355l402.247026-199.461337h402.247026h798.953461" transform="matrix(1.003304 0 0 1.106728 2168.873936-1244.181098)" fill="none" stroke="#00a2ff" stroke-miterlimit="1"/><path d="M0,2000.344435l400.358095-201.195542l398.92267-3.324355l402.247026-199.461337h402.247026h798.953461" transform="matrix(1.003304 0 0 1.106728 2168.873936-1274.020142)" fill="none" stroke="#00a2ff" stroke-miterlimit="1"/><path d="M0,2000.344435l400.358095-201.195542l398.92267-3.324355l402.247026-199.461337h402.247026h798.953461" transform="matrix(1.003304 0 0 1.106728 2168.873936-1264.145324)" fill="none" stroke="#00a2ff" stroke-miterlimit="1"/><path d="M0,2000.344435l400.358095-201.195542l398.92267-3.324355l402.247026-199.461337h402.247026h798.953461" transform="matrix(1.003304 0 0 1.106728 2168.873936-1284.235825)" fill="none" stroke="#00a2ff" stroke-miterlimit="1"/><path d="M0,2000.344435l400.358095-201.195542l398.92267-3.324355l402.247026-199.461337h402.247026h798.953461" transform="matrix(1.003304 0 0 1.106728 2168.873936-1304.072957)" fill="none" stroke="#00a2ff" stroke-miterlimit="1"/><path d="M0,2000.344435l400.358095-201.195542l398.92267-3.324355l402.247026-199.461337h402.247026h798.953461" transform="matrix(1.003304 0 0 1.106728 2168.873936-1294.198139)" fill="none" stroke="#00a2ff" stroke-miterlimit="1"/><path d="M0,2000.344435l400.358095-201.195542l398.92267-3.324355l402.247026-199.461337h402.247026h798.953461" transform="matrix(1.003304 0 0 1.106728 2168.873936-1314.28864)" fill="none" stroke="#00a2ff" stroke-miterlimit="1"/><path d="M0,2000.344435l400.358095-201.195542l398.92267-3.324355l402.247026-199.461337h402.247026h798.953461" transform="matrix(1.003304 0 0 1.106728 2168.873936-1344.127684)" fill="none" stroke="#00a2ff" stroke-miterlimit="1"/><path d="M0,2000.344435l400.358095-201.195542l398.92267-3.324355l402.247026-199.461337h402.247026h798.953461" transform="matrix(1.003304 0 0 1.106728 2168.873936-1334.252866)" fill="none" stroke="#00a2ff" stroke-miterlimit="1"/><path d="M0,2000.344435l400.358095-201.195542l398.92267-3.324355l402.247026-199.461337h402.247026h798.953461" transform="matrix(1.003304 0 0 1.106728 2168.873936-1354.343367)" fill="none" stroke="#00a2ff" stroke-miterlimit="1"/><path d="M0,2000.344435l400.358095-201.195542l398.92267-3.324355l402.247026-199.461337h402.247026h798.953461" transform="matrix(1.003304 0 0 1.106728 2169.702564-1514.374353)" fill="none" stroke="#00a2ff" stroke-miterlimit="1"/><path d="M0,2000.344435l400.358095-201.195542l398.92267-3.324355l402.247026-199.461337h402.247026h798.953461" transform="matrix(1.003304 0 0 1.106728 2169.702564-1474.319626)" fill="none" stroke="#00a2ff" stroke-miterlimit="1"/><path d="M0,2000.344435l400.358095-201.195542l398.92267-3.324355l402.247026-199.461337h402.247026h798.953461" transform="matrix(1.003304 0 0 1.106728 2169.702564-1404.212084)" fill="none" stroke="#00a2ff" stroke-miterlimit="1"/><path d="M0,2000.344435l400.358095-201.195542l398.92267-3.324355l402.247026-199.461337h402.247026h798.953461" transform="matrix(1.003304 0 0 1.106728 2169.702564-1384.121583)" fill="none" stroke="#00a2ff" stroke-miterlimit="1"/><path d="M0,2000.344435l400.358095-201.195542l398.92267-3.324355l402.247026-199.461337h402.247026h798.953461" transform="matrix(1.003304 0 0 1.106728 2169.702564-1374.246765)" fill="none" stroke="#00a2ff" stroke-miterlimit="1"/><path d="M0,2000.344435l400.358095-201.195542l398.92267-3.324355l402.247026-199.461337h402.247026h798.953461" transform="matrix(1.003304 0 0 1.106728 2169.702564-1394.337266)" fill="none" stroke="#00a2ff" stroke-miterlimit="1"/><path d="M0,2000.344435l400.358095-201.195542l398.92267-3.324355l402.247026-199.461337h402.247026h798.953461" transform="matrix(1.003304 0 0 1.106728 2169.702564-1424.17631)" fill="none" stroke="#00a2ff" stroke-miterlimit="1"/><path d="M0,2000.344435l400.358095-201.195542l398.92267-3.324355l402.247026-199.461337h402.247026h798.953461" transform="matrix(1.003304 0 0 1.106728 2169.702564-1414.301492)" fill="none" stroke="#00a2ff" stroke-miterlimit="1"/><path d="M0,2000.344435l400.358095-201.195542l398.92267-3.324355l402.247026-199.461337h402.247026h798.953461" transform="matrix(1.003304 0 0 1.106728 2169.702564-1434.391993)" fill="none" stroke="#00a2ff" stroke-miterlimit="1"/><path d="M0,2000.344435l400.358095-201.195542l398.92267-3.324355l402.247026-199.461337h402.247026h798.953461" transform="matrix(1.003304 0 0 1.106728 2169.702564-1454.229125)" fill="none" stroke="#00a2ff" stroke-miterlimit="1"/><path d="M0,2000.344435l400.358095-201.195542l398.92267-3.324355l402.247026-199.461337h402.247026h798.953461" transform="matrix(1.003304 0 0 1.106728 2169.702564-1444.354307)" fill="none" stroke="#00a2ff" stroke-miterlimit="1"/><path d="M0,2000.344435l400.358095-201.195542l398.92267-3.324355l402.247026-199.461337h402.247026h798.953461" transform="matrix(1.003304 0 0 1.106728 2169.702564-1464.444808)" fill="none" stroke="#00a2ff" stroke-miterlimit="1"/><path d="M0,2000.344435l400.358095-201.195542l398.92267-3.324355l402.247026-199.461337h402.247026h798.953461" transform="matrix(1.003304 0 0 1.106728 2169.702564-1494.283852)" fill="none" stroke="#00a2ff" stroke-miterlimit="1"/><path d="M0,2000.344435l400.358095-201.195542l398.92267-3.324355l402.247026-199.461337h402.247026h798.953461" transform="matrix(1.003304 0 0 1.106728 2169.702564-1484.409034)" fill="none" stroke="#00a2ff" stroke-miterlimit="1"/><path d="M0,2000.344435l400.358095-201.195542l398.92267-3.324355l402.247026-199.461337h402.247026h798.953461" transform="matrix(1.003304 0 0 1.106728 2169.702564-1504.499535)" fill="none" stroke="#00a2ff" stroke-miterlimit="1"/><path d="M0,2000.344435l400.358095-201.195542l398.92267-3.324355l402.247026-199.461337h402.247026h798.953461" transform="matrix(-1.003304 0 0 1.106728 6020.428717-1023.828901)" fill="none" stroke="#00a2ff" stroke-miterlimit="1"/><path d="M0,2000.344435l400.358095-201.195542l398.92267-3.324355l402.247026-199.461337h402.247026h798.953461" transform="matrix(-1.003304 0 0 1.106728 6020.428717-983.774174)" fill="none" stroke="#00a2ff" stroke-miterlimit="1"/><path d="M0,2000.344435l400.358095-201.195542l398.92267-3.324355l402.247026-199.461337h402.247026h798.953461" transform="matrix(-1.003304 0 0 1.106728 6020.428717-913.666632)" fill="none" stroke="#00a2ff" stroke-miterlimit="1"/><path d="M0,2000.344435l400.358095-201.195542l398.92267-3.324355l402.247026-199.461337h402.247026h798.953461" transform="matrix(-1.003304 0 0 1.106728 6020.428717-893.576131)" fill="none" stroke="#00a2ff" stroke-miterlimit="1"/><path d="M0,2000.344435l400.358095-201.195542l398.92267-3.324355l402.247026-199.461337h402.247026h798.953461" transform="matrix(-1.003304 0 0 1.106728 6020.428717-883.701313)" fill="none" stroke="#00a2ff" stroke-miterlimit="1"/><path d="M0,2000.344435l400.358095-201.195542l398.92267-3.324355l402.247026-199.461337h402.247026h798.953461" transform="matrix(-1.003304 0 0 1.106728 6020.428717-903.791814)" fill="none" stroke="#00a2ff" stroke-miterlimit="1"/><path d="M0,2000.344435l400.358095-201.195542l398.92267-3.324355l402.247026-199.461337h402.247026h798.953461" transform="matrix(-1.003304 0 0 1.106728 6020.428717-933.630858)" fill="none" stroke="#00a2ff" stroke-miterlimit="1"/><path d="M0,2000.344435l400.358095-201.195542l398.92267-3.324355l402.247026-199.461337h402.247026h798.953461" transform="matrix(-1.003304 0 0 1.106728 6020.428717-923.75604)" fill="none" stroke="#00a2ff" stroke-miterlimit="1"/><path d="M0,2000.344435l400.358095-201.195542l398.92267-3.324355l402.247026-199.461337h402.247026h798.953461" transform="matrix(-1.003304 0 0 1.106728 6020.428717-943.846541)" fill="none" stroke="#00a2ff" stroke-miterlimit="1"/><path d="M0,2000.344435l400.358095-201.195542l398.92267-3.324355l402.247026-199.461337h402.247026h798.953461" transform="matrix(-1.003304 0 0 1.106728 6020.428717-963.683673)" fill="none" stroke="#00a2ff" stroke-miterlimit="1"/><path d="M0,2000.344435l400.358095-201.195542l398.92267-3.324355l402.247026-199.461337h402.247026h798.953461" transform="matrix(-1.003304 0 0 1.106728 6020.428717-953.808855)" fill="none" stroke="#00a2ff" stroke-miterlimit="1"/><path d="M0,2000.344435l400.358095-201.195542l398.92267-3.324355l402.247026-199.461337h402.247026h798.953461" transform="matrix(-1.003304 0 0 1.106728 6020.428717-973.899356)" fill="none" stroke="#00a2ff" stroke-miterlimit="1"/><path d="M0,2000.344435l400.358095-201.195542l398.92267-3.324355l402.247026-199.461337h402.247026h798.953461" transform="matrix(-1.003304 0 0 1.106728 6020.428717-1003.7384)" fill="none" stroke="#00a2ff" stroke-miterlimit="1"/><path d="M0,2000.344435l400.358095-201.195542l398.92267-3.324355l402.247026-199.461337h402.247026h798.953461" transform="matrix(-1.003304 0 0 1.106728 6020.428717-993.863582)" fill="none" stroke="#00a2ff" stroke-miterlimit="1"/><path d="M0,2000.344435l400.358095-201.195542l398.92267-3.324355l402.247026-199.461337h402.247026h798.953461" transform="matrix(-1.003304 0 0 1.106728 6020.428717-1013.954083)" fill="none" stroke="#00a2ff" stroke-miterlimit="1"/><path d="M0,2000.344435l400.358095-201.195542l398.92267-3.324355l402.247026-199.461337h402.247026h798.953461" transform="matrix(-1.003304 0 0 1.106728 6021.257345-1173.985069)" fill="none" stroke="#00a2ff" stroke-miterlimit="1"/><path d="M0,2000.344435l400.358095-201.195542l398.92267-3.324355l402.247026-199.461337h402.247026h798.953461" transform="matrix(-1.003304 0 0 1.106728 6021.257345-1133.930342)" fill="none" stroke="#00a2ff" stroke-miterlimit="1"/><path d="M0,2000.344435l400.358095-201.195542l398.92267-3.324355l402.247026-199.461337h402.247026h798.953461" transform="matrix(-1.003304 0 0 1.106728 6021.257345-1063.8228)" fill="none" stroke="#00a2ff" stroke-miterlimit="1"/><path d="M0,2000.344435l400.358095-201.195542l398.92267-3.324355l402.247026-199.461337h402.247026h798.953461" transform="matrix(-1.003304 0 0 1.106728 6021.257345-1043.732299)" fill="none" stroke="#00a2ff" stroke-miterlimit="1"/><path d="M0,2000.344435l400.358095-201.195542l398.92267-3.324355l402.247026-199.461337h402.247026h798.953461" transform="matrix(-1.003304 0 0 1.106728 6021.257345-1033.857481)" fill="none" stroke="#00a2ff" stroke-miterlimit="1"/><path d="M0,2000.344435l400.358095-201.195542l398.92267-3.324355l402.247026-199.461337h402.247026h798.953461" transform="matrix(-1.003304 0 0 1.106728 6021.257345-1053.947982)" fill="none" stroke="#00a2ff" stroke-miterlimit="1"/><path d="M0,2000.344435l400.358095-201.195542l398.92267-3.324355l402.247026-199.461337h402.247026h798.953461" transform="matrix(-1.003304 0 0 1.106728 6021.257345-1083.787026)" fill="none" stroke="#00a2ff" stroke-miterlimit="1"/><path d="M0,2000.344435l400.358095-201.195542l398.92267-3.324355l402.247026-199.461337h402.247026h798.953461" transform="matrix(-1.003304 0 0 1.106728 6021.257345-1073.912208)" fill="none" stroke="#00a2ff" stroke-miterlimit="1"/><path d="M0,2000.344435l400.358095-201.195542l398.92267-3.324355l402.247026-199.461337h402.247026h798.953461" transform="matrix(-1.003304 0 0 1.106728 6021.257345-1094.002709)" fill="none" stroke="#00a2ff" stroke-miterlimit="1"/><path d="M0,2000.344435l400.358095-201.195542l398.92267-3.324355l402.247026-199.461337h402.247026h798.953461" transform="matrix(-1.003304 0 0 1.106728 6021.257345-1113.839841)" fill="none" stroke="#00a2ff" stroke-miterlimit="1"/><path d="M0,2000.344435l400.358095-201.195542l398.92267-3.324355l402.247026-199.461337h402.247026h798.953461" transform="matrix(-1.003304 0 0 1.106728 6021.257345-1103.965023)" fill="none" stroke="#00a2ff" stroke-miterlimit="1"/><path d="M0,2000.344435l400.358095-201.195542l398.92267-3.324355l402.247026-199.461337h402.247026h798.953461" transform="matrix(-1.003304 0 0 1.106728 6021.257345-1124.055524)" fill="none" stroke="#00a2ff" stroke-miterlimit="1"/><path d="M0,2000.344435l400.358095-201.195542l398.92267-3.324355l402.247026-199.461337h402.247026h798.953461" transform="matrix(-1.003304 0 0 1.106728 6021.257345-1153.894568)" fill="none" stroke="#00a2ff" stroke-miterlimit="1"/><path d="M0,2000.344435l400.358095-201.195542l398.92267-3.324355l402.247026-199.461337h402.247026h798.953461" transform="matrix(-1.003304 0 0 1.106728 6021.257345-1144.01975)" fill="none" stroke="#00a2ff" stroke-miterlimit="1"/><path d="M0,2000.344435l400.358095-201.195542l398.92267-3.324355l402.247026-199.461337h402.247026h798.953461" transform="matrix(-1.003304 0 0 1.106728 6021.257345-1164.110251)" fill="none" stroke="#00a2ff" stroke-miterlimit="1"/><path d="M0,2000.344435l400.358095-201.195542l398.92267-3.324355l402.247026-199.461337h402.247026h798.953461" transform="matrix(-1.003304 0 0 1.106728 6020.428717-983.774174)" fill="none" stroke="#00a2ff" stroke-miterlimit="1"/><path d="M0,2000.344435l400.358095-201.195542l398.92267-3.324355l402.247026-199.461337h402.247026h798.953461" transform="matrix(-1.003304 0 0 1.106728 6020.428717-913.666632)" fill="none" stroke="#00a2ff" stroke-miterlimit="1"/><path d="M0,2000.344435l400.358095-201.195542l398.92267-3.324355l402.247026-199.461337h402.247026h798.953461" transform="matrix(-1.003304 0 0 1.106728 6020.428717-893.576131)" fill="none" stroke="#00a2ff" stroke-miterlimit="1"/><path d="M0,2000.344435l400.358095-201.195542l398.92267-3.324355l402.247026-199.461337h402.247026h798.953461" transform="matrix(-1.003304 0 0 1.106728 6020.428717-883.701313)" fill="none" stroke="#00a2ff" stroke-miterlimit="1"/><path d="M0,2000.344435l400.358095-201.195542l398.92267-3.324355l402.247026-199.461337h402.247026h798.953461" transform="matrix(-1.003304 0 0 1.106728 6020.428717-903.791814)" fill="none" stroke="#00a2ff" stroke-miterlimit="1"/><path d="M0,2000.344435l400.358095-201.195542l398.92267-3.324355l402.247026-199.461337h402.247026h798.953461" transform="matrix(-1.003304 0 0 1.106728 6020.428717-933.630858)" fill="none" stroke="#00a2ff" stroke-miterlimit="1"/><path d="M0,2000.344435l400.358095-201.195542l398.92267-3.324355l402.247026-199.461337h402.247026h798.953461" transform="matrix(-1.003304 0 0 1.106728 6020.428717-923.75604)" fill="none" stroke="#00a2ff" stroke-miterlimit="1"/><path d="M0,2000.344435l400.358095-201.195542l398.92267-3.324355l402.247026-199.461337h402.247026h798.953461" transform="matrix(-1.003304 0 0 1.106728 6020.428717-943.846541)" fill="none" stroke="#00a2ff" stroke-miterlimit="1"/><path d="M0,2000.344435l400.358095-201.195542l398.92267-3.324355l402.247026-199.461337h402.247026h798.953461" transform="matrix(-1.003304 0 0 1.106728 6020.428717-963.683673)" fill="none" stroke="#00a2ff" stroke-miterlimit="1"/><path d="M0,2000.344435l400.358095-201.195542l398.92267-3.324355l402.247026-199.461337h402.247026h798.953461" transform="matrix(-1.003304 0 0 1.106728 6020.428717-953.808855)" fill="none" stroke="#00a2ff" stroke-miterlimit="1"/><path d="M0,2000.344435l400.358095-201.195542l398.92267-3.324355l402.247026-199.461337h402.247026h798.953461" transform="matrix(-1.003304 0 0 1.106728 6020.428717-973.899356)" fill="none" stroke="#00a2ff" stroke-miterlimit="1"/><path d="M0,2000.344435l400.358095-201.195542l398.92267-3.324355l402.247026-199.461337h402.247026h798.953461" transform="matrix(-1.003304 0 0 1.106728 6020.428717-1003.7384)" fill="none" stroke="#00a2ff" stroke-miterlimit="1"/><path d="M0,2000.344435l400.358095-201.195542l398.92267-3.324355l402.247026-199.461337h402.247026h798.953461" transform="matrix(-1.003304 0 0 1.106728 6020.428717-993.863582)" fill="none" stroke="#00a2ff" stroke-miterlimit="1"/><path d="M0,2000.344435l400.358095-201.195542l398.92267-3.324355l402.247026-199.461337h402.247026h798.953461" transform="matrix(-1.003304 0 0 1.106728 6020.428717-1013.954083)" fill="none" stroke="#00a2ff" stroke-miterlimit="1"/><path d="M0,2000.344435l400.358095-201.195542l398.92267-3.324355l402.247026-199.461337h402.247026h798.953461" transform="matrix(-1.003304 0 0 1.106728 6021.257345-1173.985069)" fill="none" stroke="#00a2ff" stroke-miterlimit="1"/><path d="M0,2000.344435l400.358095-201.195542l398.92267-3.324355l402.247026-199.461337h402.247026h798.953461" transform="matrix(-1.003304 0 0 1.106728 6021.257345-1133.930342)" fill="none" stroke="#00a2ff" stroke-miterlimit="1"/><path d="M0,2000.344435l400.358095-201.195542l398.92267-3.324355l402.247026-199.461337h402.247026h798.953461" transform="matrix(-1.003304 0 0 1.106728 6021.257345-1063.8228)" fill="none" stroke="#00a2ff" stroke-miterlimit="1"/><path d="M0,2000.344435l400.358095-201.195542l398.92267-3.324355l402.247026-199.461337h402.247026h798.953461" transform="matrix(-1.003304 0 0 1.106728 6021.257345-1043.732299)" fill="none" stroke="#00a2ff" stroke-miterlimit="1"/><path d="M0,2000.344435l400.358095-201.195542l398.92267-3.324355l402.247026-199.461337h402.247026h798.953461" transform="matrix(-1.003304 0 0 1.106728 6021.257345-1033.857481)" fill="none" stroke="#00a2ff" stroke-miterlimit="1"/><path d="M0,2000.344435l400.358095-201.195542l398.92267-3.324355l402.247026-199.461337h402.247026h798.953461" transform="matrix(-1.003304 0 0 1.106728 6021.257345-1053.947982)" fill="none" stroke="#00a2ff" stroke-miterlimit="1"/><path d="M0,2000.344435l400.358095-201.195542l398.92267-3.324355l402.247026-199.461337h402.247026h798.953461" transform="matrix(-1.003304 0 0 1.106728 6021.257345-1083.787026)" fill="none" stroke="#00a2ff" stroke-miterlimit="1"/><path d="M0,2000.344435l400.358095-201.195542l398.92267-3.324355l402.247026-199.461337h402.247026h798.953461" transform="matrix(-1.003304 0 0 1.106728 6021.257345-1073.912208)" fill="none" stroke="#00a2ff" stroke-miterlimit="1"/><path d="M0,2000.344435l400.358095-201.195542l398.92267-3.324355l402.247026-199.461337h402.247026h798.953461" transform="matrix(-1.003304 0 0 1.106728 6021.257345-1094.002709)" fill="none" stroke="#00a2ff" stroke-miterlimit="1"/><path d="M0,2000.344435l400.358095-201.195542l398.92267-3.324355l402.247026-199.461337h402.247026h798.953461" transform="matrix(-1.003304 0 0 1.106728 6021.257345-1113.839841)" fill="none" stroke="#00a2ff" stroke-miterlimit="1"/><path d="M0,2000.344435l400.358095-201.195542l398.92267-3.324355l402.247026-199.461337h402.247026h798.953461" transform="matrix(-1.003304 0 0 1.106728 6021.257345-1103.965023)" fill="none" stroke="#00a2ff" stroke-miterlimit="1"/><path d="M0,2000.344435l400.358095-201.195542l398.92267-3.324355l402.247026-199.461337h402.247026h798.953461" transform="matrix(-1.003304 0 0 1.106728 6021.257345-1124.055524)" fill="none" stroke="#00a2ff" stroke-miterlimit="1"/><path d="M0,2000.344435l400.358095-201.195542l398.92267-3.324355l402.247026-199.461337h402.247026h798.953461" transform="matrix(-1.003304 0 0 1.106728 6021.257345-1153.894568)" fill="none" stroke="#00a2ff" stroke-miterlimit="1"/><path d="M0,2000.344435l400.358095-201.195542l398.92267-3.324355l402.247026-199.461337h402.247026h798.953461" transform="matrix(-1.003304 0 0 1.106728 6021.257345-1144.01975)" fill="none" stroke="#00a2ff" stroke-miterlimit="1"/><path d="M0,2000.344435l400.358095-201.195542l398.92267-3.324355l402.247026-199.461337h402.247026h798.953461" transform="matrix(-1.003304 0 0 1.106728 6021.257345-1164.110251)" fill="none" stroke="#00a2ff" stroke-miterlimit="1"/><path d="M0,2000.344435l400.358095-201.195542l398.92267-3.324355l402.247026-199.461337h402.247026h798.953461" transform="matrix(1 0 0-1.09878-232.962621 3013.973368)" fill="none" stroke="#00a2ff" stroke-miterlimit="1"/><path d="M0,2000.344435l400.358095-201.195542l398.92267-3.324355l402.247026-199.461337h402.247026h798.953461" transform="matrix(1 0 0-1.09878-232.962621 3034.063869)" fill="none" stroke="#00a2ff" stroke-miterlimit="1"/><path d="M0,2000.344435l400.358095-201.195542l398.92267-3.324355l402.247026-199.461337h402.247026h798.953461" transform="matrix(1 0 0-1.09878-232.962621 3043.938687)" fill="none" stroke="#00a2ff" stroke-miterlimit="1"/><path d="M0,2000.344435l400.358095-201.195542l398.92267-3.324355l402.247026-199.461337h402.247026h798.953461" transform="matrix(1 0 0-1.09878-232.962621 3023.848186)" fill="none" stroke="#00a2ff" stroke-miterlimit="1"/><path d="M0,2000.344435l400.358095-201.195542l398.92267-3.324355l402.247026-199.461337h402.247026h798.953461" transform="matrix(1 0 0-1.09878-232.962621 2994.009142)" fill="none" stroke="#00a2ff" stroke-miterlimit="1"/><path d="M0,2000.344435l400.358095-201.195542l398.92267-3.324355l402.247026-199.461337h402.247026h798.953461" transform="matrix(1 0 0-1.09878-232.962621 3003.88396)" fill="none" stroke="#00a2ff" stroke-miterlimit="1"/><path d="M0,2000.344435l400.358095-201.195542l398.92267-3.324355l402.247026-199.461337h402.247026h798.953461" transform="matrix(1 0 0-1.09878-232.962621 2983.793459)" fill="none" stroke="#00a2ff" stroke-miterlimit="1"/><path d="M0,2000.344435l400.358095-201.195542l398.92267-3.324355l402.247026-199.461337h402.247026h798.953461" transform="matrix(1 0 0-1.09878-232.962621 2943.865826)" fill="none" stroke="#00a2ff" stroke-miterlimit="1"/><path d="M0,2000.344435l400.358095-201.195542l398.92267-3.324355l402.247026-199.461337h402.247026h798.953461" transform="matrix(1 0 0-1.09878-232.962621 2963.956327)" fill="none" stroke="#00a2ff" stroke-miterlimit="1"/><path d="M0,2000.344435l400.358095-201.195542l398.92267-3.324355l402.247026-199.461337h402.247026h798.953461" transform="matrix(1 0 0-1.09878-232.962621 2973.831145)" fill="none" stroke="#00a2ff" stroke-miterlimit="1"/><path d="M0,2000.344435l400.358095-201.195542l398.92267-3.324355l402.247026-199.461337h402.247026h798.953461" transform="matrix(1 0 0-1.09878-232.962621 2953.740644)" fill="none" stroke="#00a2ff" stroke-miterlimit="1"/><path d="M0,2000.344435l400.358095-201.195542l398.92267-3.324355l402.247026-199.461337h402.247026h798.953461" transform="matrix(1 0 0-1.09878-232.962621 2923.9016)" fill="none" stroke="#00a2ff" stroke-miterlimit="1"/><path d="M0,2000.344435l400.358095-201.195542l398.92267-3.324355l402.247026-199.461337h402.247026h798.953461" transform="matrix(1 0 0-1.09878-232.962621 2933.776418)" fill="none" stroke="#00a2ff" stroke-miterlimit="1"/><path d="M0,2000.344435l400.358095-201.195542l398.92267-3.324355l402.247026-199.461337h402.247026h798.953461" transform="matrix(1 0 0-1.09878-232.962621 2913.685917)" fill="none" stroke="#00a2ff" stroke-miterlimit="1"/><path d="M0,2000.344435l400.358095-201.195542l398.92267-3.324355l402.247026-199.461337h402.247026h798.953461" transform="matrix(1 0 0-1.09878-232.133993 2863.8172)" fill="none" stroke="#00a2ff" stroke-miterlimit="1"/><path d="M0,2000.344435l400.358095-201.195542l398.92267-3.324355l402.247026-199.461337h402.247026h798.953461" transform="matrix(1 0 0-1.09878-232.133993 2883.907701)" fill="none" stroke="#00a2ff" stroke-miterlimit="1"/><path d="M0,2000.344435l400.358095-201.195542l398.92267-3.324355l402.247026-199.461337h402.247026h798.953461" transform="matrix(1 0 0-1.09878-232.133993 2893.782519)" fill="none" stroke="#00a2ff" stroke-miterlimit="1"/><path d="M0,2000.344435l400.358095-201.195542l398.92267-3.324355l402.247026-199.461337h402.247026h798.953461" transform="matrix(1 0 0-1.09878-232.133993 2873.692018)" fill="none" stroke="#00a2ff" stroke-miterlimit="1"/><path d="M0,2000.344435l400.358095-201.195542l398.92267-3.324355l402.247026-199.461337h402.247026h798.953461" transform="matrix(1 0 0-1.09878-232.133993 2843.852974)" fill="none" stroke="#00a2ff" stroke-miterlimit="1"/><path d="M0,2000.344435l400.358095-201.195542l398.92267-3.324355l402.247026-199.461337h402.247026h798.953461" transform="matrix(1 0 0-1.09878-232.133993 2853.727792)" fill="none" stroke="#00a2ff" stroke-miterlimit="1"/><path d="M0,2000.344435l400.358095-201.195542l398.92267-3.324355l402.247026-199.461337h402.247026h798.953461" transform="matrix(1 0 0-1.09878-232.133993 2833.637291)" fill="none" stroke="#00a2ff" stroke-miterlimit="1"/><path d="M0,2000.344435l400.358095-201.195542l398.92267-3.324355l402.247026-199.461337h402.247026h798.953461" transform="matrix(1 0 0-1.09878-232.133993 2793.709658)" fill="none" stroke="#00a2ff" stroke-miterlimit="1"/><path d="M0,2000.344435l400.358095-201.195542l398.92267-3.324355l402.247026-199.461337h402.247026h798.953461" transform="matrix(1 0 0-1.09878-232.133993 2813.800159)" fill="none" stroke="#00a2ff" stroke-miterlimit="1"/><path d="M0,2000.344435l400.358095-201.195542l398.92267-3.324355l402.247026-199.461337h402.247026h798.953461" transform="matrix(1 0 0-1.09878-232.133993 2823.674977)" fill="none" stroke="#00a2ff" stroke-miterlimit="1"/><path d="M0,2000.344435l400.358095-201.195542l398.92267-3.324355l402.247026-199.461337h402.247026h798.953461" transform="matrix(1 0 0-1.09878-232.133993 2803.584476)" fill="none" stroke="#00a2ff" stroke-miterlimit="1"/><path d="M0,2000.344435l400.358095-201.195542l398.92267-3.324355l402.247026-199.461337h402.247026h798.953461" transform="matrix(1 0 0-1.09878-232.133993 2773.745432)" fill="none" stroke="#00a2ff" stroke-miterlimit="1"/><path d="M0,2000.344435l400.358095-201.195542l398.92267-3.324355l402.247026-199.461337h402.247026h798.953461" transform="matrix(1 0 0-1.09878-232.133993 2783.62025)" fill="none" stroke="#00a2ff" stroke-miterlimit="1"/><path d="M0,2000.344435l400.358095-201.195542l398.92267-3.324355l402.247026-199.461337h402.247026h798.953461" transform="matrix(1 0 0-1.09878-232.133993 2763.529749)" fill="none" stroke="#00a2ff" stroke-miterlimit="1"/><path d="M0,2000.344435l400.358095-201.195542l398.92267-3.324355l402.247026-199.461337h402.247026h798.953461" transform="translate(-.69679-296.558017)" fill="none" stroke="#00a2ff" stroke-miterlimit="1"/><path d="M0,2000.344435l400.358095-201.195542l398.92267-3.324355l402.247026-199.461337h402.247026h798.953461" transform="translate(-1.525418-146.401849)" fill="none" stroke="#00a2ff" stroke-miterlimit="1"/><path d="M0,2000.344435l400.358095-201.195542l398.92267-3.324355l402.247026-199.461337h402.247026h798.953461" transform="translate(-1.525418-36.23958)" fill="none" stroke="#00a2ff" stroke-miterlimit="1"/><path d="M0,2000.344435l400.358095-201.195542l398.92267-3.324355l402.247026-199.461337h402.247026h798.953461" transform="translate(-1.525418-16.149079)" fill="none" stroke="#00a2ff" stroke-miterlimit="1"/><path d="M0,2000.344435l400.358095-201.195542l398.92267-3.324355l402.247026-199.461337h402.247026h798.953461" transform="translate(-1.525418-6.274261)" fill="none" stroke="#00a2ff" stroke-miterlimit="1"/><path d="M0,2000.344435l400.358095-201.195542l398.92267-3.324355l402.247026-199.461337h402.247026h798.953461" transform="translate(-1.525418-26.364762)" fill="none" stroke="#00a2ff" stroke-miterlimit="1"/><path d="M0,2000.344435l400.358095-201.195542l398.92267-3.324355l402.247026-199.461337h402.247026h798.953461" transform="translate(-1.525418-56.203806)" fill="none" stroke="#00a2ff" stroke-miterlimit="1"/><path d="M0,2000.344435l400.358095-201.195542l398.92267-3.324355l402.247026-199.461337h402.247026h798.953461" transform="translate(-1.525418-46.328988)" fill="none" stroke="#00a2ff" stroke-miterlimit="1"/><path d="M0,2000.344435l400.358095-201.195542l398.92267-3.324355l402.247026-199.461337h402.247026h798.953461" transform="translate(-1.525418-66.419489)" fill="none" stroke="#00a2ff" stroke-miterlimit="1"/><path d="M0,2000.344435l400.358095-201.195542l398.92267-3.324355l402.247026-199.461337h402.247026h798.953461" transform="translate(-1.525418-106.347122)" fill="none" stroke="#00a2ff" stroke-miterlimit="1"/><path d="M0,2000.344435l400.358095-201.195542l398.92267-3.324355l402.247026-199.461337h402.247026h798.953461" transform="translate(-1.525418-86.256621)" fill="none" stroke="#00a2ff" stroke-miterlimit="1"/><path d="M0,2000.344435l400.358095-201.195542l398.92267-3.324355l402.247026-199.461337h402.247026h798.953461" transform="translate(-1.525418-76.381803)" fill="none" stroke="#00a2ff" stroke-miterlimit="1"/><path d="M0,2000.344435l400.358095-201.195542l398.92267-3.324355l402.247026-199.461337h402.247026h798.953461" transform="translate(-1.525418-96.472304)" fill="none" stroke="#00a2ff" stroke-miterlimit="1"/><path d="M0,2000.344435l400.358095-201.195542l398.92267-3.324355l402.247026-199.461337h402.247026h798.953461" transform="translate(-1.525418-126.311348)" fill="none" stroke="#00a2ff" stroke-miterlimit="1"/><path d="M0,2000.344435l400.358095-201.195542l398.92267-3.324355l402.247026-199.461337h402.247026h798.953461" transform="translate(-1.525418-116.43653)" fill="none" stroke="#00a2ff" stroke-miterlimit="1"/><path d="M0,2000.344435l400.358095-201.195542l398.92267-3.324355l402.247026-199.461337h402.247026h798.953461" transform="translate(-1.525418-136.527031)" fill="none" stroke="#00a2ff" stroke-miterlimit="1"/><path d="M0,2000.344435l400.358095-201.195542l398.92267-3.324355l402.247026-199.461337h402.247026h798.953461" transform="translate(-.69679-186.395748)" fill="none" stroke="#00a2ff" stroke-miterlimit="1"/><path d="M0,2000.344435l400.358095-201.195542l398.92267-3.324355l402.247026-199.461337h402.247026h798.953461" transform="translate(-.69679-166.305247)" fill="none" stroke="#00a2ff" stroke-miterlimit="1"/><path d="M0,2000.344435l400.358095-201.195542l398.92267-3.324355l402.247026-199.461337h402.247026h798.953461" transform="translate(-.69679-156.430429)" fill="none" stroke="#00a2ff" stroke-miterlimit="1"/><path d="M0,2000.344435l400.358095-201.195542l398.92267-3.324355l402.247026-199.461337h402.247026h798.953461" transform="translate(-.69679-176.52093)" fill="none" stroke="#00a2ff" stroke-miterlimit="1"/><path d="M0,2000.344435l400.358095-201.195542l398.92267-3.324355l402.247026-199.461337h402.247026h798.953461" transform="translate(-.69679-206.359974)" fill="none" stroke="#00a2ff" stroke-miterlimit="1"/><path d="M0,2000.344435l400.358095-201.195542l398.92267-3.324355l402.247026-199.461337h402.247026h798.953461" transform="translate(-.69679-196.485156)" fill="none" stroke="#00a2ff" stroke-miterlimit="1"/><path d="M0,2000.344435l400.358095-201.195542l398.92267-3.324355l402.247026-199.461337h402.247026h798.953461" transform="translate(-.69679-216.575657)" fill="none" stroke="#00a2ff" stroke-miterlimit="1"/><path d="M0,2000.344435l400.358095-201.195542l398.92267-3.324355l402.247026-199.461337h402.247026h798.953461" transform="translate(-.69679-256.50329)" fill="none" stroke="#00a2ff" stroke-miterlimit="1"/><path d="M0,2000.344435l400.358095-201.195542l398.92267-3.324355l402.247026-199.461337h402.247026h798.953461" transform="translate(-.69679-236.412789)" fill="none" stroke="#00a2ff" stroke-miterlimit="1"/><path d="M0,2000.344435l400.358095-201.195542l398.92267-3.324355l402.247026-199.461337h402.247026h798.953461" transform="translate(-.69679-226.537971)" fill="none" stroke="#00a2ff" stroke-miterlimit="1"/><path d="M0,2000.344435l400.358095-201.195542l398.92267-3.324355l402.247026-199.461337h402.247026h798.953461" transform="translate(-.69679-246.628472)" fill="none" stroke="#00a2ff" stroke-miterlimit="1"/><path d="M0,2000.344435l400.358095-201.195542l398.92267-3.324355l402.247026-199.461337h402.247026h798.953461" transform="translate(-.69679-276.467516)" fill="none" stroke="#00a2ff" stroke-miterlimit="1"/><path d="M0,2000.344435l400.358095-201.195542l398.92267-3.324355l402.247026-199.461337h402.247026h798.953461" transform="translate(-.69679-266.592698)" fill="none" stroke="#00a2ff" stroke-miterlimit="1"/><path d="M0,2000.344435l400.358095-201.195542l398.92267-3.324355l402.247026-199.461337h402.247026h798.953461" transform="translate(-.69679-286.683199)" fill="none" stroke="#00a2ff" stroke-miterlimit="1"/><path d="M0,2000.344435l400.358095-201.195542l398.92267-3.324355l402.247026-199.461337h402.247026h798.953461" transform="translate(-.828628 153.776936)" fill="none" stroke="#00a2ff" stroke-miterlimit="1"/><path d="M0,2000.344435l400.358095-201.195542l398.92267-3.324355l402.247026-199.461337h402.247026h798.953461" transform="matrix(-1 0 0 1 3839.171372 153.776936)" fill="none" stroke="#00a2ff" stroke-miterlimit="1"/><path d="M0,2000.344435l400.358095-201.195542l398.92267-3.324355l402.247026-199.461337h402.247026h798.953461" transform="matrix(-1.003304 0 0-1.007234 3610.631274 3057.880678)" fill="none" stroke="#00a2ff" stroke-miterlimit="1"/><path d="M0,2000.344435l400.358095-201.195542l398.92267-3.324355l402.247026-199.461337h402.247026h798.953461" transform="matrix(-1.003304 0 0-1.007234 3610.631274 3057.880678)" fill="none" stroke="#00a2ff" stroke-miterlimit="1"/><path d="M0,2000.344435l400.358095-201.195542l398.92267-3.324355l402.247026-199.461337h402.247026h798.953461" transform="matrix(-1.003304 0 0-1.007234 3610.631274 3097.935405)" fill="none" stroke="#00a2ff" stroke-miterlimit="1"/><path d="M0,2000.344435l400.358095-201.195542l398.92267-3.324355l402.247026-199.461337h402.247026h798.953461" transform="matrix(-1.003304 0 0-1.007234 3610.631274 3168.042947)" fill="none" stroke="#00a2ff" stroke-miterlimit="1"/><path d="M0,2000.344435l400.358095-201.195542l398.92267-3.324355l402.247026-199.461337h402.247026h798.953461" transform="matrix(-1.003304 0 0-1.007234 3610.631274 3188.133448)" fill="none" stroke="#00a2ff" stroke-miterlimit="1"/><path d="M0,2000.344435l400.358095-201.195542l398.92267-3.324355l402.247026-199.461337h402.247026h798.953461" transform="matrix(-1.003304 0 0-1.007234 3610.631274 3198.008266)" fill="none" stroke="#00a2ff" stroke-miterlimit="1"/><path d="M0,2000.344435l400.358095-201.195542l398.92267-3.324355l402.247026-199.461337h402.247026h798.953461" transform="matrix(-1.003304 0 0-1.007234 3610.631274 3177.917765)" fill="none" stroke="#00a2ff" stroke-miterlimit="1"/><path d="M0,2000.344435l400.358095-201.195542l398.92267-3.324355l402.247026-199.461337h402.247026h798.953461" transform="matrix(-1.003304 0 0-1.007234 3610.631274 3148.078721)" fill="none" stroke="#00a2ff" stroke-miterlimit="1"/><path d="M0,2000.344435l400.358095-201.195542l398.92267-3.324355l402.247026-199.461337h402.247026h798.953461" transform="matrix(-1.003304 0 0-1.007234 3610.631274 3157.953539)" fill="none" stroke="#00a2ff" stroke-miterlimit="1"/><path d="M0,2000.344435l400.358095-201.195542l398.92267-3.324355l402.247026-199.461337h402.247026h798.953461" transform="matrix(-1.003304 0 0-1.007234 3610.631274 3137.863038)" fill="none" stroke="#00a2ff" stroke-miterlimit="1"/><path d="M0,2000.344435l400.358095-201.195542l398.92267-3.324355l402.247026-199.461337h402.247026h798.953461" transform="matrix(-1.003304 0 0-1.007234 3610.631274 3118.025906)" fill="none" stroke="#00a2ff" stroke-miterlimit="1"/><path d="M0,2000.344435l400.358095-201.195542l398.92267-3.324355l402.247026-199.461337h402.247026h798.953461" transform="matrix(-1.003304 0 0-1.007234 3610.631274 3127.900724)" fill="none" stroke="#00a2ff" stroke-miterlimit="1"/><path d="M0,2000.344435l400.358095-201.195542l398.92267-3.324355l402.247026-199.461337h402.247026h798.953461" transform="matrix(-1.003304 0 0-1.007234 3610.631274 3107.810223)" fill="none" stroke="#00a2ff" stroke-miterlimit="1"/><path d="M0,2000.344435l400.358095-201.195542l398.92267-3.324355l402.247026-199.461337h402.247026h798.953461" transform="matrix(-1.003304 0 0-1.007234 3610.631274 3077.971179)" fill="none" stroke="#00a2ff" stroke-miterlimit="1"/><path d="M0,2000.344435l400.358095-201.195542l398.92267-3.324355l402.247026-199.461337h402.247026h798.953461" transform="matrix(-1.003304 0 0-1.007234 3610.631274 3087.845997)" fill="none" stroke="#00a2ff" stroke-miterlimit="1"/><path d="M0,2000.344435l400.358095-201.195542l398.92267-3.324355l402.247026-199.461337h402.247026h798.953461" transform="matrix(-1.003304 0 0-1.007234 3610.631274 3067.755496)" fill="none" stroke="#00a2ff" stroke-miterlimit="1"/><path d="M0,2000.344435l400.358095-201.195542l398.92267-3.324355l402.247026-199.461337h402.247026h798.953461" transform="matrix(-1.003304 0 0-1.007234 3611.459902 2907.72451)" fill="none" stroke="#00a2ff" stroke-miterlimit="1"/><path d="M0,2000.344435l400.358095-201.195542l398.92267-3.324355l402.247026-199.461337h402.247026h798.953461" transform="matrix(-1.003304 0 0-1.007234 3611.459902 2947.779237)" fill="none" stroke="#00a2ff" stroke-miterlimit="1"/><path d="M0,2000.344435l400.358095-201.195542l398.92267-3.324355l402.247026-199.461337h402.247026h798.953461" transform="matrix(-1.003304 0 0-1.007234 3611.459902 3017.886779)" fill="none" stroke="#00a2ff" stroke-miterlimit="1"/><path d="M0,2000.344435l400.358095-201.195542l398.92267-3.324355l402.247026-199.461337h402.247026h798.953461" transform="matrix(-1.003304 0 0-1.007234 3611.459902 3037.97728)" fill="none" stroke="#00a2ff" stroke-miterlimit="1"/><path d="M0,2000.344435l400.358095-201.195542l398.92267-3.324355l402.247026-199.461337h402.247026h798.953461" transform="matrix(-1.003304 0 0-1.007234 3611.459902 3047.852098)" fill="none" stroke="#00a2ff" stroke-miterlimit="1"/><path d="M0,2000.344435l400.358095-201.195542l398.92267-3.324355l402.247026-199.461337h402.247026h798.953461" transform="matrix(-1.003304 0 0-1.007234 3611.459902 3027.761597)" fill="none" stroke="#00a2ff" stroke-miterlimit="1"/><path d="M0,2000.344435l400.358095-201.195542l398.92267-3.324355l402.247026-199.461337h402.247026h798.953461" transform="matrix(-1.003304 0 0-1.007234 3611.459902 2997.922553)" fill="none" stroke="#00a2ff" stroke-miterlimit="1"/><path d="M0,2000.344435l400.358095-201.195542l398.92267-3.324355l402.247026-199.461337h402.247026h798.953461" transform="matrix(-1.003304 0 0-1.007234 3611.459902 3007.797371)" fill="none" stroke="#00a2ff" stroke-miterlimit="1"/><path d="M0,2000.344435l400.358095-201.195542l398.92267-3.324355l402.247026-199.461337h402.247026h798.953461" transform="matrix(-1.003304 0 0-1.007234 3611.459902 2987.70687)" fill="none" stroke="#00a2ff" stroke-miterlimit="1"/><path d="M0,2000.344435l400.358095-201.195542l398.92267-3.324355l402.247026-199.461337h402.247026h798.953461" transform="matrix(-1.003304 0 0-1.007234 3611.459902 2967.869738)" fill="none" stroke="#00a2ff" stroke-miterlimit="1"/><path d="M0,2000.344435l400.358095-201.195542l398.92267-3.324355l402.247026-199.461337h402.247026h798.953461" transform="matrix(-1.003304 0 0-1.007234 3611.459902 2977.744556)" fill="none" stroke="#00a2ff" stroke-miterlimit="1"/><path d="M0,2000.344435l400.358095-201.195542l398.92267-3.324355l402.247026-199.461337h402.247026h798.953461" transform="matrix(-1.003304 0 0-1.007234 3611.459902 2957.654055)" fill="none" stroke="#00a2ff" stroke-miterlimit="1"/><path d="M0,2000.344435l400.358095-201.195542l398.92267-3.324355l402.247026-199.461337h402.247026h798.953461" transform="matrix(-1.003304 0 0-1.007234 3611.459902 2927.815011)" fill="none" stroke="#00a2ff" stroke-miterlimit="1"/><path d="M0,2000.344435l400.358095-201.195542l398.92267-3.324355l402.247026-199.461337h402.247026h798.953461" transform="matrix(-1.003304 0 0-1.007234 3611.459902 2937.689829)" fill="none" stroke="#00a2ff" stroke-miterlimit="1"/><path d="M0,2000.344435l400.358095-201.195542l398.92267-3.324355l402.247026-199.461337h402.247026h798.953461" transform="matrix(-1.003304 0 0-1.007234 3611.459902 2917.599328)" fill="none" stroke="#00a2ff" stroke-miterlimit="1"/><ellipse rx="2.5" ry="2.5" transform="translate(3613.908286 891.396148)" fill="none" stroke="#00a2ff"/><ellipse rx="2.5" ry="2.5" transform="translate(3612.712209 1041.396437)" fill="none" stroke="#00a2ff"/><ellipse rx="2.5" ry="2.5" transform="translate(3612.84797 1081.989102)" fill="none" stroke="#00a2ff"/><ellipse rx="2.5" ry="2.5" transform="translate(3612.84797 1102.579521)" fill="none" stroke="#00a2ff"/><ellipse rx="2.5" ry="2.5" transform="translate(3612.84797 1112.262925)" fill="none" stroke="#00a2ff"/><ellipse rx="2.5" ry="2.5" transform="translate(3612.84797 1091.672506)" fill="none" stroke="#00a2ff"/><ellipse rx="2.5" ry="2.5" transform="translate(3612.712209 1061.986856)" fill="none" stroke="#00a2ff"/><ellipse rx="2.5" ry="2.5" transform="translate(3612.712209 1071.67026)" fill="none" stroke="#00a2ff"/><ellipse rx="2.5" ry="2.5" transform="translate(3612.712209 1051.079841)" fill="none" stroke="#00a2ff"/><ellipse rx="2.5" ry="2.5" transform="translate(3613.119359 1122.215776)" fill="none" stroke="#00a2ff"/><ellipse rx="2.5" ry="2.5" transform="translate(3613.25512 1162.808441)" fill="none" stroke="#00a2ff"/><ellipse rx="2.5" ry="2.5" transform="translate(3613.25512 1172.491845)" fill="none" stroke="#00a2ff"/><ellipse rx="2.5" ry="2.5" transform="translate(3613.119359 1142.806195)" fill="none" stroke="#00a2ff"/><ellipse rx="2.5" ry="2.5" transform="translate(3613.119359 1152.489599)" fill="none" stroke="#00a2ff"/><ellipse rx="2.5" ry="2.5" transform="translate(3613.119359 1131.89918)" fill="none" stroke="#00a2ff"/><ellipse rx="2.5" ry="2.5" transform="translate(3612.84797 1081.989102)" fill="none" stroke="#00a2ff"/><ellipse rx="2.5" ry="2.5" transform="translate(3612.84797 1102.579521)" fill="none" stroke="#00a2ff"/><ellipse rx="2.5" ry="2.5" transform="translate(3612.84797 1112.262925)" fill="none" stroke="#00a2ff"/><ellipse rx="2.5" ry="2.5" transform="translate(3612.84797 1091.672506)" fill="none" stroke="#00a2ff"/><ellipse rx="2.5" ry="2.5" transform="translate(3612.712209 1061.986856)" fill="none" stroke="#00a2ff"/><ellipse rx="2.5" ry="2.5" transform="translate(3612.712209 1071.67026)" fill="none" stroke="#00a2ff"/><ellipse rx="2.5" ry="2.5" transform="translate(3612.712209 1051.079841)" fill="none" stroke="#00a2ff"/><ellipse rx="2.5" ry="2.5" transform="translate(3613.119359 1122.215776)" fill="none" stroke="#00a2ff"/><ellipse rx="2.5" ry="2.5" transform="translate(3613.25512 1162.808441)" fill="none" stroke="#00a2ff"/><ellipse rx="2.5" ry="2.5" transform="translate(3612.645409 1181.934827)" fill="none" stroke="#00a2ff"/><ellipse rx="2.5" ry="2.5" transform="translate(3613.25512 1172.491845)" fill="none" stroke="#00a2ff"/><ellipse rx="2.5" ry="2.5" transform="translate(3613.119359 1142.806195)" fill="none" stroke="#00a2ff"/><ellipse rx="2.5" ry="2.5" transform="translate(3613.119359 1152.489599)" fill="none" stroke="#00a2ff"/><ellipse rx="2.5" ry="2.5" transform="translate(3613.119359 1131.89918)" fill="none" stroke="#00a2ff"/><ellipse rx="2.5" ry="2.5" transform="translate(3613.908286 891.396148)" fill="none" stroke="#00a2ff"/><ellipse rx="2.5" ry="2.5" transform="translate(3614.044047 931.988813)" fill="none" stroke="#00a2ff"/><ellipse rx="2.5" ry="2.5" transform="translate(3614.044047 952.579232)" fill="none" stroke="#00a2ff"/><ellipse rx="2.5" ry="2.5" transform="translate(3614.044047 962.262636)" fill="none" stroke="#00a2ff"/><ellipse rx="2.5" ry="2.5" transform="translate(3614.044047 941.672217)" fill="none" stroke="#00a2ff"/><ellipse rx="2.5" ry="2.5" transform="translate(3613.908286 911.986567)" fill="none" stroke="#00a2ff"/><ellipse rx="2.5" ry="2.5" transform="translate(3613.908286 921.669971)" fill="none" stroke="#00a2ff"/><ellipse rx="2.5" ry="2.5" transform="translate(3613.908286 901.079552)" fill="none" stroke="#00a2ff"/><ellipse rx="2.5" ry="2.5" transform="translate(3614.315436 972.215487)" fill="none" stroke="#00a2ff"/><ellipse rx="2.5" ry="2.5" transform="translate(3614.451197 1012.808152)" fill="none" stroke="#00a2ff"/><ellipse rx="2.5" ry="2.5" transform="translate(3614.451197 1022.491556)" fill="none" stroke="#00a2ff"/><ellipse rx="2.5" ry="2.5" transform="translate(3614.315436 992.805906)" fill="none" stroke="#00a2ff"/><ellipse rx="2.5" ry="2.5" transform="translate(3614.315436 1002.48931)" fill="none" stroke="#00a2ff"/><ellipse rx="2.5" ry="2.5" transform="translate(3614.315436 981.898891)" fill="none" stroke="#00a2ff"/><ellipse rx="2.5" ry="2.5" transform="translate(3614.044047 931.988813)" fill="none" stroke="#00a2ff"/><ellipse rx="2.5" ry="2.5" transform="translate(3614.044047 952.579232)" fill="none" stroke="#00a2ff"/><ellipse rx="2.5" ry="2.5" transform="translate(3614.044047 962.262636)" fill="none" stroke="#00a2ff"/><ellipse rx="2.5" ry="2.5" transform="translate(3614.044047 941.672217)" fill="none" stroke="#00a2ff"/><ellipse rx="2.5" ry="2.5" transform="translate(3613.908286 911.986567)" fill="none" stroke="#00a2ff"/><ellipse rx="2.5" ry="2.5" transform="translate(3613.908286 921.669971)" fill="none" stroke="#00a2ff"/><ellipse rx="2.5" ry="2.5" transform="translate(3613.908286 901.079552)" fill="none" stroke="#00a2ff"/><ellipse rx="2.5" ry="2.5" transform="translate(3614.315436 972.215487)" fill="none" stroke="#00a2ff"/><ellipse rx="2.5" ry="2.5" transform="translate(3614.451197 1012.808152)" fill="none" stroke="#00a2ff"/><ellipse rx="2.5" ry="2.5" transform="translate(3613.841486 1031.934538)" fill="none" stroke="#00a2ff"/><ellipse rx="2.5" ry="2.5" transform="translate(3614.451197 1022.491556)" fill="none" stroke="#00a2ff"/><ellipse rx="2.5" ry="2.5" transform="translate(3614.315436 992.805906)" fill="none" stroke="#00a2ff"/><ellipse rx="2.5" ry="2.5" transform="translate(3614.315436 1002.48931)" fill="none" stroke="#00a2ff"/><ellipse rx="2.5" ry="2.5" transform="translate(3614.315436 981.898891)" fill="none" stroke="#00a2ff"/><path d="M0,2000.344435l400.358095-201.195542l398.92267-3.324355l402.247026-199.461337h402.247026h798.953461" transform="matrix(-1.003304 0 0-1.007234 3610.631274 3097.935405)" fill="none" stroke="#00a2ff" stroke-miterlimit="1"/><path d="M0,2000.344435l400.358095-201.195542l398.92267-3.324355l402.247026-199.461337h402.247026h798.953461" transform="matrix(-1.003304 0 0-1.007234 3610.631274 3168.042947)" fill="none" stroke="#00a2ff" stroke-miterlimit="1"/><path d="M0,2000.344435l400.358095-201.195542l398.92267-3.324355l402.247026-199.461337h402.247026h798.953461" transform="matrix(-1.003304 0 0-1.007234 3610.631274 3188.133448)" fill="none" stroke="#00a2ff" stroke-miterlimit="1"/><path d="M0,2000.344435l400.358095-201.195542l398.92267-3.324355l402.247026-199.461337h402.247026h798.953461" transform="matrix(-1.003304 0 0-1.007234 3610.631274 3198.008266)" fill="none" stroke="#00a2ff" stroke-miterlimit="1"/><path d="M0,2000.344435l400.358095-201.195542l398.92267-3.324355l402.247026-199.461337h402.247026h798.953461" transform="matrix(-1.003304 0 0-1.007234 3610.631274 3177.917765)" fill="none" stroke="#00a2ff" stroke-miterlimit="1"/><path d="M0,2000.344435l400.358095-201.195542l398.92267-3.324355l402.247026-199.461337h402.247026h798.953461" transform="matrix(-1.003304 0 0-1.007234 3610.631274 3148.078721)" fill="none" stroke="#00a2ff" stroke-miterlimit="1"/><path d="M0,2000.344435l400.358095-201.195542l398.92267-3.324355l402.247026-199.461337h402.247026h798.953461" transform="matrix(-1.003304 0 0-1.007234 3610.631274 3157.953539)" fill="none" stroke="#00a2ff" stroke-miterlimit="1"/><path d="M0,2000.344435l400.358095-201.195542l398.92267-3.324355l402.247026-199.461337h402.247026h798.953461" transform="matrix(-1.003304 0 0-1.007234 3610.631274 3137.863038)" fill="none" stroke="#00a2ff" stroke-miterlimit="1"/><path d="M0,2000.344435l400.358095-201.195542l398.92267-3.324355l402.247026-199.461337h402.247026h798.953461" transform="matrix(-1.003304 0 0-1.007234 3610.631274 3118.025906)" fill="none" stroke="#00a2ff" stroke-miterlimit="1"/><path d="M0,2000.344435l400.358095-201.195542l398.92267-3.324355l402.247026-199.461337h402.247026h798.953461" transform="matrix(-1.003304 0 0-1.007234 3610.631274 3127.900724)" fill="none" stroke="#00a2ff" stroke-miterlimit="1"/><path d="M0,2000.344435l400.358095-201.195542l398.92267-3.324355l402.247026-199.461337h402.247026h798.953461" transform="matrix(-1.003304 0 0-1.007234 3610.631274 3107.810223)" fill="none" stroke="#00a2ff" stroke-miterlimit="1"/><path d="M0,2000.344435l400.358095-201.195542l398.92267-3.324355l402.247026-199.461337h402.247026h798.953461" transform="matrix(-1.003304 0 0-1.007234 3610.631274 3077.971179)" fill="none" stroke="#00a2ff" stroke-miterlimit="1"/><path d="M0,2000.344435l400.358095-201.195542l398.92267-3.324355l402.247026-199.461337h402.247026h798.953461" transform="matrix(-1.003304 0 0-1.007234 3610.631274 3087.845997)" fill="none" stroke="#00a2ff" stroke-miterlimit="1"/><path d="M0,2000.344435l400.358095-201.195542l398.92267-3.324355l402.247026-199.461337h402.247026h798.953461" transform="matrix(-1.003304 0 0-1.007234 3610.631274 3067.755496)" fill="none" stroke="#00a2ff" stroke-miterlimit="1"/><path d="M0,2000.344435l400.358095-201.195542l398.92267-3.324355l402.247026-199.461337h402.247026h798.953461" transform="matrix(-1.003304 0 0-1.007234 3611.459902 2907.72451)" fill="none" stroke="#00a2ff" stroke-miterlimit="1"/><path d="M0,2000.344435l400.358095-201.195542l398.92267-3.324355l402.247026-199.461337h402.247026h798.953461" transform="matrix(-1.003304 0 0-1.007234 3611.459902 2947.779237)" fill="none" stroke="#00a2ff" stroke-miterlimit="1"/><path d="M0,2000.344435l400.358095-201.195542l398.92267-3.324355l402.247026-199.461337h402.247026h798.953461" transform="matrix(-1.003304 0 0-1.007234 3611.459902 3017.886779)" fill="none" stroke="#00a2ff" stroke-miterlimit="1"/><path d="M0,2000.344435l400.358095-201.195542l398.92267-3.324355l402.247026-199.461337h402.247026h798.953461" transform="matrix(-1.003304 0 0-1.007234 3611.459902 3037.97728)" fill="none" stroke="#00a2ff" stroke-miterlimit="1"/><path d="M0,2000.344435l400.358095-201.195542l398.92267-3.324355l402.247026-199.461337h402.247026h798.953461" transform="matrix(-1.003304 0 0-1.007234 3611.459902 3047.852098)" fill="none" stroke="#00a2ff" stroke-miterlimit="1"/><path d="M0,2000.344435l400.358095-201.195542l398.92267-3.324355l402.247026-199.461337h402.247026h798.953461" transform="matrix(-1.003304 0 0-1.007234 3611.459902 3027.761597)" fill="none" stroke="#00a2ff" stroke-miterlimit="1"/><path d="M0,2000.344435l400.358095-201.195542l398.92267-3.324355l402.247026-199.461337h402.247026h798.953461" transform="matrix(-1.003304 0 0-1.007234 3611.459902 2997.922553)" fill="none" stroke="#00a2ff" stroke-miterlimit="1"/><path d="M0,2000.344435l400.358095-201.195542l398.92267-3.324355l402.247026-199.461337h402.247026h798.953461" transform="matrix(-1.003304 0 0-1.007234 3611.459902 3007.797371)" fill="none" stroke="#00a2ff" stroke-miterlimit="1"/><path d="M0,2000.344435l400.358095-201.195542l398.92267-3.324355l402.247026-199.461337h402.247026h798.953461" transform="matrix(-1.003304 0 0-1.007234 3611.459902 2987.70687)" fill="none" stroke="#00a2ff" stroke-miterlimit="1"/><path d="M0,2000.344435l400.358095-201.195542l398.92267-3.324355l402.247026-199.461337h402.247026h798.953461" transform="matrix(-1.003304 0 0-1.007234 3611.459902 2967.869738)" fill="none" stroke="#00a2ff" stroke-miterlimit="1"/><path d="M0,2000.344435l400.358095-201.195542l398.92267-3.324355l402.247026-199.461337h402.247026h798.953461" transform="matrix(-1.003304 0 0-1.007234 3611.459902 2977.744556)" fill="none" stroke="#00a2ff" stroke-miterlimit="1"/><path d="M0,2000.344435l400.358095-201.195542l398.92267-3.324355l402.247026-199.461337h402.247026h798.953461" transform="matrix(-1.003304 0 0-1.007234 3611.459902 2957.654055)" fill="none" stroke="#00a2ff" stroke-miterlimit="1"/><path d="M0,2000.344435l400.358095-201.195542l398.92267-3.324355l402.247026-199.461337h402.247026h798.953461" transform="matrix(-1.003304 0 0-1.007234 3611.459902 2927.815011)" fill="none" stroke="#00a2ff" stroke-miterlimit="1"/><path d="M0,2000.344435l400.358095-201.195542l398.92267-3.324355l402.247026-199.461337h402.247026h798.953461" transform="matrix(-1.003304 0 0-1.007234 3611.459902 2937.689829)" fill="none" stroke="#00a2ff" stroke-miterlimit="1"/><path d="M0,2000.344435l400.358095-201.195542l398.92267-3.324355l402.247026-199.461337h402.247026h798.953461" transform="matrix(-1.003304 0 0-1.007234 3611.459902 2917.599328)" fill="none" stroke="#00a2ff" stroke-miterlimit="1"/><path d="M0,2000.344435l400.358095-201.195542l398.92267-3.324355l402.247026-199.461337h402.247026h798.953461" transform="matrix(-1 0 0 1 3839.171372 193.831663)" fill="none" stroke="#00a2ff" stroke-miterlimit="1"/><path d="M0,2000.344435l400.358095-201.195542l398.92267-3.324355l402.247026-199.461337h402.247026h798.953461" transform="matrix(-1 0 0 1 3839.171372 263.939205)" fill="none" stroke="#00a2ff" stroke-miterlimit="1"/><path d="M0,2000.344435l400.358095-201.195542l398.92267-3.324355l402.247026-199.461337h402.247026h798.953461" transform="matrix(-1 0 0 1 3839.171372 284.029706)" fill="none" stroke="#00a2ff" stroke-miterlimit="1"/><path d="M0,2000.344435l400.358095-201.195542l398.92267-3.324355l402.247026-199.461337h402.247026h798.953461" transform="matrix(-1 0 0 1 3839.171372 293.904524)" fill="none" stroke="#00a2ff" stroke-miterlimit="1"/><path d="M0,2000.344435l400.358095-201.195542l398.92267-3.324355l402.247026-199.461337h402.247026h798.953461" transform="matrix(-1 0 0 1 3839.171372 273.814023)" fill="none" stroke="#00a2ff" stroke-miterlimit="1"/><path d="M0,2000.344435l400.358095-201.195542l398.92267-3.324355l402.247026-199.461337h402.247026h798.953461" transform="matrix(-1 0 0 1 3839.171372 243.974979)" fill="none" stroke="#00a2ff" stroke-miterlimit="1"/><path d="M0,2000.344435l400.358095-201.195542l398.92267-3.324355l402.247026-199.461337h402.247026h798.953461" transform="matrix(-1 0 0 1 3839.171372 253.849797)" fill="none" stroke="#00a2ff" stroke-miterlimit="1"/><path d="M0,2000.344435l400.358095-201.195542l398.92267-3.324355l402.247026-199.461337h402.247026h798.953461" transform="matrix(-1 0 0 1 3839.171372 233.759296)" fill="none" stroke="#00a2ff" stroke-miterlimit="1"/><path d="M0,2000.344435l400.358095-201.195542l398.92267-3.324355l402.247026-199.461337h402.247026h798.953461" transform="translate(-.828628 263.939205)" fill="none" stroke="#00a2ff" stroke-miterlimit="1"/><path d="M0,2000.344435l400.358095-201.195542l398.92267-3.324355l402.247026-199.461337h402.247026h798.953461" transform="translate(-.828628 284.029706)" fill="none" stroke="#00a2ff" stroke-miterlimit="1"/><path d="M0,2000.344435l400.358095-201.195542l398.92267-3.324355l402.247026-199.461337h402.247026h798.953461" transform="translate(-.828628 293.904524)" fill="none" stroke="#00a2ff" stroke-miterlimit="1"/><path d="M0,2000.344435l400.358095-201.195542l398.92267-3.324355l402.247026-199.461337h402.247026h798.953461" transform="translate(-.828628 273.814023)" fill="none" stroke="#00a2ff" stroke-miterlimit="1"/><path d="M0,2000.344435l400.358095-201.195542l398.92267-3.324355l402.247026-199.461337h402.247026h798.953461" transform="translate(-.828628 243.974979)" fill="none" stroke="#00a2ff" stroke-miterlimit="1"/><path d="M0,2000.344435l400.358095-201.195542l398.92267-3.324355l402.247026-199.461337h402.247026h798.953461" transform="translate(-.828628 253.849797)" fill="none" stroke="#00a2ff" stroke-miterlimit="1"/><path d="M0,2000.344435l400.358095-201.195542l398.92267-3.324355l402.247026-199.461337h402.247026h798.953461" transform="translate(-.828628 233.759296)" fill="none" stroke="#00a2ff" stroke-miterlimit="1"/><path d="M0,2000.344435l400.358095-201.195542l398.92267-3.324355l402.247026-199.461337h402.247026h798.953461" transform="matrix(-1 0 0 1 3839.171372 213.922164)" fill="none" stroke="#00a2ff" stroke-miterlimit="1"/><path d="M0,2000.344435l400.358095-201.195542l398.92267-3.324355l402.247026-199.461337h402.247026h798.953461" transform="matrix(-1 0 0 1 3839.171372 223.796982)" fill="none" stroke="#00a2ff" stroke-miterlimit="1"/><path d="M0,2000.344435l400.358095-201.195542l398.92267-3.324355l402.247026-199.461337h402.247026h798.953461" transform="matrix(-1 0 0 1 3839.171372 203.706481)" fill="none" stroke="#00a2ff" stroke-miterlimit="1"/><path d="M0,2000.344435l400.358095-201.195542l398.92267-3.324355l402.247026-199.461337h402.247026h798.953461" transform="matrix(-1 0 0 1 3839.171372 173.867437)" fill="none" stroke="#00a2ff" stroke-miterlimit="1"/><path d="M0,2000.344435l400.358095-201.195542l398.92267-3.324355l402.247026-199.461337h402.247026h798.953461" transform="matrix(-1 0 0 1 3839.171372 183.742255)" fill="none" stroke="#00a2ff" stroke-miterlimit="1"/><path d="M0,2000.344435l400.358095-201.195542l398.92267-3.324355l402.247026-199.461337h402.247026h798.953461" transform="matrix(-1 0 0 1 3839.171372 163.651754)" fill="none" stroke="#00a2ff" stroke-miterlimit="1"/><path d="M0,2000.344435l400.358095-201.195542l398.92267-3.324355l402.247026-199.461337h402.247026h798.953461" transform="translate(-.828628 193.831663)" fill="none" stroke="#00a2ff" stroke-miterlimit="1"/><path d="M0,2000.344435l400.358095-201.195542l398.92267-3.324355l402.247026-199.461337h402.247026h798.953461" transform="translate(-.828628 213.922164)" fill="none" stroke="#00a2ff" stroke-miterlimit="1"/><path d="M0,2000.344435l400.358095-201.195542l398.92267-3.324355l402.247026-199.461337h402.247026h798.953461" transform="translate(-.828628 223.796982)" fill="none" stroke="#00a2ff" stroke-miterlimit="1"/><path d="M0,2000.344435l400.358095-201.195542l398.92267-3.324355l402.247026-199.461337h402.247026h798.953461" transform="translate(-.828628 203.706481)" fill="none" stroke="#00a2ff" stroke-miterlimit="1"/><path d="M0,2000.344435l400.358095-201.195542l398.92267-3.324355l402.247026-199.461337h402.247026h798.953461" transform="translate(-.828628 173.867437)" fill="none" stroke="#00a2ff" stroke-miterlimit="1"/><path d="M0,2000.344435l400.358095-201.195542l398.92267-3.324355l402.247026-199.461337h402.247026h798.953461" transform="translate(-.828628 183.742255)" fill="none" stroke="#00a2ff" stroke-miterlimit="1"/><path d="M0,2000.344435l400.358095-201.195542l398.92267-3.324355l402.247026-199.461337h402.247026h798.953461" transform="translate(-.828628 163.651754)" fill="none" stroke="#00a2ff" stroke-miterlimit="1"/><path d="M0,2000.344435l400.358095-201.195542l398.92267-3.324355l402.247026-199.461337h402.247026h798.953461" transform="matrix(-1 0 0 1 3840 3.620768)" fill="none" stroke="#00a2ff" stroke-miterlimit="1"/><path d="M0,2000.344435l400.358095-201.195542l398.92267-3.324355l402.247026-199.461337h402.247026h798.953461" transform="matrix(-1 0 0 1 3840 43.675495)" fill="none" stroke="#00a2ff" stroke-miterlimit="1"/><path d="M0,2000.344435l400.358095-201.195542l398.92267-3.324355l402.247026-199.461337h402.247026h798.953461" transform="matrix(-1 0 0 1 3840 113.783037)" fill="none" stroke="#00a2ff" stroke-miterlimit="1"/><path d="M0,2000.344435l400.358095-201.195542l398.92267-3.324355l402.247026-199.461337h402.247026h798.953461" transform="matrix(-1 0 0 1 3840 133.873538)" fill="none" stroke="#00a2ff" stroke-miterlimit="1"/><path d="M0,2000.344435l400.358095-201.195542l398.92267-3.324355l402.247026-199.461337h402.247026h798.953461" transform="matrix(-1 0 0 1 3840 143.748356)" fill="none" stroke="#00a2ff" stroke-miterlimit="1"/><path d="M0,2000.344435l400.358095-201.195542l398.92267-3.324355l402.247026-199.461337h402.247026h798.953461" transform="matrix(-1 0 0 1 3840 123.657855)" fill="none" stroke="#00a2ff" stroke-miterlimit="1"/><path d="M0,2000.344435l400.358095-201.195542l398.92267-3.324355l402.247026-199.461337h402.247026h798.953461" transform="matrix(-1 0 0 1 3840 93.818811)" fill="none" stroke="#00a2ff" stroke-miterlimit="1"/><path d="M0,2000.344435l400.358095-201.195542l398.92267-3.324355l402.247026-199.461337h402.247026h798.953461" transform="matrix(-1 0 0 1 3840 103.693629)" fill="none" stroke="#00a2ff" stroke-miterlimit="1"/><path d="M0,2000.344435l400.358095-201.195542l398.92267-3.324355l402.247026-199.461337h402.247026h798.953461" transform="matrix(-1 0 0 1 3840 83.603128)" fill="none" stroke="#00a2ff" stroke-miterlimit="1"/><path d="M0,2000.344435l400.358095-201.195542l398.92267-3.324355l402.247026-199.461337h402.247026h798.953461" transform="translate(0 113.783037)" fill="none" stroke="#00a2ff" stroke-miterlimit="1"/><path d="M0,2000.344435l400.358095-201.195542l398.92267-3.324355l402.247026-199.461337h402.247026h798.953461" transform="translate(0 133.873538)" fill="none" stroke="#00a2ff" stroke-miterlimit="1"/><path d="M0,2000.344435l400.358095-201.195542l398.92267-3.324355l402.247026-199.461337h402.247026h798.953461" transform="translate(0 143.748356)" fill="none" stroke="#00a2ff" stroke-miterlimit="1"/><path d="M0,2000.344435l400.358095-201.195542l398.92267-3.324355l402.247026-199.461337h402.247026h798.953461" transform="translate(0 123.657855)" fill="none" stroke="#00a2ff" stroke-miterlimit="1"/><path d="M0,2000.344435l400.358095-201.195542l398.92267-3.324355l402.247026-199.461337h402.247026h798.953461" transform="translate(0 93.818811)" fill="none" stroke="#00a2ff" stroke-miterlimit="1"/><path d="M0,2000.344435l400.358095-201.195542l398.92267-3.324355l402.247026-199.461337h402.247026h798.953461" transform="translate(0 103.693629)" fill="none" stroke="#00a2ff" stroke-miterlimit="1"/><path d="M0,2000.344435l400.358095-201.195542l398.92267-3.324355l402.247026-199.461337h402.247026h798.953461" transform="translate(0 83.603128)" fill="none" stroke="#00a2ff" stroke-miterlimit="1"/><path d="M0,2000.344435l400.358095-201.195542l398.92267-3.324355l402.247026-199.461337h402.247026h798.953461" transform="matrix(-1 0 0 1 3840 63.765996)" fill="none" stroke="#00a2ff" stroke-miterlimit="1"/><path d="M0,2000.344435l400.358095-201.195542l398.92267-3.324355l402.247026-199.461337h402.247026h798.953461" transform="matrix(-1 0 0 1 3840 73.640814)" fill="none" stroke="#00a2ff" stroke-miterlimit="1"/><path d="M0,2000.344435l400.358095-201.195542l398.92267-3.324355l402.247026-199.461337h402.247026h798.953461" transform="matrix(-1 0 0 1 3840 53.550313)" fill="none" stroke="#00a2ff" stroke-miterlimit="1"/><path d="M0,2000.344435l400.358095-201.195542l398.92267-3.324355l402.247026-199.461337h402.247026h798.953461" transform="matrix(-1 0 0 1 3840 23.711269)" fill="none" stroke="#00a2ff" stroke-miterlimit="1"/><path d="M0,2000.344435l400.358095-201.195542l398.92267-3.324355l402.247026-199.461337h402.247026h798.953461" transform="matrix(-1 0 0 1 3840 33.586087)" fill="none" stroke="#00a2ff" stroke-miterlimit="1"/><path d="M0,2000.344435l400.358095-201.195542l398.92267-3.324355l402.247026-199.461337h402.247026h798.953461" transform="matrix(-1 0 0 1 3840 13.495586)" fill="none" stroke="#00a2ff" stroke-miterlimit="1"/><path d="M0,2000.344435l400.358095-201.195542l398.92267-3.324355l402.247026-199.461337h402.247026h798.953461" transform="translate(0 43.675495)" fill="none" stroke="#00a2ff" stroke-miterlimit="1"/><path d="M0,2000.344435l400.358095-201.195542l398.92267-3.324355l402.247026-199.461337h402.247026h798.953461" transform="translate(0 63.765996)" fill="none" stroke="#00a2ff" stroke-miterlimit="1"/><path d="M0,2000.344435l400.358095-201.195542l398.92267-3.324355l402.247026-199.461337h402.247026h798.953461" transform="translate(0 73.640814)" fill="none" stroke="#00a2ff" stroke-miterlimit="1"/><path d="M0,2000.344435l400.358095-201.195542l398.92267-3.324355l402.247026-199.461337h402.247026h798.953461" transform="translate(0 53.550313)" fill="none" stroke="#00a2ff" stroke-miterlimit="1"/><path d="M0,2000.344435l400.358095-201.195542l398.92267-3.324355l402.247026-199.461337h402.247026h798.953461" transform="translate(0 23.711269)" fill="none" stroke="#00a2ff" stroke-miterlimit="1"/><path d="M0,2000.344435l400.358095-201.195542l398.92267-3.324355l402.247026-199.461337h402.247026h798.953461" transform="translate(0 33.586087)" fill="none" stroke="#00a2ff" stroke-miterlimit="1"/><path d="M0,2000.344435l400.358095-201.195542l398.92267-3.324355l402.247026-199.461337h402.247026h798.953461" transform="translate(0 13.495586)" fill="none" stroke="#00a2ff" stroke-miterlimit="1"/><ellipse rx="2.5" ry="2.5" transform="translate(3612.712209 1041.396437)" fill="none" stroke="#00a2ff"/><ellipse rx="2.5" ry="2.5" transform="translate(3612.84797 1081.989102)" fill="none" stroke="#00a2ff"/><ellipse rx="2.5" ry="2.5" transform="translate(3612.84797 1102.579521)" fill="none" stroke="#00a2ff"/><ellipse rx="2.5" ry="2.5" transform="translate(3612.84797 1112.262925)" fill="none" stroke="#00a2ff"/><ellipse rx="2.5" ry="2.5" transform="translate(3612.84797 1091.672506)" fill="none" stroke="#00a2ff"/><ellipse rx="2.5" ry="2.5" transform="translate(3612.712209 1061.986856)" fill="none" stroke="#00a2ff"/><ellipse rx="2.5" ry="2.5" transform="translate(3612.712209 1071.67026)" fill="none" stroke="#00a2ff"/><ellipse rx="2.5" ry="2.5" transform="translate(3612.712209 1051.079841)" fill="none" stroke="#00a2ff"/><ellipse rx="2.5" ry="2.5" transform="translate(3613.119359 1122.215776)" fill="none" stroke="#00a2ff"/><ellipse rx="2.5" ry="2.5" transform="translate(3613.25512 1162.808441)" fill="none" stroke="#00a2ff"/><ellipse rx="2.5" ry="2.5" transform="translate(3613.25512 1172.491845)" fill="none" stroke="#00a2ff"/><ellipse rx="2.5" ry="2.5" transform="translate(3613.119359 1142.806195)" fill="none" stroke="#00a2ff"/><ellipse rx="2.5" ry="2.5" transform="translate(3613.119359 1152.489599)" fill="none" stroke="#00a2ff"/><ellipse rx="2.5" ry="2.5" transform="translate(3613.119359 1131.89918)" fill="none" stroke="#00a2ff"/><ellipse rx="2.5" ry="2.5" transform="translate(3612.84797 1081.989102)" fill="none" stroke="#00a2ff"/><ellipse rx="2.5" ry="2.5" transform="translate(3612.84797 1102.579521)" fill="none" stroke="#00a2ff"/><ellipse rx="2.5" ry="2.5" transform="translate(3612.84797 1112.262925)" fill="none" stroke="#00a2ff"/><ellipse rx="2.5" ry="2.5" transform="translate(3612.84797 1091.672506)" fill="none" stroke="#00a2ff"/><ellipse rx="2.5" ry="2.5" transform="translate(3612.712209 1061.986856)" fill="none" stroke="#00a2ff"/><ellipse rx="2.5" ry="2.5" transform="translate(3612.712209 1071.67026)" fill="none" stroke="#00a2ff"/><ellipse rx="2.5" ry="2.5" transform="translate(3612.712209 1051.079841)" fill="none" stroke="#00a2ff"/><ellipse rx="2.5" ry="2.5" transform="translate(3613.119359 1122.215776)" fill="none" stroke="#00a2ff"/><ellipse rx="2.5" ry="2.5" transform="translate(3613.25512 1162.808441)" fill="none" stroke="#00a2ff"/><ellipse rx="2.5" ry="2.5" transform="translate(3612.645409 1181.934827)" fill="none" stroke="#00a2ff"/><ellipse rx="2.5" ry="2.5" transform="translate(3613.25512 1172.491845)" fill="none" stroke="#00a2ff"/><ellipse rx="2.5" ry="2.5" transform="translate(3613.119359 1142.806195)" fill="none" stroke="#00a2ff"/><ellipse rx="2.5" ry="2.5" transform="translate(3613.119359 1152.489599)" fill="none" stroke="#00a2ff"/><ellipse rx="2.5" ry="2.5" transform="translate(3613.119359 1131.89918)" fill="none" stroke="#00a2ff"/><ellipse rx="2.5" ry="2.5" transform="translate(3613.908286 891.396148)" fill="none" stroke="#00a2ff"/><ellipse rx="2.5" ry="2.5" transform="translate(3614.044047 931.988813)" fill="none" stroke="#00a2ff"/><ellipse rx="2.5" ry="2.5" transform="translate(3614.044047 952.579232)" fill="none" stroke="#00a2ff"/><ellipse rx="2.5" ry="2.5" transform="translate(3614.044047 962.262636)" fill="none" stroke="#00a2ff"/><ellipse rx="2.5" ry="2.5" transform="translate(3614.044047 941.672217)" fill="none" stroke="#00a2ff"/><ellipse rx="2.5" ry="2.5" transform="translate(3613.908286 911.986567)" fill="none" stroke="#00a2ff"/><ellipse rx="2.5" ry="2.5" transform="translate(3613.908286 921.669971)" fill="none" stroke="#00a2ff"/><ellipse rx="2.5" ry="2.5" transform="translate(3613.908286 901.079552)" fill="none" stroke="#00a2ff"/><ellipse rx="2.5" ry="2.5" transform="translate(3614.315436 972.215487)" fill="none" stroke="#00a2ff"/><ellipse rx="2.5" ry="2.5" transform="translate(3614.451197 1012.808152)" fill="none" stroke="#00a2ff"/><ellipse rx="2.5" ry="2.5" transform="translate(3614.451197 1022.491556)" fill="none" stroke="#00a2ff"/><ellipse rx="2.5" ry="2.5" transform="translate(3614.315436 992.805906)" fill="none" stroke="#00a2ff"/><ellipse rx="2.5" ry="2.5" transform="translate(3614.315436 1002.48931)" fill="none" stroke="#00a2ff"/><ellipse rx="2.5" ry="2.5" transform="translate(3614.315436 981.898891)" fill="none" stroke="#00a2ff"/><ellipse rx="2.5" ry="2.5" transform="translate(3614.044047 931.988813)" fill="none" stroke="#00a2ff"/><ellipse rx="2.5" ry="2.5" transform="translate(3614.044047 952.579232)" fill="none" stroke="#00a2ff"/><ellipse rx="2.5" ry="2.5" transform="translate(3614.044047 962.262636)" fill="none" stroke="#00a2ff"/><ellipse rx="2.5" ry="2.5" transform="translate(3614.044047 941.672217)" fill="none" stroke="#00a2ff"/><ellipse rx="2.5" ry="2.5" transform="translate(3613.908286 911.986567)" fill="none" stroke="#00a2ff"/><ellipse rx="2.5" ry="2.5" transform="translate(3613.908286 921.669971)" fill="none" stroke="#00a2ff"/><ellipse rx="2.5" ry="2.5" transform="translate(3613.908286 901.079552)" fill="none" stroke="#00a2ff"/><ellipse rx="2.5" ry="2.5" transform="translate(3614.315436 972.215487)" fill="none" stroke="#00a2ff"/><ellipse rx="2.5" ry="2.5" transform="translate(3614.451197 1012.808152)" fill="none" stroke="#00a2ff"/><ellipse rx="2.5" ry="2.5" transform="translate(3613.841486 1031.934538)" fill="none" stroke="#00a2ff"/><ellipse rx="2.5" ry="2.5" transform="translate(3614.451197 1022.491556)" fill="none" stroke="#00a2ff"/><ellipse rx="2.5" ry="2.5" transform="translate(3614.315436 992.805906)" fill="none" stroke="#00a2ff"/><ellipse rx="2.5" ry="2.5" transform="translate(3614.315436 1002.48931)" fill="none" stroke="#00a2ff"/><ellipse rx="2.5" ry="2.5" transform="translate(3614.315436 981.898891)" fill="none" stroke="#00a2ff"/><path d="M0,2000.344435l400.358095-201.195542l398.92267-3.324355l402.247026-199.461337h402.247026h798.953461" transform="matrix(-1.003304 0 0-1.007234 3610.122947 2757.75067)" fill="none" stroke="#00a2ff" stroke-miterlimit="1"/><path d="M0,2000.344435l400.358095-201.195542l398.92267-3.324355l402.247026-199.461337h402.247026h798.953461" transform="matrix(-1.003304 0 0-1.007234 3610.122947 2757.75067)" fill="none" stroke="#00a2ff" stroke-miterlimit="1"/><path d="M0,2000.344435l400.358095-201.195542l398.92267-3.324355l402.247026-199.461337h402.247026h798.953461" transform="matrix(-1.003304 0 0-1.007234 3610.122947 2797.805397)" fill="none" stroke="#00a2ff" stroke-miterlimit="1"/><path d="M0,2000.344435l400.358095-201.195542l398.92267-3.324355l402.247026-199.461337h402.247026h798.953461" transform="matrix(-1.003304 0 0-1.007234 3610.122947 2867.912939)" fill="none" stroke="#00a2ff" stroke-miterlimit="1"/><path d="M0,2000.344435l400.358095-201.195542l398.92267-3.324355l402.247026-199.461337h402.247026h798.953461" transform="matrix(-1.003304 0 0-1.007234 3610.122947 2888.00344)" fill="none" stroke="#00a2ff" stroke-miterlimit="1"/><path d="M0,2000.344435l400.358095-201.195542l398.92267-3.324355l402.247026-199.461337h402.247026h798.953461" transform="matrix(-1.003304 0 0-1.007234 3610.122947 2897.878258)" fill="none" stroke="#00a2ff" stroke-miterlimit="1"/><path d="M0,2000.344435l400.358095-201.195542l398.92267-3.324355l402.247026-199.461337h402.247026h798.953461" transform="matrix(-1.003304 0 0-1.007234 3610.122947 2877.787757)" fill="none" stroke="#00a2ff" stroke-miterlimit="1"/><path d="M0,2000.344435l400.358095-201.195542l398.92267-3.324355l402.247026-199.461337h402.247026h798.953461" transform="matrix(-1.003304 0 0-1.007234 3610.122947 2847.948713)" fill="none" stroke="#00a2ff" stroke-miterlimit="1"/><path d="M0,2000.344435l400.358095-201.195542l398.92267-3.324355l402.247026-199.461337h402.247026h798.953461" transform="matrix(-1.003304 0 0-1.007234 3610.122947 2857.823531)" fill="none" stroke="#00a2ff" stroke-miterlimit="1"/><path d="M0,2000.344435l400.358095-201.195542l398.92267-3.324355l402.247026-199.461337h402.247026h798.953461" transform="matrix(-1.003304 0 0-1.007234 3610.122947 2837.73303)" fill="none" stroke="#00a2ff" stroke-miterlimit="1"/><path d="M0,2000.344435l400.358095-201.195542l398.92267-3.324355l402.247026-199.461337h402.247026h798.953461" transform="matrix(-1.003304 0 0-1.007234 3610.122947 2817.895898)" fill="none" stroke="#00a2ff" stroke-miterlimit="1"/><path d="M0,2000.344435l400.358095-201.195542l398.92267-3.324355l402.247026-199.461337h402.247026h798.953461" transform="matrix(-1.003304 0 0-1.007234 3610.122947 2827.770716)" fill="none" stroke="#00a2ff" stroke-miterlimit="1"/><path d="M0,2000.344435l400.358095-201.195542l398.92267-3.324355l402.247026-199.461337h402.247026h798.953461" transform="matrix(-1.003304 0 0-1.007234 3610.122947 2807.680215)" fill="none" stroke="#00a2ff" stroke-miterlimit="1"/><path d="M0,2000.344435l400.358095-201.195542l398.92267-3.324355l402.247026-199.461337h402.247026h798.953461" transform="matrix(-1.003304 0 0-1.007234 3610.122947 2777.841171)" fill="none" stroke="#00a2ff" stroke-miterlimit="1"/><path d="M0,2000.344435l400.358095-201.195542l398.92267-3.324355l402.247026-199.461337h402.247026h798.953461" transform="matrix(-1.003304 0 0-1.007234 3610.122947 2787.715989)" fill="none" stroke="#00a2ff" stroke-miterlimit="1"/><path d="M0,2000.344435l400.358095-201.195542l398.92267-3.324355l402.247026-199.461337h402.247026h798.953461" transform="matrix(-1.003304 0 0-1.007234 3610.122947 2767.625488)" fill="none" stroke="#00a2ff" stroke-miterlimit="1"/><path d="M0,2000.344435l400.358095-201.195542l398.92267-3.324355l402.247026-199.461337h402.247026h798.953461" transform="matrix(-1.003304 0 0-1.007234 3610.951575 2607.594502)" fill="none" stroke="#00a2ff" stroke-miterlimit="1"/><path d="M0,2000.344435l400.358095-201.195542l398.92267-3.324355l402.247026-199.461337h402.247026h798.953461" transform="matrix(-1.003304 0 0-1.007234 3610.951575 2647.649229)" fill="none" stroke="#00a2ff" stroke-miterlimit="1"/><path d="M0,2000.344435l400.358095-201.195542l398.92267-3.324355l402.247026-199.461337h402.247026h798.953461" transform="matrix(-1.003304 0 0-1.007234 3610.951575 2717.756771)" fill="none" stroke="#00a2ff" stroke-miterlimit="1"/><path d="M0,2000.344435l400.358095-201.195542l398.92267-3.324355l402.247026-199.461337h402.247026h798.953461" transform="matrix(-1.003304 0 0-1.007234 3610.951575 2737.847272)" fill="none" stroke="#00a2ff" stroke-miterlimit="1"/><path d="M0,2000.344435l400.358095-201.195542l398.92267-3.324355l402.247026-199.461337h402.247026h798.953461" transform="matrix(-1.003304 0 0-1.007234 3610.951575 2747.72209)" fill="none" stroke="#00a2ff" stroke-miterlimit="1"/><path d="M0,2000.344435l400.358095-201.195542l398.92267-3.324355l402.247026-199.461337h402.247026h798.953461" transform="matrix(-1.003304 0 0-1.007234 3610.951575 2727.631589)" fill="none" stroke="#00a2ff" stroke-miterlimit="1"/><path d="M0,2000.344435l400.358095-201.195542l398.92267-3.324355l402.247026-199.461337h402.247026h798.953461" transform="matrix(-1.003304 0 0-1.007234 3610.951575 2697.792545)" fill="none" stroke="#00a2ff" stroke-miterlimit="1"/><path d="M0,2000.344435l400.358095-201.195542l398.92267-3.324355l402.247026-199.461337h402.247026h798.953461" transform="matrix(-1.003304 0 0-1.007234 3610.951575 2707.667363)" fill="none" stroke="#00a2ff" stroke-miterlimit="1"/><path d="M0,2000.344435l400.358095-201.195542l398.92267-3.324355l402.247026-199.461337h402.247026h798.953461" transform="matrix(-1.003304 0 0-1.007234 3610.951575 2687.576862)" fill="none" stroke="#00a2ff" stroke-miterlimit="1"/><path d="M0,2000.344435l400.358095-201.195542l398.92267-3.324355l402.247026-199.461337h402.247026h798.953461" transform="matrix(-1.003304 0 0-1.007234 3610.951575 2667.73973)" fill="none" stroke="#00a2ff" stroke-miterlimit="1"/><path d="M0,2000.344435l400.358095-201.195542l398.92267-3.324355l402.247026-199.461337h402.247026h798.953461" transform="matrix(-1.003304 0 0-1.007234 3610.951575 2677.614548)" fill="none" stroke="#00a2ff" stroke-miterlimit="1"/><path d="M0,2000.344435l400.358095-201.195542l398.92267-3.324355l402.247026-199.461337h402.247026h798.953461" transform="matrix(-1.003304 0 0-1.007234 3610.951575 2657.524047)" fill="none" stroke="#00a2ff" stroke-miterlimit="1"/><path d="M0,2000.344435l400.358095-201.195542l398.92267-3.324355l402.247026-199.461337h402.247026h798.953461" transform="matrix(-1.003304 0 0-1.007234 3610.951575 2627.685003)" fill="none" stroke="#00a2ff" stroke-miterlimit="1"/><path d="M0,2000.344435l400.358095-201.195542l398.92267-3.324355l402.247026-199.461337h402.247026h798.953461" transform="matrix(-1.003304 0 0-1.007234 3610.951575 2637.559821)" fill="none" stroke="#00a2ff" stroke-miterlimit="1"/><path d="M0,2000.344435l400.358095-201.195542l398.92267-3.324355l402.247026-199.461337h402.247026h798.953461" transform="matrix(-1.003304 0 0-1.007234 3610.951575 2617.46932)" fill="none" stroke="#00a2ff" stroke-miterlimit="1"/><path d="M0,2000.344435l400.358095-201.195542l398.92267-3.324355l402.247026-199.461337h402.247026h798.953461" transform="matrix(-1.003304 0 0-1.007234 3610.122947 2797.805397)" fill="none" stroke="#00a2ff" stroke-miterlimit="1"/><path d="M0,2000.344435l400.358095-201.195542l398.92267-3.324355l402.247026-199.461337h402.247026h798.953461" transform="matrix(-1.003304 0 0-1.007234 3610.122947 2867.912939)" fill="none" stroke="#00a2ff" stroke-miterlimit="1"/><path d="M0,2000.344435l400.358095-201.195542l398.92267-3.324355l402.247026-199.461337h402.247026h798.953461" transform="matrix(-1.003304 0 0-1.007234 3610.122947 2888.00344)" fill="none" stroke="#00a2ff" stroke-miterlimit="1"/><path d="M0,2000.344435l400.358095-201.195542l398.92267-3.324355l402.247026-199.461337h402.247026h798.953461" transform="matrix(-1.003304 0 0-1.007234 3610.122947 2897.878258)" fill="none" stroke="#00a2ff" stroke-miterlimit="1"/><path d="M0,2000.344435l400.358095-201.195542l398.92267-3.324355l402.247026-199.461337h402.247026h798.953461" transform="matrix(-1.003304 0 0-1.007234 3610.122947 2877.787757)" fill="none" stroke="#00a2ff" stroke-miterlimit="1"/><path d="M0,2000.344435l400.358095-201.195542l398.92267-3.324355l402.247026-199.461337h402.247026h798.953461" transform="matrix(-1.003304 0 0-1.007234 3610.122947 2847.948713)" fill="none" stroke="#00a2ff" stroke-miterlimit="1"/><path d="M0,2000.344435l400.358095-201.195542l398.92267-3.324355l402.247026-199.461337h402.247026h798.953461" transform="matrix(-1.003304 0 0-1.007234 3610.122947 2857.823531)" fill="none" stroke="#00a2ff" stroke-miterlimit="1"/><path d="M0,2000.344435l400.358095-201.195542l398.92267-3.324355l402.247026-199.461337h402.247026h798.953461" transform="matrix(-1.003304 0 0-1.007234 3610.122947 2837.73303)" fill="none" stroke="#00a2ff" stroke-miterlimit="1"/><path d="M0,2000.344435l400.358095-201.195542l398.92267-3.324355l402.247026-199.461337h402.247026h798.953461" transform="matrix(-1.003304 0 0-1.007234 3610.122947 2817.895898)" fill="none" stroke="#00a2ff" stroke-miterlimit="1"/><path d="M0,2000.344435l400.358095-201.195542l398.92267-3.324355l402.247026-199.461337h402.247026h798.953461" transform="matrix(-1.003304 0 0-1.007234 3610.122947 2827.770716)" fill="none" stroke="#00a2ff" stroke-miterlimit="1"/><path d="M0,2000.344435l400.358095-201.195542l398.92267-3.324355l402.247026-199.461337h402.247026h798.953461" transform="matrix(-1.003304 0 0-1.007234 3610.122947 2807.680215)" fill="none" stroke="#00a2ff" stroke-miterlimit="1"/><path d="M0,2000.344435l400.358095-201.195542l398.92267-3.324355l402.247026-199.461337h402.247026h798.953461" transform="matrix(-1.003304 0 0-1.007234 3610.122947 2777.841171)" fill="none" stroke="#00a2ff" stroke-miterlimit="1"/><path d="M0,2000.344435l400.358095-201.195542l398.92267-3.324355l402.247026-199.461337h402.247026h798.953461" transform="matrix(-1.003304 0 0-1.007234 3610.122947 2787.715989)" fill="none" stroke="#00a2ff" stroke-miterlimit="1"/><path d="M0,2000.344435l400.358095-201.195542l398.92267-3.324355l402.247026-199.461337h402.247026h798.953461" transform="matrix(-1.003304 0 0-1.007234 3610.122947 2767.625488)" fill="none" stroke="#00a2ff" stroke-miterlimit="1"/><path d="M0,2000.344435l400.358095-201.195542l398.92267-3.324355l402.247026-199.461337h402.247026h798.953461" transform="matrix(-1.003304 0 0-1.007234 3610.951575 2607.594502)" fill="none" stroke="#00a2ff" stroke-miterlimit="1"/><path d="M0,2000.344435l400.358095-201.195542l398.92267-3.324355l402.247026-199.461337h402.247026h798.953461" transform="matrix(-1.003304 0 0-1.007234 3610.951575 2647.649229)" fill="none" stroke="#00a2ff" stroke-miterlimit="1"/><path d="M0,2000.344435l400.358095-201.195542l398.92267-3.324355l402.247026-199.461337h402.247026h798.953461" transform="matrix(-1.003304 0 0-1.007234 3610.951575 2717.756771)" fill="none" stroke="#00a2ff" stroke-miterlimit="1"/><path d="M0,2000.344435l400.358095-201.195542l398.92267-3.324355l402.247026-199.461337h402.247026h798.953461" transform="matrix(-1.003304 0 0-1.007234 3610.951575 2737.847272)" fill="none" stroke="#00a2ff" stroke-miterlimit="1"/><path d="M0,2000.344435l400.358095-201.195542l398.92267-3.324355l402.247026-199.461337h402.247026h798.953461" transform="matrix(-1.003304 0 0-1.007234 3610.951575 2747.72209)" fill="none" stroke="#00a2ff" stroke-miterlimit="1"/><path d="M0,2000.344435l400.358095-201.195542l398.92267-3.324355l402.247026-199.461337h402.247026h798.953461" transform="matrix(-1.003304 0 0-1.007234 3610.951575 2727.631589)" fill="none" stroke="#00a2ff" stroke-miterlimit="1"/><path d="M0,2000.344435l400.358095-201.195542l398.92267-3.324355l402.247026-199.461337h402.247026h798.953461" transform="matrix(-1.003304 0 0-1.007234 3610.951575 2697.792545)" fill="none" stroke="#00a2ff" stroke-miterlimit="1"/><path d="M0,2000.344435l400.358095-201.195542l398.92267-3.324355l402.247026-199.461337h402.247026h798.953461" transform="matrix(-1.003304 0 0-1.007234 3610.951575 2707.667363)" fill="none" stroke="#00a2ff" stroke-miterlimit="1"/><path d="M0,2000.344435l400.358095-201.195542l398.92267-3.324355l402.247026-199.461337h402.247026h798.953461" transform="matrix(-1.003304 0 0-1.007234 3610.951575 2687.576862)" fill="none" stroke="#00a2ff" stroke-miterlimit="1"/><path d="M0,2000.344435l400.358095-201.195542l398.92267-3.324355l402.247026-199.461337h402.247026h798.953461" transform="matrix(-1.003304 0 0-1.007234 3610.951575 2667.73973)" fill="none" stroke="#00a2ff" stroke-miterlimit="1"/><path d="M0,2000.344435l400.358095-201.195542l398.92267-3.324355l402.247026-199.461337h402.247026h798.953461" transform="matrix(-1.003304 0 0-1.007234 3610.951575 2677.614548)" fill="none" stroke="#00a2ff" stroke-miterlimit="1"/><path d="M0,2000.344435l400.358095-201.195542l398.92267-3.324355l402.247026-199.461337h402.247026h798.953461" transform="matrix(-1.003304 0 0-1.007234 3610.951575 2657.524047)" fill="none" stroke="#00a2ff" stroke-miterlimit="1"/><path d="M0,2000.344435l400.358095-201.195542l398.92267-3.324355l402.247026-199.461337h402.247026h798.953461" transform="matrix(-1.003304 0 0-1.007234 3610.951575 2627.685003)" fill="none" stroke="#00a2ff" stroke-miterlimit="1"/><path d="M0,2000.344435l400.358095-201.195542l398.92267-3.324355l402.247026-199.461337h402.247026h798.953461" transform="matrix(-1.003304 0 0-1.007234 3610.951575 2637.559821)" fill="none" stroke="#00a2ff" stroke-miterlimit="1"/><path d="M0,2000.344435l400.358095-201.195542l398.92267-3.324355l402.247026-199.461337h402.247026h798.953461" transform="matrix(-1.003304 0 0-1.007234 3610.951575 2617.46932)" fill="none" stroke="#00a2ff" stroke-miterlimit="1"/></svg>
